<svg xmlns="http://www.w3.org/2000/svg" xmlns:xlink="http://www.w3.org/1999/xlink" viewBox="0 0 100 150"><defs><style>.a,.h{fill:none;}.b,.d,.n{fill:#27123e;}.c,.j{fill:#fff;}.c{opacity:0.1;}.d{opacity:0.6;}.e{opacity:0.3;}.f,.o,.q{fill:#15b0bf;}.g{opacity:0.96;}.h{stroke-linecap:round;stroke-miterlimit:10;opacity:0.2;}.i{clip-path:url(#a);}.k{fill:#3c2a54;}.l{fill:#050505;}.m{fill:#1f191a;}.n{font-size:13px;}.n,.o{font-family:MyriadPro-Regular, Myriad Pro;}.o{font-size:14px;}.p,.q{stroke:none;}</style><clipPath id="a"><path class="a" d="M1213.229,1467.679a3.086,3.086,0,0,0-3.3-.579,2.4,2.4,0,0,0,.862-2.051c0-.034,0-.067,0-.1a2.819,2.819,0,1,0-5.581.572,2.544,2.544,0,0,0,.86,1.579,3.086,3.086,0,0,0-3.3.579,2.944,2.944,0,0,0-.241,3.662,2.616,2.616,0,0,0,2.47,1.378,2.856,2.856,0,0,0,2-.737v1.328a5.871,5.871,0,0,1-.928,1.646H1207v116.173a1,1,0,0,0,2,0V1474.956h.928a5.108,5.108,0,0,1-.928-1.615v-1.359a2.858,2.858,0,0,0,2,.737,2.616,2.616,0,0,0,2.47-1.378A2.944,2.944,0,0,0,1213.229,1467.679Z"/></clipPath></defs><g transform="translate(-1200 -1450)"><path class="b" d="M1233.844,1576.552c6.382,3.924,2.708,10.189-2.806,15.637-4,3.956-10.69,6.594-12.642,5.062-2.566-2.013-1.854-8.549.824-15.12C1222.145,1574.952,1227.494,1572.648,1233.844,1576.552Z"/><path class="b" d="M1224,1595.422c0,2.728-2.91,3.64-6.5,3.64s-6.5.648-6.5-2.08,5.25-7.8,8.84-7.8S1224,1592.694,1224,1595.422Z"/><path class="b" d="M1266.156,1576.552c-6.382,3.924-2.708,10.189,2.806,15.637,4,3.956,10.69,6.594,12.642,5.062,2.566-2.013,1.854-8.549-.824-15.12C1277.855,1574.952,1272.506,1572.648,1266.156,1576.552Z"/><path class="b" d="M1276,1595.422c0,2.728,2.91,3.64,6.5,3.64s6.5.648,6.5-2.08-5.25-7.8-8.84-7.8S1276,1592.694,1276,1595.422Z"/><path class="b" d="M1295,1495h-90v57c0,23.524,38.313,42.183,45,45.259,6.688-3.076,45-21.735,45-45.259Z"/><path class="b" d="M1292.5,1552c0,18.925-29.013,36.284-42.5,42.524-13.494-6.228-42.5-23.561-42.5-42.524v-57h-5v57c0,27.614,47.5,48,47.5,48h0s47.5-20.386,47.5-48v-57h-5Z"/><path class="c" d="M1207.5,1495h-5v57c0,27.614,47.5,48,47.5,48V1495Z"/><path class="b" d="M1221.7,1489.066c-2.507-2.929-2.366-7.518-.557-9.066"/><path class="b" d="M1278.1,1489.066c2.507-2.929,2.366-7.518.557-9.066"/><path class="d" d="M1278.814,1480.608c1.2,14.189-12.916,29.392-28.849,29.392s-28.85-12.162-28.85-29.392c0-.2,28.65-7.094,28.85-7.094C1251.159,1473.514,1278.8,1480.406,1278.814,1480.608Z"/><path class="b" d="M1276.146,1473.779c-6.507-4.927-14.507-2-14.507-2,2.795-2.07,4.662-3.715,4.312-7.11.006-.115.013-.23.013-.346,0-5.4-8.312-9.771-16.1-9.771s-16.1,4.375-16.1,9.771a6.921,6.921,0,0,0,.291,1.984c.321,2.348,2,3.765,4.3,5.472,0,0-8-2.923-14.507,2s-3.253,10.774-1.2,12.694,5.119,5.146,12.351,4.774c6.4-.33-.4,4.188,4,1.753-.525,6.7,1.361,6,1.361,6h19.278c-3.544-2.583-1.048-3.3-.639-6,4.3,2.385-.343-2.08,6-1.753,7.232.372,10.3-2.853,12.351-4.774S1282.652,1478.707,1276.146,1473.779Z"/><g class="e"><path class="f" d="M1249.867,1456.548c6.982,0,14.1,3.922,14.1,7.771,0,.067-.005.134-.01.244a1.857,1.857,0,0,0,.008.307c.222,2.159-.638,3.168-3.514,5.3a2,2,0,0,0,1.871,3.488,16.093,16.093,0,0,1,4.87-.741,12.52,12.52,0,0,1,7.749,2.459c1.936,1.466,2.964,3.09,3.055,4.828a6.7,6.7,0,0,1-2.01,4.812c-.422.4-.849.875-1.3,1.382-1.935,2.17-4.344,4.87-8.954,4.87q-.306,0-.624-.017c-.263-.013-.509-.019-.74-.019-2.248,0-3.754.637-4.557,1.94a2,2,0,0,0-2.783,1.531,4.773,4.773,0,0,1-.541,1.439,4.958,4.958,0,0,0-.681,2.86h-14.752a14.709,14.709,0,0,1-.055-3.844,2,2,0,0,0-.912-1.838,2.046,2.046,0,0,0-.4-.2,2.747,2.747,0,0,0-.149-.283c-.864-1.439-2.637-1.606-3.9-1.606q-.341,0-.736.02-.318.016-.624.017c-4.61,0-7.019-2.7-8.955-4.87-.452-.508-.88-.987-1.3-1.382a6.7,6.7,0,0,1-2.01-4.811c.091-1.739,1.119-3.363,3.055-4.829a12.513,12.513,0,0,1,7.749-2.459,16.1,16.1,0,0,1,4.864.739,2,2,0,0,0,1.877-3.486c-2.265-1.678-3.309-2.673-3.509-4.136a2.025,2.025,0,0,0-.065-.3,4.957,4.957,0,0,1-.208-1.413c0-3.849,7.114-7.771,14.1-7.771m0-2c-7.786,0-16.1,4.375-16.1,9.771a6.921,6.921,0,0,0,.291,1.984c.321,2.348,2,3.765,4.3,5.472a17.809,17.809,0,0,0-5.55-.86,14.611,14.611,0,0,0-8.957,2.864c-6.506,4.928-3.253,10.774-1.2,12.694,1.978,1.855,4.911,6.793,11.624,6.793.238,0,.479-.006.727-.019q.341-.018.633-.018c4.122,0,1.3,2.495,1.841,2.495A5.938,5.938,0,0,0,1239,1495c-.434,5.542.782,6.021,1.215,6.021a.453.453,0,0,0,.146-.021h19.278c-3.544-2.583-1.048-3.3-.639-6a4.483,4.483,0,0,0,1.722.7c1.054,0-.558-2.474,3.641-2.474.2,0,.411.005.637.017.247.013.49.019.727.019,6.714,0,9.645-4.938,11.624-6.793,2.048-1.92,5.3-7.766-1.2-12.694a14.618,14.618,0,0,0-8.957-2.864,17.809,17.809,0,0,0-5.55.86c2.795-2.07,4.662-3.715,4.312-7.11.006-.115.013-.23.013-.346,0-5.4-8.312-9.771-16.1-9.771Z"/></g><path class="b" d="M1250,1491.554c-10.949,0-20.971-2.6-28.732-6.921,0,18.07,28.732,25.164,28.732,25.164s28.732-8.108,28.732-25.164C1270.971,1488.949,1260.949,1491.554,1250,1491.554Z"/><path class="f" d="M1250,1484.459l-7.971-31.657a2.4,2.4,0,0,1,2.52-2.8h10.9a2.4,2.4,0,0,1,2.52,2.8Z"/><g class="g"><path class="b" d="M1272.166,1492.139q.144-1.07.286-2.139a2.172,2.172,0,0,1,.413-1.164c.5-.622,1.477-1.01,1.881-.4.371.565.168,1.5.128,2.139a10.977,10.977,0,0,1-1.278,4.372,1.466,1.466,0,0,1-.419.539,1.443,1.443,0,0,1-.885.276c-.507-.033-.557-.4-.517-.7Q1271.97,1493.6,1272.166,1492.139Z"/><path class="b" d="M1265.443,1495.583l.178-2.758a2.775,2.775,0,0,1,.4-1.485c.532-.776,1.645-1.218,2.159-.4a5.556,5.556,0,0,1,.3,2.785,14.393,14.393,0,0,1-1.171,5.593,1.624,1.624,0,0,1-.449.673,1.42,1.42,0,0,1-1.008.3c-.593-.074-.678-.554-.653-.939Q1265.321,1497.47,1265.443,1495.583Z"/><path class="b" d="M1258.834,1498.442l.273-3.415a3.737,3.737,0,0,1,.469-1.815c.595-.922,1.8-1.378,2.334-.313.486.98.269,2.452.244,3.489a19.728,19.728,0,0,1-1.423,6.86,1.925,1.925,0,0,1-.5.8,1.333,1.333,0,0,1-1.094.293c-.635-.142-.712-.746-.675-1.222Q1258.647,1500.781,1258.834,1498.442Z"/><path class="b" d="M1252.126,1500.3q.02-1.926.038-3.851a4.242,4.242,0,0,1,.369-2.055c.573-1.053,1.844-1.6,2.494-.414.6,1.09.474,2.752.526,3.92a22.637,22.637,0,0,1-1.02,7.76,2.067,2.067,0,0,1-.481.914,1.353,1.353,0,0,1-1.158.358c-.7-.143-.824-.821-.819-1.358Z"/><path class="b" d="M1227.834,1492.139q-.144-1.07-.286-2.139a2.172,2.172,0,0,0-.413-1.164c-.5-.622-1.477-1.01-1.881-.4-.371.565-.168,1.5-.128,2.139a10.977,10.977,0,0,0,1.278,4.372,1.466,1.466,0,0,0,.419.539,1.443,1.443,0,0,0,.885.276c.507-.033.557-.4.517-.7Q1228.03,1493.6,1227.834,1492.139Z"/><path class="b" d="M1234.641,1495.583l-.178-2.758a2.784,2.784,0,0,0-.4-1.485c-.532-.776-1.646-1.218-2.159-.4a5.557,5.557,0,0,0-.3,2.785,14.375,14.375,0,0,0,1.171,5.593,1.605,1.605,0,0,0,.449.673,1.418,1.418,0,0,0,1.008.3c.593-.074.678-.554.653-.939Q1234.763,1497.47,1234.641,1495.583Z"/><path class="b" d="M1241.333,1498.442q-.135-1.709-.272-3.415a3.738,3.738,0,0,0-.469-1.815c-.6-.922-1.806-1.378-2.335-.313-.486.98-.268,2.452-.244,3.489a19.75,19.75,0,0,0,1.423,6.86,1.918,1.918,0,0,0,.5.8,1.331,1.331,0,0,0,1.093.293c.635-.142.713-.746.675-1.222Q1241.52,1500.781,1241.333,1498.442Z"/><path class="b" d="M1248.125,1500.3q-.019-1.926-.038-3.851a4.24,4.24,0,0,0-.369-2.055c-.573-1.053-1.844-1.6-2.494-.414-.6,1.09-.474,2.752-.526,3.92a22.637,22.637,0,0,0,1.02,7.76,2.067,2.067,0,0,0,.481.914,1.354,1.354,0,0,0,1.158.358c.695-.143.824-.821.819-1.358Z"/></g><g class="h"><path class="p" d="M1250,1488.514a110,110,0,0,1-28.055-3.51,63.359,63.359,0,0,0,56.11,0A110,110,0,0,1,1250,1488.514Z"/><path class="q" d="M 1250 1491.553955078125 C 1239.366943359375 1491.553955078125 1229.608032226563 1489.098022460938 1221.944946289063 1485.004028320313 C 1230.371948242188 1487.243041992188 1239.900024414063 1488.514038085938 1250 1488.514038085938 C 1260.099975585938 1488.514038085938 1269.628051757813 1487.243041992188 1278.055053710938 1485.004028320313 C 1270.391967773438 1489.098022460938 1260.633056640625 1491.553955078125 1250 1491.553955078125 Z"/></g><path class="f" d="M1286.077,1521.326a2.408,2.408,0,0,0-2.574-.451,1.869,1.869,0,0,0,.672-1.6c0-.026,0-.052,0-.078a2.2,2.2,0,1,0-4.35.446,1.985,1.985,0,0,0,.67,1.231,2.408,2.408,0,0,0-2.574.451,2.3,2.3,0,0,0-.188,2.856,2.04,2.04,0,0,0,1.926,1.074,2.479,2.479,0,0,0,1.832-.792,4.524,4.524,0,0,1-1,2.536h3.006a4.266,4.266,0,0,1-.978-2.522,2.46,2.46,0,0,0,1.814.778,2.04,2.04,0,0,0,1.926-1.074A2.3,2.3,0,0,0,1286.077,1521.326Z"/><path class="c" d="M1244.549,1450a2.4,2.4,0,0,0-2.52,2.8l.731,2.9c-5.021,1.647-8.99,4.886-8.99,8.615a6.921,6.921,0,0,0,.291,1.984c.321,2.348,2,3.765,4.3,5.472,0,0-8-2.923-14.507,2-3.459,2.621-4.159,5.5-3.749,7.911a8.143,8.143,0,0,0,1.595,7.376l-.06-.976a17.429,17.429,0,0,0,2.226,5.481c.222.484.454.962.7,1.429H1202.5v57c0,11.215,7.835,21.238,17.142,29.188-.144.307-.289.614-.422.943a33.931,33.931,0,0,0-2.221,7.861c-3.01,1.541-6,4.931-6,6.99,0,2.728,2.91,2.08,6.5,2.08,2.843,0,5.254-.576,6.136-2.17a22.179,22.179,0,0,0,7.4-4.7q.792-.781,1.525-1.583A139.806,139.806,0,0,0,1250,1600V1450Z"/><g class="i"><rect class="f" width="2" height="128" rx="1" transform="translate(1207 1464.129)"/><path class="b" d="M1213.229,1467.679a3.086,3.086,0,0,0-3.3-.579,2.4,2.4,0,0,0,.862-2.051c0-.034,0-.067,0-.1a2.819,2.819,0,1,0-5.581.572,2.544,2.544,0,0,0,.86,1.579,3.086,3.086,0,0,0-3.3.579,2.944,2.944,0,0,0-.241,3.662,2.616,2.616,0,0,0,2.47,1.378,3.176,3.176,0,0,0,2.349-1.016,5.8,5.8,0,0,1-1.277,3.253h3.856a5.483,5.483,0,0,1-1.255-3.235,3.151,3.151,0,0,0,2.327,1,2.616,2.616,0,0,0,2.47-1.378A2.944,2.944,0,0,0,1213.229,1467.679Z"/><rect class="c" width="6" height="130" transform="translate(1202 1462.129)"/></g><path class="b" d="M1298.565,1526.588c.915,1.685,2.086,4.268,1,6.134-1.332,2.289-5.444,2.589-7.284.792,1.471-1.7.545-4.83-1.53-6.172a18.369,18.369,0,0,0,3.268-2.973c.637-.632,1.209-1.3,2.15-.91C1297.244,1523.9,1298.02,1525.583,1298.565,1526.588Z"/><path class="b" d="M1297.526,1532.88a3.535,3.535,0,0,1-1.641,1.618,3.188,3.188,0,0,1-1.074.208,6.893,6.893,0,0,1-1.829-.26,4.7,4.7,0,0,1-1.188-.437,3.614,3.614,0,0,1-1.584-2.066,7.848,7.848,0,0,1,.356-4.979c.684-1.909,1.888-5.036,4.589-3.644C1298.624,1525.1,1299.123,1530.052,1297.526,1532.88Z"/><rect class="f" width="10.869" height="15.617" transform="translate(1241.801 1525.811)"/><path class="f" d="M1260.106,1577v-23.209c0-7.993-6.178-14.532-13.729-14.532h0c-7.551,0-13.729,6.539-13.729,14.532V1577Z"/><path class="j" d="M1239,1540.62l-10,6.185,10.671,10.387,10.388-6.129Z"/><path class="k" d="M1239.67,1557.625a.652.652,0,0,1-.452-.167l-10.671-10.387a.367.367,0,0,1,.09-.6l10-6.185a.721.721,0,0,1,.422-.095.639.639,0,0,1,.386.16l11.059,10.443a.364.364,0,0,1,.122.322.422.422,0,0,1-.217.292l-10.388,6.129A.7.7,0,0,1,1239.67,1557.625Zm-9.876-10.752,9.976,9.71,9.478-5.592-10.334-9.759Z"/><path class="l" d="M1231.233,1553.348l-.005,0-.027,0,0,0Z"/><path class="m" d="M1236.886,1556.917l-.175-.357.165.359Z"/><path class="k" d="M1243.821,1551.318a.378.378,0,0,1,.433-.232c.2.029.331.18.291.337a.379.379,0,0,1-.433.232C1243.912,1551.626,1243.782,1551.476,1243.821,1551.318Z"/><path class="k" d="M1243.519,1551.668a.09.09,0,0,1,.1-.055c.047.007.077.043.068.08a.089.089,0,0,1-.1.054C1243.54,1551.74,1243.509,1551.7,1243.519,1551.668Z"/><path class="k" d="M1243.709,1550.908a.091.091,0,0,1,.1-.055c.047.007.078.043.068.08a.089.089,0,0,1-.1.054C1243.731,1550.98,1243.7,1550.945,1243.709,1550.908Z"/><path class="k" d="M1244.678,1551.078a.091.091,0,0,1,.1-.055c.047.007.078.043.068.08a.088.088,0,0,1-.1.054C1244.7,1551.15,1244.669,1551.115,1244.678,1551.078Z"/><path class="k" d="M1244.495,1551.809a.089.089,0,0,1,.1-.055c.047.007.077.042.068.079a.089.089,0,0,1-.1.055C1244.516,1551.881,1244.486,1551.846,1244.495,1551.809Z"/><path class="k" d="M1244.241,1551.141c.3-.273.125-.5.125-.5A.373.373,0,0,0,1244.241,1551.141Z"/><path class="k" d="M1244,1552.115c.3-.274.124-.5.124-.5A.373.373,0,0,0,1244,1552.115Z"/><path class="k" d="M1244.482,1551.429a.651.651,0,0,0,.634.088A.625.625,0,0,0,1244.482,1551.429Z"/><path class="k" d="M1243.241,1551.259a.651.651,0,0,0,.635.087A.628.628,0,0,0,1243.241,1551.259Z"/><ellipse class="k" cx="0.369" cy="0.289" rx="0.369" ry="0.289" transform="matrix(1, -0.027, 0.027, 1, 1239.15, 1548.498)"/><path class="k" d="M1238.863,1549.074a.087.087,0,0,1,.1-.054c.047.007.078.042.069.079a.091.091,0,0,1-.1.055C1238.884,1549.147,1238.853,1549.111,1238.863,1549.074Z"/><path class="k" d="M1239.053,1548.314a.089.089,0,0,1,.1-.054c.047.007.078.042.068.079a.088.088,0,0,1-.1.054C1239.075,1548.387,1239.044,1548.351,1239.053,1548.314Z"/><path class="k" d="M1240.022,1548.484a.089.089,0,0,1,.1-.054c.047.006.078.042.068.079a.089.089,0,0,1-.1.054A.07.07,0,0,1,1240.022,1548.484Z"/><path class="k" d="M1239.839,1549.215a.089.089,0,0,1,.1-.054.069.069,0,0,1,.068.079.089.089,0,0,1-.1.054A.069.069,0,0,1,1239.839,1549.215Z"/><path class="k" d="M1239.585,1548.548c.3-.274.124-.5.124-.5A.373.373,0,0,0,1239.585,1548.548Z"/><path class="k" d="M1239.34,1549.521c.305-.273.125-.5.125-.5A.374.374,0,0,0,1239.34,1549.521Z"/><path class="k" d="M1239.826,1548.836a.652.652,0,0,0,.634.087A.623.623,0,0,0,1239.826,1548.836Z"/><path class="k" d="M1238.585,1548.665a.653.653,0,0,0,.635.088A.627.627,0,0,0,1238.585,1548.665Z"/><ellipse class="k" cx="0.369" cy="0.289" rx="0.369" ry="0.289" transform="matrix(1, -0.027, 0.027, 1, 1231.339, 1546.635)"/><path class="k" d="M1231.051,1547.212a.089.089,0,0,1,.1-.055c.047.007.077.042.068.079a.09.09,0,0,1-.1.055C1231.072,1547.284,1231.042,1547.248,1231.051,1547.212Z"/><path class="k" d="M1231.242,1546.451a.089.089,0,0,1,.1-.054c.046.007.077.042.068.079a.091.091,0,0,1-.1.055C1231.263,1546.524,1231.232,1546.488,1231.242,1546.451Z"/><path class="k" d="M1232.211,1546.622a.088.088,0,0,1,.1-.055c.047.007.078.042.069.079a.09.09,0,0,1-.1.055C1232.232,1546.694,1232.2,1546.658,1232.211,1546.622Z"/><path class="k" d="M1232.027,1547.352a.089.089,0,0,1,.1-.054c.047.007.078.042.068.079a.089.089,0,0,1-.1.055C1232.049,1547.425,1232.018,1547.389,1232.027,1547.352Z"/><path class="k" d="M1231.773,1546.685c.3-.274.125-.5.125-.5A.373.373,0,0,0,1231.773,1546.685Z"/><path class="k" d="M1231.529,1547.658c.3-.273.125-.5.125-.5A.373.373,0,0,0,1231.529,1547.658Z"/><path class="k" d="M1232.014,1546.973a.651.651,0,0,0,.635.087A.628.628,0,0,0,1232.014,1546.973Z"/><path class="k" d="M1230.774,1546.8a.652.652,0,0,0,.634.087A.624.624,0,0,0,1230.774,1546.8Z"/><path class="k" d="M1244.255,1548.726a.371.371,0,0,1,.426-.228c.2.028.324.176.286.331a.374.374,0,0,1-.427.228C1244.344,1549.029,1244.216,1548.881,1244.255,1548.726Z"/><path class="k" d="M1243.957,1549.07a.088.088,0,0,1,.1-.054c.046.007.076.042.067.078a.089.089,0,0,1-.1.054C1243.978,1549.141,1243.948,1549.106,1243.957,1549.07Z"/><path class="k" d="M1244.145,1548.322a.087.087,0,0,1,.1-.053c.046.006.076.041.067.078a.087.087,0,0,1-.1.053C1244.166,1548.394,1244.136,1548.359,1244.145,1548.322Z"/><path class="k" d="M1245.1,1548.49a.087.087,0,0,1,.1-.054c.046.007.076.041.067.078a.087.087,0,0,1-.1.053C1245.119,1548.561,1245.089,1548.526,1245.1,1548.49Z"/><path class="k" d="M1244.917,1549.208a.088.088,0,0,1,.1-.053c.046.006.076.041.067.077a.087.087,0,0,1-.1.054C1244.938,1549.279,1244.908,1549.245,1244.917,1549.208Z"/><path class="k" d="M1244.667,1548.552c.3-.269.123-.49.123-.49A.368.368,0,0,0,1244.667,1548.552Z"/><path class="k" d="M1244.427,1549.509c.3-.269.123-.49.123-.49A.368.368,0,0,0,1244.427,1549.509Z"/><path class="k" d="M1244.905,1548.835a.639.639,0,0,0,.623.086A.614.614,0,0,0,1244.905,1548.835Z"/><path class="k" d="M1243.685,1548.668a.642.642,0,0,0,.624.085A.615.615,0,0,0,1243.685,1548.668Z"/><ellipse class="k" cx="0.363" cy="0.284" rx="0.363" ry="0.284" transform="translate(1237.444 1546.004) rotate(-1.539)"/><path class="k" d="M1237.161,1546.571a.089.089,0,0,1,.1-.054c.046.007.076.042.067.078a.088.088,0,0,1-.1.054C1237.182,1546.642,1237.152,1546.607,1237.161,1546.571Z"/><path class="k" d="M1237.349,1545.824a.087.087,0,0,1,.1-.054c.046.007.076.042.067.078a.089.089,0,0,1-.1.054C1237.37,1545.9,1237.34,1545.86,1237.349,1545.824Z"/><ellipse class="k" cx="0.085" cy="0.067" rx="0.085" ry="0.067" transform="translate(1238.298 1545.938) rotate(-1.515)"/><ellipse class="k" cx="0.085" cy="0.067" rx="0.085" ry="0.067" transform="translate(1238.118 1546.657) rotate(-1.515)"/><path class="k" d="M1237.871,1546.053c.3-.269.123-.49.123-.49A.368.368,0,0,0,1237.871,1546.053Z"/><path class="k" d="M1237.631,1547.01c.3-.269.123-.489.123-.489A.367.367,0,0,0,1237.631,1547.01Z"/><path class="k" d="M1238.108,1546.336a.641.641,0,0,0,.624.086A.615.615,0,0,0,1238.108,1546.336Z"/><path class="k" d="M1236.889,1546.169a.641.641,0,0,0,.624.086A.616.616,0,0,0,1236.889,1546.169Z"/><path class="k" d="M1242.761,1546.2a.374.374,0,0,1,.426-.229c.2.029.325.177.286.332a.374.374,0,0,1-.426.228C1242.85,1546.5,1242.722,1546.354,1242.761,1546.2Z"/><path class="k" d="M1242.464,1546.544a.087.087,0,0,1,.1-.054c.046.007.076.041.067.078a.087.087,0,0,1-.1.053C1242.485,1546.615,1242.455,1546.58,1242.464,1546.544Z"/><path class="k" d="M1242.651,1545.8a.088.088,0,0,1,.1-.053c.046.006.076.041.067.077a.087.087,0,0,1-.1.054C1242.672,1545.867,1242.642,1545.833,1242.651,1545.8Z"/><path class="k" d="M1243.6,1545.963a.087.087,0,0,1,.1-.053c.047.006.077.041.067.077a.086.086,0,0,1-.1.054C1243.625,1546.034,1243.595,1546,1243.6,1545.963Z"/><path class="k" d="M1243.424,1546.682a.089.089,0,0,1,.1-.054c.046.007.076.042.067.078a.088.088,0,0,1-.1.054C1243.445,1546.753,1243.415,1546.718,1243.424,1546.682Z"/><path class="k" d="M1243.174,1546.026c.3-.269.123-.49.123-.49A.368.368,0,0,0,1243.174,1546.026Z"/><path class="k" d="M1242.934,1546.983c.3-.269.123-.49.123-.49A.368.368,0,0,0,1242.934,1546.983Z"/><path class="k" d="M1243.411,1546.309a.641.641,0,0,0,.624.086A.617.617,0,0,0,1243.411,1546.309Z"/><path class="k" d="M1242.191,1546.141a.64.64,0,0,0,.624.086A.616.616,0,0,0,1242.191,1546.141Z"/><path class="k" d="M1239.784,1543.635a.372.372,0,0,1,.426-.229c.2.029.325.177.286.331a.374.374,0,0,1-.426.229C1239.873,1543.937,1239.745,1543.789,1239.784,1543.635Z"/><path class="k" d="M1239.487,1543.978a.087.087,0,0,1,.1-.053c.046.006.076.041.067.077a.087.087,0,0,1-.1.054C1239.508,1544.05,1239.477,1544.015,1239.487,1543.978Z"/><path class="k" d="M1239.674,1543.231a.089.089,0,0,1,.1-.054c.046.007.076.042.067.078a.089.089,0,0,1-.1.054C1239.695,1543.3,1239.665,1543.267,1239.674,1543.231Z"/><path class="k" d="M1240.627,1543.4a.087.087,0,0,1,.1-.053c.046.006.076.041.067.077a.087.087,0,0,1-.1.054C1240.648,1543.469,1240.618,1543.435,1240.627,1543.4Z"/><path class="k" d="M1240.447,1544.117a.089.089,0,0,1,.1-.054c.046.007.076.042.067.078a.089.089,0,0,1-.1.054C1240.468,1544.188,1240.438,1544.153,1240.447,1544.117Z"/><path class="k" d="M1240.2,1543.46c.3-.269.123-.489.123-.489A.367.367,0,0,0,1240.2,1543.46Z"/><path class="k" d="M1239.956,1544.418c.3-.269.123-.49.123-.49A.368.368,0,0,0,1239.956,1544.418Z"/><path class="k" d="M1240.434,1543.744a.639.639,0,0,0,.624.085A.615.615,0,0,0,1240.434,1543.744Z"/><path class="k" d="M1239.214,1543.576a.64.64,0,0,0,.624.086A.616.616,0,0,0,1239.214,1543.576Z"/><path class="k" d="M1235.68,1543.958a.372.372,0,0,1,.426-.229c.2.029.324.177.286.332a.375.375,0,0,1-.427.228C1235.769,1544.261,1235.641,1544.112,1235.68,1543.958Z"/><path class="k" d="M1235.382,1544.3a.087.087,0,0,1,.1-.054c.046.007.076.041.067.078a.088.088,0,0,1-.1.053C1235.4,1544.373,1235.373,1544.338,1235.382,1544.3Z"/><path class="k" d="M1235.57,1543.554a.087.087,0,0,1,.1-.053c.046.006.076.041.067.077a.087.087,0,0,1-.1.054C1235.591,1543.625,1235.561,1543.591,1235.57,1543.554Z"/><path class="k" d="M1236.523,1543.721a.087.087,0,0,1,.1-.053c.046.006.076.041.067.078a.087.087,0,0,1-.1.053C1236.544,1543.793,1236.514,1543.758,1236.523,1543.721Z"/><path class="k" d="M1236.342,1544.44a.09.09,0,0,1,.1-.054c.046.007.076.042.067.078a.087.087,0,0,1-.1.054C1236.363,1544.511,1236.333,1544.476,1236.342,1544.44Z"/><path class="k" d="M1236.092,1543.784c.3-.269.123-.49.123-.49A.368.368,0,0,0,1236.092,1543.784Z"/><path class="k" d="M1235.852,1544.741c.3-.269.123-.49.123-.49A.368.368,0,0,0,1235.852,1544.741Z"/><path class="k" d="M1236.329,1544.067a.64.64,0,0,0,.624.086A.615.615,0,0,0,1236.329,1544.067Z"/><path class="k" d="M1235.11,1543.9a.641.641,0,0,0,.624.086A.616.616,0,0,0,1235.11,1543.9Z"/><path class="k" d="M1234.646,1548.08a.372.372,0,0,1,.426-.228c.2.028.324.176.286.331a.374.374,0,0,1-.427.228C1234.735,1548.383,1234.607,1548.235,1234.646,1548.08Z"/><path class="k" d="M1234.348,1548.424a.088.088,0,0,1,.1-.054c.046.007.076.042.067.078a.089.089,0,0,1-.1.054C1234.369,1548.495,1234.339,1548.46,1234.348,1548.424Z"/><path class="k" d="M1234.536,1547.676a.087.087,0,0,1,.1-.053c.046.006.076.041.067.078a.087.087,0,0,1-.1.053C1234.557,1547.748,1234.527,1547.713,1234.536,1547.676Z"/><path class="k" d="M1235.489,1547.844a.087.087,0,0,1,.1-.054c.046.007.076.041.067.078a.087.087,0,0,1-.1.053C1235.51,1547.915,1235.48,1547.88,1235.489,1547.844Z"/><path class="k" d="M1235.308,1548.562a.088.088,0,0,1,.1-.053c.046.006.076.041.067.077a.087.087,0,0,1-.1.054C1235.329,1548.633,1235.3,1548.6,1235.308,1548.562Z"/><path class="k" d="M1235.058,1547.906c.3-.269.123-.49.123-.49A.368.368,0,0,0,1235.058,1547.906Z"/><path class="k" d="M1234.818,1548.863c.3-.269.123-.489.123-.489A.367.367,0,0,0,1234.818,1548.863Z"/><path class="k" d="M1235.3,1548.189a.64.64,0,0,0,.624.086A.615.615,0,0,0,1235.3,1548.189Z"/><path class="k" d="M1234.076,1548.022a.642.642,0,0,0,.624.085A.615.615,0,0,0,1234.076,1548.022Z"/><path class="k" d="M1234.055,1550.436a.373.373,0,0,1,.426-.229c.2.028.325.177.286.331a.373.373,0,0,1-.426.229C1234.144,1550.738,1234.016,1550.59,1234.055,1550.436Z"/><path class="k" d="M1233.758,1550.779a.087.087,0,0,1,.1-.053c.046.006.076.041.067.077a.087.087,0,0,1-.1.054C1233.779,1550.851,1233.748,1550.816,1233.758,1550.779Z"/><path class="k" d="M1233.945,1550.032a.089.089,0,0,1,.1-.054c.046.007.076.042.067.078a.089.089,0,0,1-.1.054C1233.966,1550.1,1233.936,1550.068,1233.945,1550.032Z"/><path class="k" d="M1234.9,1550.2a.089.089,0,0,1,.1-.054c.046.007.076.042.067.078a.087.087,0,0,1-.1.054C1234.919,1550.27,1234.889,1550.235,1234.9,1550.2Z"/><path class="k" d="M1234.718,1550.918a.088.088,0,0,1,.1-.054c.046.007.076.042.067.078a.089.089,0,0,1-.1.054C1234.739,1550.989,1234.709,1550.954,1234.718,1550.918Z"/><path class="k" d="M1234.467,1550.261c.3-.269.123-.489.123-.489A.367.367,0,0,0,1234.467,1550.261Z"/><path class="k" d="M1234.227,1551.219c.3-.269.123-.49.123-.49A.368.368,0,0,0,1234.227,1551.219Z"/><path class="k" d="M1234.7,1550.545a.639.639,0,0,0,.624.085A.615.615,0,0,0,1234.7,1550.545Z"/><path class="k" d="M1233.485,1550.377a.641.641,0,0,0,.624.086A.617.617,0,0,0,1233.485,1550.377Z"/><path class="k" d="M1236.4,1552.3a.374.374,0,0,1,.426-.229c.2.029.325.177.286.332a.373.373,0,0,1-.426.228C1236.493,1552.6,1236.365,1552.454,1236.4,1552.3Z"/><path class="k" d="M1236.106,1552.644a.087.087,0,0,1,.1-.054c.046.007.076.041.067.078a.087.087,0,0,1-.1.053C1236.127,1552.715,1236.1,1552.68,1236.106,1552.644Z"/><path class="k" d="M1236.294,1551.9a.087.087,0,0,1,.1-.053c.046.006.076.041.067.077a.087.087,0,0,1-.1.054C1236.315,1551.967,1236.284,1551.933,1236.294,1551.9Z"/><path class="k" d="M1237.246,1552.063a.089.089,0,0,1,.1-.053c.046.006.076.041.067.078a.087.087,0,0,1-.1.053C1237.267,1552.135,1237.237,1552.1,1237.246,1552.063Z"/><path class="k" d="M1237.066,1552.782a.089.089,0,0,1,.1-.054c.046.007.077.042.067.078a.087.087,0,0,1-.1.054C1237.087,1552.853,1237.057,1552.818,1237.066,1552.782Z"/><path class="k" d="M1236.816,1552.126c.3-.269.123-.49.123-.49A.368.368,0,0,0,1236.816,1552.126Z"/><path class="k" d="M1236.576,1553.083c.3-.269.123-.49.123-.49A.368.368,0,0,0,1236.576,1553.083Z"/><path class="k" d="M1237.053,1552.409a.641.641,0,0,0,.624.086A.616.616,0,0,0,1237.053,1552.409Z"/><path class="k" d="M1235.833,1552.241a.641.641,0,0,0,.624.086A.616.616,0,0,0,1235.833,1552.241Z"/><path class="k" d="M1239.879,1551.276a.372.372,0,0,1,.426-.229c.2.029.325.177.286.331a.374.374,0,0,1-.427.229C1239.968,1551.579,1239.84,1551.43,1239.879,1551.276Z"/><path class="k" d="M1239.581,1551.619a.088.088,0,0,1,.1-.053c.046.006.076.041.067.078a.087.087,0,0,1-.1.053C1239.6,1551.691,1239.572,1551.656,1239.581,1551.619Z"/><path class="k" d="M1239.769,1550.872a.089.089,0,0,1,.1-.054c.046.007.076.042.067.078a.087.087,0,0,1-.1.054C1239.79,1550.943,1239.76,1550.908,1239.769,1550.872Z"/><path class="k" d="M1240.722,1551.039a.087.087,0,0,1,.1-.053c.046.006.076.041.067.077a.087.087,0,0,1-.1.054C1240.743,1551.11,1240.713,1551.076,1240.722,1551.039Z"/><path class="k" d="M1240.542,1551.758a.088.088,0,0,1,.1-.054c.046.007.076.042.067.078a.089.089,0,0,1-.1.054C1240.562,1551.829,1240.532,1551.794,1240.542,1551.758Z"/><path class="k" d="M1240.291,1551.1c.3-.269.123-.489.123-.489A.366.366,0,0,0,1240.291,1551.1Z"/><path class="k" d="M1240.051,1552.059c.3-.269.123-.49.123-.49A.368.368,0,0,0,1240.051,1552.059Z"/><path class="k" d="M1240.529,1551.385a.639.639,0,0,0,.623.086A.614.614,0,0,0,1240.529,1551.385Z"/><path class="k" d="M1239.309,1551.217a.641.641,0,0,0,.624.086A.616.616,0,0,0,1239.309,1551.217Z"/><path class="k" d="M1239.066,1554.515a.374.374,0,0,1,.426-.229c.2.028.325.177.286.331a.372.372,0,0,1-.426.229C1239.155,1554.817,1239.027,1554.669,1239.066,1554.515Z"/><path class="k" d="M1238.769,1554.858a.087.087,0,0,1,.1-.053c.046.006.076.041.067.077a.087.087,0,0,1-.1.054C1238.79,1554.93,1238.76,1554.9,1238.769,1554.858Z"/><path class="k" d="M1238.957,1554.111a.088.088,0,0,1,.1-.054c.046.007.076.042.067.078a.089.089,0,0,1-.1.054C1238.978,1554.182,1238.947,1554.147,1238.957,1554.111Z"/><path class="k" d="M1239.909,1554.278a.089.089,0,0,1,.1-.054c.047.007.077.042.068.078a.087.087,0,0,1-.1.054C1239.93,1554.349,1239.9,1554.314,1239.909,1554.278Z"/><path class="k" d="M1239.729,1555a.088.088,0,0,1,.1-.054c.046.007.076.042.067.078a.089.089,0,0,1-.1.054C1239.75,1555.068,1239.72,1555.033,1239.729,1555Z"/><path class="k" d="M1239.479,1554.34c.3-.269.123-.489.123-.489A.367.367,0,0,0,1239.479,1554.34Z"/><path class="k" d="M1239.239,1555.3c.3-.269.123-.49.123-.49A.368.368,0,0,0,1239.239,1555.3Z"/><path class="k" d="M1239.716,1554.624a.639.639,0,0,0,.624.085A.615.615,0,0,0,1239.716,1554.624Z"/><path class="k" d="M1238.5,1554.456a.64.64,0,0,0,.624.086A.616.616,0,0,0,1238.5,1554.456Z"/><path class="k" d="M1240.485,1557.337l15.045-17.644,16.97,17.94-16.4,17.632Z"/><path class="j" d="M1256.505,1556.308q-.654-.66-1.3-1.319a.217.217,0,0,1-.041-.068,3.934,3.934,0,0,1,.655-4.379,4.1,4.1,0,0,1,2.491-1.349,4.906,4.906,0,0,1,2.518.219,2.538,2.538,0,0,1,1.654,1.578,3.387,3.387,0,0,1,.065,1.787,6.279,6.279,0,0,1-.628,1.737.211.211,0,0,1-.14.087,14.746,14.746,0,0,0-3.932,1.1C1257.4,1555.893,1256.959,1556.1,1256.505,1556.308Z"/><path class="j" d="M1255.768,1556.722c-.268.168-.529.328-.784.494a11.378,11.378,0,0,0-3.208,2.944.131.131,0,0,1-.086.051,10.5,10.5,0,0,1-3.232-.175,4.331,4.331,0,0,1-1.76-.778,2.437,2.437,0,0,1-.764-.985,2.282,2.282,0,0,1-.126-1.71,2.628,2.628,0,0,1,1.533-1.424,8.319,8.319,0,0,1,4.413-.465,10.329,10.329,0,0,1,2.593.684.587.587,0,0,1,.191.124c.384.382.762.767,1.143,1.151Z"/><path class="j" d="M1255.5,1563.124a11.617,11.617,0,0,1,3.283-2.82,16.069,16.069,0,0,1,5.378-2.117c-.269.733-2.05,2.317-3.6,3.188A14.168,14.168,0,0,1,1255.5,1563.124Z"/><path class="j" d="M1264.1,1557.412a16.445,16.445,0,0,0-9.547,5.426l-.483-.488c-.221-.223-.22-.223-.058-.455a9.553,9.553,0,0,1,2.084-2.089,15.742,15.742,0,0,1,2.445-1.527,15.444,15.444,0,0,1,4.514-1.529.513.513,0,0,1,.568.172A6.706,6.706,0,0,0,1264.1,1557.412Z"/><path class="j" d="M1253.179,1561.448c-.214-.216-.442-.443-.663-.675-.021-.023,0-.08.019-.113a7.28,7.28,0,0,1,1.139-1.355,14.957,14.957,0,0,1,3.638-2.491,16.385,16.385,0,0,1,2.839-1.114,11.617,11.617,0,0,1,1.759-.367.255.255,0,0,1,.166.038c.223.214.435.434.65.651A16.388,16.388,0,0,0,1253.179,1561.448Z"/><path class="j" d="M1254.013,1554.418l-1.692-.392a.3.3,0,0,1-.077-.026,7.639,7.639,0,0,1-1.609-1.071,1.536,1.536,0,0,1-.483-1.579c.1-.452.536-.691,1.141-.635a2.612,2.612,0,0,1,1.992.975c.193.27.36.551.533.829a.277.277,0,0,1,.043.165,4.785,4.785,0,0,0,.152,1.719C1254.016,1554.413,1254.013,1554.423,1254.013,1554.418Z"/><path class="j" d="M1250.993,1549.2l-2.721,1.547-.328-.331,2.72-1.546Z"/><path class="j" d="M1252.417,1552.361l-.544.309-3.933-3.975.544-.309Z"/><path class="k" d="M1268.029,1554.037,1227.5,1577h39.47Z"/><path class="k" d="M1267.5,1554.243a1.512,1.512,0,0,1,.624,1.171,2.189,2.189,0,0,1-4.216,0,1.446,1.446,0,0,1,.621-1.172Z"/><rect class="k" width="2.869" height="6.227" transform="translate(1264.574 1548.017)"/><path class="f" d="M1264.571,1549.271v-.244l2.869,0v.244Z"/><path class="f" d="M1264.573,1550.509v-.244l2.869,0v.244Z"/><path class="f" d="M1264.575,1551.746v-.244l2.869,0v.244Z"/><rect class="f" width="2.869" height="0.244" transform="translate(1264.576 1552.739)"/><path class="k" d="M1266.23,1548.427h1.741l-.113-16.427-1.743-1.134Z"/><path class="k" d="M1265.687,1530.865l-1.738,1.137.113,16.427h1.74Z"/><rect class="f" width="6.864" height="0.976" transform="translate(1262.394 1547.572)"/><path class="k" d="M1260.3,1520.631a.633.633,0,0,0-.732.261l-1.308,2.753a1.3,1.3,0,0,0-.537.011l-2.193.525v-.006l2.19-.524-.266-3.291-1.383,1.181-2.576-2.127c-.011,0-.022,0-.034,0l-1.5,1.856-3.17-2.443-.947,2.132-3.861-2.784-1.011,3.919-2.439-1.292-.946,3.427-2.4-.9a.261.261,0,0,1-.056.018l-.29,3.039-2.237-.555,2.236,2.819,3.824-.914v.006l-3.822.914c-.442.106-.715.4-.612.645a.527.527,0,0,0,.373.267l-4.128,1.041c-.3.075-.462.321-.363.548a.584.584,0,0,0,.543.3.746.746,0,0,0,.181-.022l7.828-1.974v5.9h-4l2.089,6.508h.746v-.849h.647v.849h.484v-.849h.647v.849h.485v-.849h.647v.849h.485v-.849h.646v.849h.485v-.849h.647v.849h.485v-.849h.647v.849h.485v-.849h.646v.849h.485v-.849h.647v.849h.485v-.849h.647v.849h.484v-.849h.647v.849h.485v-.849h.647v.849h4.079V1525.7l3.109-.784a.528.528,0,0,0,.357-.265l1.648-3.47C1260.751,1520.96,1260.6,1520.712,1260.3,1520.631Zm-8.2,14.723h-9.724v-6.332l9.724-2.452Zm0-10.352-9.724,2.326v-.007l9.724-2.326Z"/><path class="k" d="M1240.448,1520.824c.374-.089.58-.391.461-.677a.771.771,0,0,0-.89-.354c-.374.09-.58.392-.461.677A.769.769,0,0,0,1240.448,1520.824Z"/><path class="k" d="M1244.489,1517.42a.853.853,0,0,0-.986-.392c-.416.1-.641.436-.51.75a.855.855,0,0,0,.987.4C1244.4,1518.074,1244.621,1517.737,1244.489,1517.42Z"/><path class="k" d="M1237.18,1523.325a.447.447,0,0,0,.314-.577.692.692,0,0,0-.8-.319c-.333.08-.522.352-.415.61a.7.7,0,0,0,.8.319.222.222,0,0,0,.045-.015l0-.036Z"/><path class="k" d="M1234.238,1525.965c.3-.072.468-.317.372-.547a.623.623,0,0,0-.72-.29c-.3.072-.469.317-.371.551A.624.624,0,0,0,1234.238,1525.965Z"/><path class="k" d="M1249.282,1518.145a.769.769,0,0,0-.89-.354c-.374.089-.58.391-.461.677a.757.757,0,0,0,.857.358.118.118,0,0,0,.033,0C1249.195,1518.732,1249.4,1518.43,1249.282,1518.145Z"/><path class="k" d="M1257.875,1520.312c.3-.072.468-.317.372-.547a.623.623,0,0,0-.72-.29c-.3.072-.469.317-.371.551A.623.623,0,0,0,1257.875,1520.312Z"/><path class="k" d="M1253.495,1519.414a.682.682,0,0,0,.163-.022c.338-.08.523-.351.415-.609a.691.691,0,0,0-.8-.319c-.333.08-.517.35-.41.608a.636.636,0,0,0,.6.341l.016-.017Z"/><ellipse class="j" cx="1.621" cy="2.297" rx="1.621" ry="2.297" transform="translate(1243.146 1523.165) rotate(-35.901)"/><path class="j" d="M1241.229,1525.171l.248.381.554.061-.4.3.095.419-.5-.2-.5.2.095-.419-.4-.3.554-.061Z"/><path class="j" d="M1251.525,1522.568l.248.381.554.061-.4.3.095.419-.5-.2-.5.2.095-.419-.4-.3.554-.061Z"/><path class="k" d="M1231.136,1549.3l-.363,26.4h5.307l-1.546-23.16Z"/><path class="k" d="M1236.653,1554.876l1.716,18.22,2.288-.434-1.361-15.647-2.071-2.139Z"/><path class="k" d="M1241.8,1557.912l.095,1.044,1.049,11.537h2.288l.3-7.7"/><path class="j" d="M1232.843,1571.711c1.111,0,1.113-1.31,0-1.31s-1.113,1.31,0,1.31Z"/><path class="j" d="M1233.242,1564.958l-.062-.01.38.168-.038-.03.222.289-.012-.049c-.09-.347-.637-.546-1.062-.457a.669.669,0,0,0-.6.806.855.855,0,0,0,.717.546.946.946,0,0,0,1.062-.458.662.662,0,0,0-.6-.8Z"/><path class="j" d="M1233.238,1561.222c1.112,0,1.113-1.31,0-1.31s-1.113,1.31,0,1.31Z"/><path class="j" d="M1233.125,1556.155c1.111,0,1.113-1.31,0-1.31s-1.113,1.31,0,1.31Z"/><path class="j" d="M1244.075,1566.482l-.029,0,.182.072-.019-.014.112.131-.007-.023a.446.446,0,0,0-.508-.193.3.3,0,0,0-.254.385.413.413,0,0,0,.349.24.428.428,0,0,0,.479-.231.317.317,0,0,0-.305-.363Z"/><path class="j" d="M1243.956,1564.748c.516-.02.476-.628-.041-.608s-.475.628.041.608Z"/><path class="j" d="M1243.745,1562.4c.516-.02.476-.628-.041-.608s-.476.628.041.608Z"/><path class="f" d="M1238.293,1558.937c.8-.043.719-.99-.086-.948s-.719.99.086.948Z"/><path class="f" d="M1238.617,1562.474c.8-.042.719-.99-.087-.947s-.719.99.087.947Z"/><path class="f" d="M1239.375,1565.914a.566.566,0,0,0,.177-.284.508.508,0,0,0-.49-.56c-.316-.048-.691.116-.738.372l-.007.036.142-.217-.029.03a.41.41,0,0,0,.062.67.778.778,0,0,0,.883-.047Z"/><path class="f" d="M1238.763,1569.585l0,.032c.055.609,1.305.545,1.249-.066l0-.032c-.055-.61-1.3-.545-1.249.066Z"/><text class="n" transform="translate(1250 1463.522)"><tspan x="-3.523" y="0">K</tspan></text><text class="o" transform="translate(1282 1514.109)"><tspan x="-3.794" y="0">K</tspan></text><path class="k" d="M1201.435,1526.588c-.915,1.685-2.086,4.268-1,6.134,1.332,2.289,5.444,2.589,7.284.792-1.471-1.7-.545-4.83,1.53-6.172a18.369,18.369,0,0,1-3.268-2.973c-.637-.632-1.209-1.3-2.15-.91C1202.756,1523.9,1201.98,1525.583,1201.435,1526.588Z"/><path class="k" d="M1206.092,1531.2a2.285,2.285,0,0,0,.181,1.37,1.861,1.861,0,0,0,.4.49,3.694,3.694,0,0,0,.894.541,2.435,2.435,0,0,0,.67.224,1.89,1.89,0,0,0,1.392-.411,4.76,4.76,0,0,0,1.514-2.51c.339-1.161.858-3.093-.8-3.41C1208.22,1527.088,1206.338,1529.273,1206.092,1531.2Z"/></g></svg>