<svg xmlns="http://www.w3.org/2000/svg" xmlns:xlink="http://www.w3.org/1999/xlink" viewBox="0 0 100 150"><defs><style>.a{fill:none;}.b,.e,.j{fill:#27123e;}.c,.f,.k,.n{fill:#15b0bf;}.d{fill:#fff;opacity:0.1;}.e,.h{opacity:0.2;}.f{opacity:0.3;}.g,.h{fill:#3b2860;}.h{stroke-linecap:round;stroke-miterlimit:10;}.i{clip-path:url(#a);}.j{font-size:13px;}.j,.k{font-family:MyriadPro-Regular, Myriad Pro;}.k{font-size:14px;}.l{fill:#3c2a54;}.m,.n{stroke:none;}</style><clipPath id="a"><path class="a" d="M12.666,1017.133c-1.37-1.495-2.962-2.952-3.629-3.718-.5-.574-.854-1.01-1-1.192v-.094l-.037.047-.037-.047v.094c-.146.182-.5.618-1,1.192-.667.766-2.259,2.223-3.629,3.718a4.541,4.541,0,0,0-1.222,4.227,3.038,3.038,0,0,0,3.592,2.151,2.241,2.241,0,0,0,1.3-.623v.588a4.54,4.54,0,0,1-1.025,1.932H7v115.721a1,1,0,0,0,2,0V1025.408h.925A4.423,4.423,0,0,1,9,1023.491v-.6a2.229,2.229,0,0,0,1.3.623,3.038,3.038,0,0,0,3.592-2.151A4.541,4.541,0,0,0,12.666,1017.133Z"/></clipPath></defs><g transform="translate(0 -1000)"><path class="b" d="M33.844,1126.552c6.382,3.924,2.708,10.189-2.806,15.637-4,3.956-10.69,6.594-12.642,5.062-2.566-2.013-1.854-8.549.824-15.12C22.145,1124.952,27.494,1122.648,33.844,1126.552Z"/><path class="b" d="M24,1145.422c0,2.728-2.91,3.64-6.5,3.64s-6.5.648-6.5-2.08,5.25-7.8,8.84-7.8S24,1142.694,24,1145.422Z"/><path class="b" d="M66.156,1126.552c-6.382,3.924-2.708,10.189,2.806,15.637,4,3.956,10.69,6.594,12.642,5.062,2.566-2.013,1.854-8.549-.824-15.12C77.855,1124.952,72.506,1122.648,66.156,1126.552Z"/><path class="b" d="M76,1145.422c0,2.728,2.91,3.64,6.5,3.64s6.5.648,6.5-2.08-5.25-7.8-8.84-7.8S76,1142.694,76,1145.422Z"/><path class="b" d="M95,1045H5v57c0,23.524,38.313,42.183,45,45.259,6.688-3.076,45-21.735,45-45.259Z"/><path class="b" d="M92.5,1102c0,18.925-29.013,36.284-42.5,42.524C36.5,1138.3,7.5,1120.963,7.5,1102v-57h-5v57c0,27.614,47.5,48,47.5,48h0s47.5-20.386,47.5-48v-57h-5Z"/><path class="c" d="M67.623,1091.245c-5.175-5.643-11.189-11.149-13.707-14.039-1.888-2.168-3.225-3.816-3.776-4.5,0,0-.05-.289-.14-.176-.09-.113-.14.176-.14.176-.551.688-1.888,2.336-3.776,4.5-2.518,2.89-8.532,8.4-13.707,14.039s-5.595,11.287-4.616,15.967,5.875,9.084,13.567,8.121a8.574,8.574,0,0,0,5.468-2.905,17.883,17.883,0,0,1-4.444,10.072H57.271c-2.723-3.042-3.687-7.353-4.034-10.034a8.57,8.57,0,0,0,5.435,2.867c7.692.963,12.588-3.441,13.567-8.121S72.8,1096.889,67.623,1091.245Z"/><path class="d" d="M7.5,1045h-5v57c0,27.614,47.5,48,47.5,48V1045Z"/><path class="b" d="M21.7,1039.066c-2.507-2.929-2.366-7.518-.557-9.066"/><path class="b" d="M78.1,1039.066c2.507-2.929,2.366-7.518.557-9.066"/><path class="e" d="M78.814,1030.608C80.009,1044.8,65.9,1060,49.965,1060s-28.85-12.162-28.85-29.392c0-.2,28.65-7.094,28.85-7.094C51.159,1023.514,78.8,1030.406,78.814,1030.608Z"/><path class="b" d="M73.332,1018.085c-6.852-5.4-14.814-10.67-18.147-13.437-2.5-2.075-4.271-3.652-5-4.311V1000s-.065.061-.185.169c-.12-.108-.185-.169-.185-.169v.337c-.729.659-2.5,2.236-5,4.311-3.333,2.767-11.295,8.036-18.146,13.437s-7.407,10.8-6.111,15.282,7.777,19.7,17.961,18.773a13.06,13.06,0,0,0,7.24-2.78c-1.146,6.34-5.884,4.64-5.884,4.64H59.627c-3.606-2.912-4.883-2.038-5.342-4.6a13.082,13.082,0,0,0,7.2,2.744c10.184.923,16.665-14.293,17.961-18.773S80.183,1023.487,73.332,1018.085Z"/><path class="f" d="M49.992,1002.858l.012.01.008-.007c.951.837,2.272,1.979,3.9,3.326s4.213,3.2,7.225,5.357c3.443,2.466,7.345,5.261,10.962,8.112,5.129,4.044,6.854,8.225,5.427,13.155-1.061,3.669-6.745,17.37-15.155,17.37-.233,0-.47-.011-.705-.033a11.184,11.184,0,0,1-6.124-2.311l-4.162-3.341.941,5.253a5.18,5.18,0,0,0,.9,2.251H47.085a11.635,11.635,0,0,0,.642-2.285l.958-5.3-4.186,3.4a11.18,11.18,0,0,1-6.16,2.342c-.235.021-.472.032-.705.032-8.41,0-14.094-13.7-15.155-17.37-1.427-4.93.3-9.111,5.428-13.155,3.617-2.852,7.52-5.647,10.963-8.113,3.012-2.157,5.612-4.019,7.223-5.356s2.948-2.492,3.9-3.329m.193-2.858s-.065.061-.185.169c-.12-.108-.185-.169-.185-.169v.337c-.729.659-2.5,2.236-5,4.311-3.333,2.767-11.295,8.036-18.146,13.437s-7.407,10.8-6.111,15.282c1.258,4.348,7.4,18.814,17.076,18.814q.438,0,.885-.041a13.06,13.06,0,0,0,7.24-2.78c-.546,3.02-1.907,4.216-3.182,4.64h17.05c-3.606-2.912-4.883-2.038-5.342-4.6a13.082,13.082,0,0,0,7.2,2.744c.3.027.594.041.885.041,9.675,0,15.818-14.465,17.076-18.814,1.3-4.479.741-9.88-6.11-15.282s-14.814-10.67-18.147-13.437c-2.5-2.075-4.271-3.652-5-4.311V1000Zm-7.608,54h-2.7a4.49,4.49,0,0,0,1.378.207,4.212,4.212,0,0,0,1.324-.207Z"/><path class="g" d="M50,1041.554c-10.949,0-20.971-2.6-28.732-6.921C21.268,1052.7,50,1059.8,50,1059.8s28.732-8.108,28.732-25.164C70.971,1038.949,60.949,1041.554,50,1041.554Z"/><path class="c" d="M50,1034.459,42.029,1002.8a2.4,2.4,0,0,1,2.52-2.8h10.9a2.4,2.4,0,0,1,2.52,2.8Z"/><path class="b" d="M72.166,1042.139q.144-1.07.286-2.139a2.171,2.171,0,0,1,.413-1.164c.5-.622,1.477-1.01,1.881-.4.371.565.168,1.5.128,2.139a10.977,10.977,0,0,1-1.278,4.372,1.466,1.466,0,0,1-.419.539,1.443,1.443,0,0,1-.885.276c-.507-.033-.557-.4-.517-.7Q71.97,1043.6,72.166,1042.139Z"/><path class="b" d="M65.443,1045.583l.178-2.758a2.775,2.775,0,0,1,.4-1.485c.532-.776,1.645-1.218,2.159-.4a5.556,5.556,0,0,1,.3,2.785,14.394,14.394,0,0,1-1.171,5.593,1.624,1.624,0,0,1-.449.673,1.42,1.42,0,0,1-1.008.3c-.593-.074-.678-.554-.653-.939Q65.321,1047.47,65.443,1045.583Z"/><path class="b" d="M58.834,1048.442l.273-3.415a3.737,3.737,0,0,1,.469-1.815c.6-.922,1.805-1.378,2.334-.313.486.98.269,2.452.244,3.489a19.728,19.728,0,0,1-1.423,6.86,1.927,1.927,0,0,1-.5.8,1.333,1.333,0,0,1-1.094.293c-.635-.142-.712-.746-.675-1.222Q58.647,1050.781,58.834,1048.442Z"/><path class="b" d="M52.126,1050.3q.02-1.926.038-3.851a4.24,4.24,0,0,1,.369-2.055c.573-1.053,1.844-1.6,2.494-.414.6,1.09.474,2.752.526,3.92a22.638,22.638,0,0,1-1.02,7.76,2.066,2.066,0,0,1-.481.914,1.353,1.353,0,0,1-1.158.358c-.695-.143-.824-.821-.819-1.358Z"/><path class="b" d="M27.834,1042.139q-.144-1.07-.286-2.139a2.171,2.171,0,0,0-.413-1.164c-.5-.622-1.477-1.01-1.881-.4-.371.565-.168,1.5-.128,2.139a10.977,10.977,0,0,0,1.278,4.372,1.466,1.466,0,0,0,.419.539,1.443,1.443,0,0,0,.885.276c.507-.033.557-.4.517-.7Q28.03,1043.6,27.834,1042.139Z"/><path class="b" d="M34.641,1045.583l-.178-2.758a2.784,2.784,0,0,0-.4-1.485c-.532-.776-1.646-1.218-2.159-.4a5.556,5.556,0,0,0-.3,2.785,14.376,14.376,0,0,0,1.171,5.593,1.6,1.6,0,0,0,.449.673,1.418,1.418,0,0,0,1.008.3c.593-.074.678-.554.653-.939Q34.763,1047.47,34.641,1045.583Z"/><path class="b" d="M41.333,1048.442q-.135-1.709-.272-3.415a3.737,3.737,0,0,0-.469-1.815c-.595-.922-1.806-1.378-2.335-.313-.486.98-.268,2.452-.244,3.489a19.75,19.75,0,0,0,1.423,6.86,1.919,1.919,0,0,0,.5.8,1.331,1.331,0,0,0,1.093.293c.635-.142.713-.746.675-1.222Q41.52,1050.781,41.333,1048.442Z"/><path class="b" d="M48.125,1050.3q-.02-1.926-.038-3.851a4.24,4.24,0,0,0-.369-2.055c-.573-1.053-1.844-1.6-2.494-.414-.6,1.09-.474,2.752-.526,3.92a22.638,22.638,0,0,0,1.02,7.76,2.066,2.066,0,0,0,.481.914,1.353,1.353,0,0,0,1.158.358c.695-.143.824-.821.819-1.358Z"/><g class="h"><path class="m" d="M 50 1040.553955078125 C 44.87800979614258 1040.553955078125 39.86170959472656 1039.977783203125 35.09043121337891 1038.841430664063 C 34.35400009155273 1038.666015625 33.62590789794922 1038.477905273438 32.90709686279297 1038.277465820313 C 38.42563247680664 1039.099609375 44.14138031005859 1039.514038085938 50 1039.514038085938 C 55.85861968994141 1039.514038085938 61.57436752319336 1039.099609375 67.09290313720703 1038.277465820313 C 66.37409210205078 1038.477905273438 65.64599609375 1038.666015625 64.90956878662109 1038.841430664063 C 60.13829040527344 1039.977783203125 55.12199020385742 1040.553955078125 50 1040.553955078125 Z"/><path class="n" d="M 50 1041.553955078125 C 39.36700057983398 1041.553955078125 29.60799980163574 1039.098022460938 21.94499969482422 1035.004028320313 C 30.37199974060059 1037.243041992188 39.90000152587891 1038.514038085938 50 1038.514038085938 C 60.09999847412109 1038.514038085938 69.62799835205078 1037.243041992188 78.05500030517578 1035.004028320313 C 70.39199829101563 1039.098022460938 60.63299942016602 1041.553955078125 50 1041.553955078125 Z"/></g><path class="c" d="M85.241,1070.864c-.952-1.038-2.058-2.05-2.521-2.582-.347-.4-.593-.7-.694-.828v-.065l-.026.033-.026-.033v.065c-.1.126-.347.43-.694.828-.463.532-1.569,1.544-2.52,2.582a3.156,3.156,0,0,0-.849,2.936,2.109,2.109,0,0,0,2.494,1.493,1.58,1.58,0,0,0,1.006-.534,3.288,3.288,0,0,1-.817,1.852h2.743a3.512,3.512,0,0,1-.742-1.845,1.576,1.576,0,0,0,1,.527,2.109,2.109,0,0,0,2.494-1.493A3.157,3.157,0,0,0,85.241,1070.864Z"/><g class="i"><rect class="c" width="2" height="128" rx="1" transform="translate(7 1014.129)"/><path class="b" d="M12.666,1017.133c-1.37-1.495-2.962-2.952-3.629-3.718-.5-.574-.854-1.01-1-1.192v-.094l-.037.047-.037-.047v.094c-.146.182-.5.618-1,1.192-.667.766-2.259,2.223-3.629,3.718a4.541,4.541,0,0,0-1.222,4.227,3.037,3.037,0,0,0,3.592,2.151,2.274,2.274,0,0,0,1.448-.769,4.728,4.728,0,0,1-1.177,2.666h3.95a5.055,5.055,0,0,1-1.068-2.656,2.275,2.275,0,0,0,1.439.759,3.037,3.037,0,0,0,3.592-2.151A4.541,4.541,0,0,0,12.666,1017.133Z"/><rect class="d" width="6" height="130" transform="translate(2 1012.129)"/></g><path class="b" d="M98.565,1076.588c.915,1.685,2.086,4.268.995,6.134-1.332,2.289-5.444,2.589-7.284.792,1.471-1.7.545-4.83-1.53-6.172a18.369,18.369,0,0,0,3.268-2.973c.637-.632,1.209-1.3,2.15-.91C97.244,1073.9,98.02,1075.583,98.565,1076.588Z"/><path class="b" d="M97.526,1082.88a3.535,3.535,0,0,1-1.641,1.618,3.188,3.188,0,0,1-1.074.208,6.894,6.894,0,0,1-1.829-.26,4.7,4.7,0,0,1-1.188-.437,3.614,3.614,0,0,1-1.584-2.066,7.848,7.848,0,0,1,.356-4.979c.684-1.909,1.888-5.036,4.589-3.644C98.624,1075.1,99.123,1080.052,97.526,1082.88Z"/><path class="d" d="M44.549,1000a2.4,2.4,0,0,0-2.52,2.8l.846,3.361c-3.92,2.945-10.45,7.384-16.206,11.922-5.951,4.691-7.15,9.381-6.514,13.468a8.1,8.1,0,0,0,1.545,7.513l-.06-.976a17.43,17.43,0,0,0,2.226,5.481c.222.484.454.962.7,1.429H2.5v57c0,11.215,7.835,21.238,17.142,29.188-.144.307-.289.614-.422.943A33.93,33.93,0,0,0,17,1139.992c-3.01,1.541-6,4.931-6,6.99,0,2.728,2.91,2.08,6.5,2.08,2.843,0,5.254-.576,6.136-2.17a22.179,22.179,0,0,0,7.4-4.7q.792-.781,1.525-1.583A139.8,139.8,0,0,0,50,1150V1000Z"/><text class="j" transform="translate(45.736 1013.522)"><tspan x="0" y="0">A</tspan></text><text class="k" transform="translate(77.408 1064.109)"><tspan x="0" y="0">A</tspan></text><path class="l" d="M1.435,1076.588c-.915,1.685-2.086,4.268-.995,6.134,1.332,2.289,5.444,2.589,7.284.792-1.471-1.7-.545-4.83,1.53-6.172a18.368,18.368,0,0,1-3.268-2.973c-.637-.632-1.209-1.3-2.15-.91C2.756,1073.9,1.98,1075.583,1.435,1076.588Z"/><path class="l" d="M6.092,1081.2a2.285,2.285,0,0,0,.181,1.37,1.861,1.861,0,0,0,.4.49,3.693,3.693,0,0,0,.894.541,2.435,2.435,0,0,0,.67.224,1.89,1.89,0,0,0,1.392-.411,4.759,4.759,0,0,0,1.514-2.51c.339-1.161.858-3.093-.8-3.41C8.22,1077.088,6.338,1079.273,6.092,1081.2Z"/></g></svg>