<svg xmlns="http://www.w3.org/2000/svg" xmlns:xlink="http://www.w3.org/1999/xlink" viewBox="0 0 100 150"><defs><style>.a{fill:none;}.b{fill:#752125;}.c,.j,.m{fill:#eb3b56;}.d{fill:#e5284c;}.e{fill:#d31341;}.f,.n{fill:#e6e6e6;}.g{opacity:0.8;}.h{fill:#ff83a1;}.i{fill:#f74668;}.j{opacity:0.5;}.k{clip-path:url(#a);}.l,.o{fill:#fff;}.l{opacity:0.05;}.m{font-size:13px;}.m,.n{font-family:MyriadPro-Regular, Myriad Pro;}.n{font-size:14px;}.o{opacity:0.1;}</style><clipPath id="a"><path class="a" d="M11.028,1163.107A2.8,2.8,0,0,0,8,1165.719a2.8,2.8,0,0,0-3.028-2.612c-3.1.075-3.514,3.552-2.43,5.309a16.234,16.234,0,0,0,2.729,3.439c.572.592,1.2,1.222,1.729,1.793v117.489a.994.994,0,0,0,.992.992h.016a.994.994,0,0,0,.992-.992V1173.648c.527-.571,1.157-1.2,1.729-1.793a16.234,16.234,0,0,0,2.729-3.439C14.542,1166.659,14.131,1163.182,11.028,1163.107Z"/></clipPath></defs><g transform="translate(0 -1150)"><path class="b" d="M33.844,1276.552c6.382,3.924,2.708,10.189-2.806,15.637-4,3.956-10.69,6.594-12.642,5.062-2.566-2.013-1.854-8.549.824-15.12C22.145,1274.952,27.494,1272.648,33.844,1276.552Z"/><path class="c" d="M24,1295.422c0,2.728-2.91,3.64-6.5,3.64s-6.5.648-6.5-2.08,5.25-7.8,8.84-7.8S24,1292.694,24,1295.422Z"/><path class="b" d="M66.156,1276.552c-6.382,3.924-2.708,10.189,2.806,15.637,4,3.956,10.69,6.594,12.642,5.062,2.566-2.013,1.854-8.549-.824-15.12C77.855,1274.952,72.506,1272.648,66.156,1276.552Z"/><path class="c" d="M76,1295.422c0,2.728,2.91,3.64,6.5,3.64s6.5.648,6.5-2.08-5.25-7.8-8.84-7.8S76,1292.694,76,1295.422Z"/><path class="d" d="M50,1297.259c6.687-3.076,45-21.735,45-45.259v-57H5v57C5,1275.524,43.312,1294.183,50,1297.259Z"/><path class="e" d="M92.5,1252c0,18.925-29.013,36.284-42.5,42.524C36.5,1288.3,7.5,1270.963,7.5,1252v-57h-5v57c0,27.614,47.5,48,47.5,48h0s47.5-20.386,47.5-48v-57h-5Z"/><path class="f" d="M62.844,1222.506c-10.008-.242-12.314,7.4-12.844,11.078-.53-3.676-2.836-11.32-12.844-11.078-13.16.317-14.9,15.063-10.306,22.515s6.977,9.831,11.575,14.588c4.331,4.48,9.505,9.522,11.416,12.611,0,0,.1.361.159.263.057.1.159-.263.159-.263,1.911-3.089,7.085-8.131,11.416-12.611,4.6-4.757,6.977-7.135,11.575-14.588S76,1222.823,62.844,1222.506Z"/><path class="c" d="M21.7,1189.066c-2.507-2.929-2.366-7.518-.557-9.066"/><path class="c" d="M78.1,1189.066c2.507-2.929,2.366-7.518.557-9.066"/><path class="c" d="M78.814,1180.608C80.009,1194.8,65.9,1210,49.965,1210s-28.85-12.162-28.85-29.392c0-.2,28.65-7.094,28.85-7.094C51.159,1173.514,78.8,1180.406,78.814,1180.608Z"/><path class="d" d="M65.266,1160.15c-11.9-.285-14.636,8.768-15.266,13.123-.63-4.355-3.37-13.408-15.266-13.123-15.643.376-17.716,17.843-12.251,26.671s8.293,9.566,13.759,15.2c5.147,5.307,11.3-.155,13.57,3.5,0,0,.121.427.188.311.067.116.188-.311.188-.311,2.273-3.659,8.423,1.8,13.57-3.5,5.466-5.634,8.293-6.373,13.759-15.2S80.909,1160.526,65.266,1160.15Z"/><g class="g"><path class="h" d="M35.278,1160.144v2c9.648,0,12.124,7.152,12.742,11.416a2,2,0,0,0,3.958,0c.618-4.264,3.093-11.416,12.742-11.416.163,0,.33,0,.5.006,5.113.122,8.967,2.316,11.148,6.344a18.5,18.5,0,0,1-.55,17.274,39.72,39.72,0,0,1-8.934,10.567c-1.324,1.175-2.825,2.506-4.559,4.294a5.845,5.845,0,0,1-4.586,1.869,21.917,21.917,0,0,1-2.363-.173,20.972,20.972,0,0,0-2.272-.168,5.713,5.713,0,0,0-3.1.775,5.713,5.713,0,0,0-3.1-.775,20.972,20.972,0,0,0-2.272.168,21.917,21.917,0,0,1-2.363.173,5.845,5.845,0,0,1-4.586-1.869c-1.734-1.788-3.235-3.119-4.559-4.294a39.72,39.72,0,0,1-8.934-10.567,18.5,18.5,0,0,1-.55-17.274c2.181-4.028,6.035-6.222,11.148-6.344.168,0,.332-.006.5-.006v-2m29.443,0c-11.436,0-14.1,8.842-14.721,13.129-.621-4.287-3.287-13.129-14.721-13.129-.18,0-.361,0-.545.006-15.643.376-17.716,17.843-12.251,26.671s8.293,9.566,13.759,15.2a7.858,7.858,0,0,0,6.021,2.477c1.69,0,3.29-.341,4.635-.341a3.068,3.068,0,0,1,2.914,1.368s.094.331.162.331c.009,0,.018-.006.026-.02.008.014.017.02.026.02.068,0,.162-.331.162-.331a3.068,3.068,0,0,1,2.914-1.368c1.345,0,2.945.341,4.635.341a7.859,7.859,0,0,0,6.021-2.477c5.466-5.634,8.293-6.373,13.759-15.2s3.392-26.3-12.251-26.671c-.184,0-.366-.006-.545-.006Z"/></g><path class="i" d="M50,1191.554c-10.949,0-20.971-2.6-28.732-6.921C21.268,1202.7,50,1209.8,50,1209.8s28.732-8.108,28.732-25.164C70.971,1188.949,60.949,1191.554,50,1191.554Z"/><path class="f" d="M50,1184.459,42.029,1152.8a2.4,2.4,0,0,1,2.52-2.8h10.9a2.4,2.4,0,0,1,2.52,2.8Z"/><path class="c" d="M72.166,1192.139q.144-1.07.286-2.139a2.171,2.171,0,0,1,.413-1.164c.5-.622,1.477-1.01,1.881-.4.371.565.168,1.5.128,2.139a10.977,10.977,0,0,1-1.278,4.372,1.466,1.466,0,0,1-.419.539,1.443,1.443,0,0,1-.885.276c-.507-.033-.557-.4-.517-.7Q71.97,1193.6,72.166,1192.139Z"/><path class="c" d="M65.443,1195.583l.178-2.758a2.775,2.775,0,0,1,.4-1.485c.532-.776,1.645-1.218,2.159-.4a5.556,5.556,0,0,1,.3,2.785,14.394,14.394,0,0,1-1.171,5.593,1.624,1.624,0,0,1-.449.673,1.42,1.42,0,0,1-1.008.3c-.593-.074-.678-.554-.653-.939Q65.321,1197.47,65.443,1195.583Z"/><path class="c" d="M58.834,1198.442l.273-3.415a3.737,3.737,0,0,1,.469-1.815c.6-.922,1.805-1.378,2.334-.313.486.98.269,2.452.244,3.489a19.728,19.728,0,0,1-1.423,6.86,1.927,1.927,0,0,1-.5.8,1.333,1.333,0,0,1-1.094.293c-.635-.142-.712-.746-.675-1.222Q58.647,1200.781,58.834,1198.442Z"/><path class="c" d="M52.126,1200.3q.02-1.926.038-3.851a4.24,4.24,0,0,1,.369-2.055c.573-1.053,1.844-1.6,2.494-.414.6,1.09.474,2.752.526,3.92a22.638,22.638,0,0,1-1.02,7.76,2.066,2.066,0,0,1-.481.914,1.353,1.353,0,0,1-1.158.358c-.695-.143-.824-.821-.819-1.358Z"/><path class="c" d="M27.834,1192.139q-.144-1.07-.286-2.139a2.171,2.171,0,0,0-.413-1.164c-.5-.622-1.477-1.01-1.881-.4-.371.565-.168,1.5-.128,2.139a10.977,10.977,0,0,0,1.278,4.372,1.466,1.466,0,0,0,.419.539,1.443,1.443,0,0,0,.885.276c.507-.033.557-.4.517-.7Q28.03,1193.6,27.834,1192.139Z"/><path class="c" d="M34.641,1195.583l-.178-2.758a2.784,2.784,0,0,0-.4-1.485c-.532-.776-1.646-1.218-2.159-.4a5.556,5.556,0,0,0-.3,2.785,14.376,14.376,0,0,0,1.171,5.593,1.6,1.6,0,0,0,.449.673,1.418,1.418,0,0,0,1.008.3c.593-.074.678-.554.653-.939Q34.763,1197.47,34.641,1195.583Z"/><path class="c" d="M41.333,1198.442q-.135-1.709-.272-3.415a3.737,3.737,0,0,0-.469-1.815c-.595-.922-1.806-1.378-2.335-.313-.486.98-.268,2.452-.244,3.489a19.75,19.75,0,0,0,1.423,6.86,1.919,1.919,0,0,0,.5.8,1.331,1.331,0,0,0,1.093.293c.635-.142.713-.746.675-1.222Q41.52,1200.781,41.333,1198.442Z"/><path class="c" d="M48.125,1200.3q-.02-1.926-.038-3.851a4.24,4.24,0,0,0-.369-2.055c-.573-1.053-1.844-1.6-2.494-.414-.6,1.09-.474,2.752-.526,3.92a22.638,22.638,0,0,0,1.02,7.76,2.066,2.066,0,0,0,.481.914,1.353,1.353,0,0,0,1.158.358c.695-.143.824-.821.819-1.358Z"/><path class="j" d="M50,1188.514A110,110,0,0,1,21.945,1185,60.068,60.068,0,0,0,50,1191.554,60.068,60.068,0,0,0,78.055,1185,110,110,0,0,1,50,1188.514Z"/><path class="f" d="M84.1,1217.908a1.945,1.945,0,0,0-2.1,1.814,1.945,1.945,0,0,0-2.1-1.814c-2.154.052-2.44,2.466-1.687,3.686a11.249,11.249,0,0,0,1.9,2.388,18.157,18.157,0,0,1,1.869,2.065s.017.059.026.043c.009.016.026-.043.026-.043a18.157,18.157,0,0,1,1.869-2.065,11.249,11.249,0,0,0,1.9-2.388C86.543,1220.374,86.257,1217.96,84.1,1217.908Z"/><g class="k"><rect class="f" width="2" height="126" rx="0.992" transform="translate(7 1166.129)"/><path class="c" d="M11.028,1163.107A2.8,2.8,0,0,0,8,1165.719a2.8,2.8,0,0,0-3.028-2.612c-3.1.075-3.514,3.552-2.43,5.309a16.234,16.234,0,0,0,2.729,3.439,26.172,26.172,0,0,1,2.692,2.973s.024.085.037.062c.013.023.037-.062.037-.062a26.172,26.172,0,0,1,2.692-2.973,16.234,16.234,0,0,0,2.729-3.439C14.542,1166.659,14.131,1163.182,11.028,1163.107Z"/><rect class="l" width="6" height="130" transform="translate(2 1162.129)"/></g><path class="c" d="M98.565,1226.588c.915,1.685,2.086,4.268.995,6.134-1.332,2.289-5.444,2.589-7.284.792,1.471-1.7.545-4.83-1.53-6.172a18.369,18.369,0,0,0,3.268-2.973c.637-.632,1.209-1.3,2.15-.91C97.244,1223.9,98.02,1225.583,98.565,1226.588Z"/><path class="c" d="M97.526,1232.88a3.535,3.535,0,0,1-1.641,1.618,3.188,3.188,0,0,1-1.074.208,6.894,6.894,0,0,1-1.829-.26,4.7,4.7,0,0,1-1.188-.437,3.614,3.614,0,0,1-1.584-2.066,7.848,7.848,0,0,1,.356-4.979c.684-1.909,1.888-5.036,4.589-3.644C98.624,1225.1,99.123,1230.052,97.526,1232.88Z"/><text class="m" transform="translate(45.736 1163.522)"><tspan x="0" y="0">A</tspan></text><text class="n" transform="translate(77.408 1214.109)"><tspan x="0" y="0">A</tspan></text><path class="o" d="M44.549,1150a2.4,2.4,0,0,0-2.52,2.8l2.571,10.209c-2.256-1.769-5.421-2.967-9.866-2.861-12.771.307-16.5,12.005-14.458,21.093a8.007,8.007,0,0,0,1.424,7.823l-.06-.976a17.43,17.43,0,0,0,2.226,5.481c.222.484.454.962.7,1.429H2.5v57c0,11.215,7.835,21.238,17.142,29.188-.144.307-.289.614-.422.943A33.93,33.93,0,0,0,17,1289.992c-3.01,1.541-6,4.931-6,6.99,0,2.728,2.91,2.08,6.5,2.08,2.843,0,5.254-.576,6.136-2.17a22.179,22.179,0,0,0,7.4-4.7q.792-.781,1.525-1.583A139.8,139.8,0,0,0,50,1300V1150Z"/><path class="c" d="M1.435,1226.588c-.915,1.685-2.086,4.268-.995,6.134,1.332,2.289,5.444,2.589,7.284.792-1.471-1.7-.545-4.83,1.53-6.172a18.368,18.368,0,0,1-3.268-2.973c-.637-.632-1.209-1.3-2.15-.91C2.756,1223.9,1.98,1225.583,1.435,1226.588Z"/><path class="c" d="M6.092,1231.2a2.285,2.285,0,0,0,.181,1.37,1.861,1.861,0,0,0,.4.49,3.693,3.693,0,0,0,.894.541,2.435,2.435,0,0,0,.67.224,1.89,1.89,0,0,0,1.392-.411,4.759,4.759,0,0,0,1.514-2.51c.339-1.161.858-3.093-.8-3.41C8.22,1227.088,6.338,1229.273,6.092,1231.2Z"/></g></svg>