<svg xmlns="http://www.w3.org/2000/svg" xmlns:xlink="http://www.w3.org/1999/xlink" viewBox="0 0 100 150"><defs><style>.a{fill:none;}.b{fill:#752125;}.c,.k,.o{fill:#eb3b56;}.d{fill:#e5284c;}.e,.l,.n{fill:#fff;}.f{fill:#f74668;}.g{fill:#d31341;}.h{opacity:0.8;}.i{fill:#ff83a1;}.j,.p{fill:#e6e6e6;}.k{opacity:0.5;}.l{opacity:0.1;}.m{clip-path:url(#a);}.n{opacity:0.05;}.o{font-size:13px;}.o,.p{font-family:MyriadPro-Regular, Myriad Pro;}.p{font-size:14px;}</style><clipPath id="a"><path class="a" d="M1111.028,1163.107a3.061,3.061,0,0,1-6.056,0c-3.1.075-3.514,3.552-2.43,5.309a16.234,16.234,0,0,0,2.729,3.439c.572.592,1.2,1.222,1.729,1.793v117.489a.994.994,0,0,0,.992.992h.016a.994.994,0,0,0,.992-.992V1173.648c.527-.571,1.157-1.2,1.729-1.793a16.234,16.234,0,0,0,2.729-3.439C1114.542,1166.659,1114.131,1163.182,1111.028,1163.107Z"/></clipPath></defs><g transform="translate(-1100 -1150)"><path class="b" d="M1133.844,1276.552c6.382,3.924,2.708,10.189-2.806,15.637-4,3.956-10.69,6.594-12.642,5.062-2.566-2.013-1.854-8.549.824-15.12C1122.145,1274.952,1127.494,1272.648,1133.844,1276.552Z"/><path class="c" d="M1124,1295.422c0,2.728-2.91,3.64-6.5,3.64s-6.5.648-6.5-2.08,5.25-7.8,8.84-7.8S1124,1292.694,1124,1295.422Z"/><path class="b" d="M1166.156,1276.552c-6.382,3.924-2.708,10.189,2.806,15.637,4,3.956,10.69,6.594,12.642,5.062,2.566-2.013,1.854-8.549-.824-15.12C1177.855,1274.952,1172.506,1272.648,1166.156,1276.552Z"/><path class="c" d="M1176,1295.422c0,2.728,2.91,3.64,6.5,3.64s6.5.648,6.5-2.08-5.25-7.8-8.84-7.8S1176,1292.694,1176,1295.422Z"/><path class="d" d="M1150,1297.259c6.687-3.076,45-21.735,45-45.259v-57h-90v57C1105,1275.524,1143.312,1294.183,1150,1297.259Z"/><path class="e" d="M1156.765,1237.011V1219.9h-9.909v15.54a13.836,13.836,0,0,0-7.651,6.665,5.2,5.2,0,0,0-2.1.154c-3.167.98-9.5,2.94-8.447,8.818s7.391,6.858,7.391,6.858l5.28,15.675,1.7-.122.692,2.541,19.818.968v-25.887C1163.545,1245.082,1160.8,1239.8,1156.765,1237.011Z"/><path class="e" d="M1167.054,1236.547l-2.894.954.27,3.36,2.945-.941Z"/><path class="f" d="M1172.5,1255.433l-14.692-19.078-4.406,6.288a13.262,13.262,0,0,0-5.619.1l-9.037-8.107-3.014,2.35,1.419,4.269c-.124.029-.249.054-.372.092-3.1.957-10.349,3.2-9.146,9.894.856,4.766,5.036,6.915,7.606,7.526l5.346,15.872,7.483-.534.445,1.339,8.87-2.071.686.968Zm-18.335,15.108a15.132,15.132,0,0,1-3.834-7.124l3.946,5.57Zm-8.79-9.413c-2.659-5.685.081-13.536,1.108-16.08.163-.038.336-.08.531-.129.141-.036.3-.075.459-.113l1.011.946a23.117,23.117,0,0,0-3.22,8.508l-.706,1.008.507.716A16.7,16.7,0,0,0,1145.375,1261.128Zm3.075-11.416a31.116,31.116,0,0,1,1.126-3.361l.777.645Zm.216,11.355a20.713,20.713,0,0,0,.471,2.518,9.913,9.913,0,0,1-1.572-4.072Zm3.5-16.662-.976,1.393-1.5-1.349-.051-.046A10.4,10.4,0,0,1,1152.168,1244.405Zm-10.087,28.184-.254-.754,5.029-.641-.552-2.4,1.134,3.412Zm14.05-.312.044-.611.872,1.231C1156.792,1272.74,1156.484,1272.538,1156.131,1272.277Z"/><path class="e" d="M1167.8,1240.081l2.922-.842-.163-3.369-2.974.826Z"/><path class="e" d="M1168.043,1240.072l-2.826,1.178.483,3.331,2.878-1.168Z"/><path class="e" d="M1169,1243.753l2.894-.954-.269-3.36-2.946.94Z"/><path class="f" d="M1168.682,1251.387,1131.732,1277h35.985Z"/><path class="f" d="M1172.164,1242.965l-.31-3.857-.867.277-.185-3.835-3.489.969-.029-.305-3.4,1.121.31,3.857,2.248-.718-1.51.629.555,3.828,3.232-1.312.045.467Zm-.55-.332-2.389.788-.273-2.874,2.433-.777Zm-1.3-6.441.138,2.872-2.411.694-.183-2.884Zm-5.876,1.475,2.389-.788.274,2.874-2.433.777Zm1.478,6.563-.411-2.833,2.334-.973.455,2.841Zm2.411-4.048,1.687-.485-1.614.515.1,1.034Z"/><ellipse class="e" cx="0.977" cy="1.081" rx="0.977" ry="1.081" transform="translate(1167.12 1239)"/><path class="f" d="M1168.095,1241.405a1.176,1.176,0,0,1-.63-.185,1.37,1.37,0,0,1-.452-1.78,1.253,1.253,0,0,1,.8-.647,1.159,1.159,0,0,1,.914.15,1.368,1.368,0,0,1,.451,1.779,1.25,1.25,0,0,1-.8.648A1.2,1.2,0,0,1,1168.095,1241.405Zm0-2.164a.62.62,0,0,0-.148.019.738.738,0,0,0-.467.389.921.921,0,0,0,.275,1.171.61.61,0,0,0,.485.082.739.739,0,0,0,.466-.389.92.92,0,0,0-.275-1.17h0A.611.611,0,0,0,1168.1,1239.241Z"/><path class="e" d="M1163.053,1250.871a10,10,0,0,1,1.3-2.806c.864-1.2,3.888-2.4,3.888-2.4l-1.728,3.607-3.025,1.6Z"/><path class="f" d="M1163.555,1251.113h-.836l.081-.3a10.186,10.186,0,0,1,1.333-2.881c.9-1.249,3.876-2.443,4-2.494l.612-.243-2.033,4.244Zm-.157-.484h.018l2.89-1.532,1.412-2.946a9.307,9.307,0,0,0-3.151,2.048A9.431,9.431,0,0,0,1163.4,1250.629Z"/><path class="e" d="M1162.829,1240.53a7.687,7.687,0,0,1,.666,2.766c.035,1.445-1.951,3.6-1.951,3.6l-.532-2.213a17.586,17.586,0,0,0,.428-2.122C1161.538,1241.669,1162.829,1240.53,1162.829,1240.53Z"/><path class="f" d="M1161.4,1247.42l-.661-2.741.015-.055a17.51,17.51,0,0,0,.423-2.089,4.735,4.735,0,0,1,1.469-2.181l.268-.236.15.314a7.889,7.889,0,0,1,.688,2.859c.037,1.52-1.929,3.671-2.013,3.762Zm-.125-2.735.4,1.664c.549-.67,1.578-2.062,1.554-3.047a7.333,7.333,0,0,0-.5-2.333,3.566,3.566,0,0,0-1.035,1.616A17.241,17.241,0,0,1,1161.279,1244.685Z"/><path class="e" d="M1164.528,1244.194s-3.024,4.81-3.024,7.616v2.806h.432v-3.207c0-1.2,1.728-4.409,2.16-5.211a18.22,18.22,0,0,0,.865-2Z"/><path class="f" d="M1157.808,1239.742l7.3-3.871-4.658-6.577.029.018,2.543-6.506-9.387-5.806-7.823,3.387.89.541-4.462,12.027,3.875,3,.724-14.947,3.267,1.988Z"/><path class="e" d="M1153.444,1222.309l.343.478.426-.388-.32-.482Z"/><path class="e" d="M1151.74,1222.146l.343.478.426-.388-.32-.482Z"/><path class="e" d="M1150.074,1221.587l.343.478.426-.388-.32-.482Z"/><path class="e" d="M1148.748,1221.535l.425-.388-.136-.2c-.073-.005-.146-.006-.219-.013s-.153-.02-.228-.035l-.185.162Z"/><path class="e" d="M1155.148,1222.472l.343.478.426-.388-.32-.482Z"/><path class="e" d="M1157.635,1222.574l-.32-.482-.448.392.343.478Z"/><path class="e" d="M1159.355,1222.571l-.32-.482-.448.392.343.478Z"/><path class="e" d="M1160.54,1222.4l.343.478.426-.388-.272-.409-.034-.05-.037,0-.043.037Z"/><path class="e" d="M1154.677,1226.108l-.177-.35-.209-.414-.281.122.209.414.177.35Z"/><path class="e" d="M1154.085,1224.889l-.177-.35-.205-.407-.281.122.205.407.177.35Z"/><path class="e" d="M1153.5,1223.675l-.177-.35-.226-.447-.281.122.226.447.177.35Z"/><path class="e" d="M1155.25,1227.279l-.17-.353-.178-.371-.038-.079-.283.117.041.084.176.366.169.353Z"/><path class="e" d="M1155.853,1228.533l-.169-.353-.216-.451-.283.117.216.451.17.353Z"/><path class="e" d="M1156.455,1229.788l-.169-.353-.217-.451-.141.058-.142.059h0l.216.451.169.353Z"/><path class="e" d="M1157.057,1231.042l-.169-.353-.216-.451-.142.058-.142.058h0l.216.451.17.353Z"/><path class="e" d="M1157.66,1232.3l-.17-.353-.216-.451h0l-.283.117h0l.217.451.169.353Z"/><path class="e" d="M1158.262,1233.55l-.169-.353-.216-.451h0l-.283.117h0l.216.451.169.353Z"/><path class="e" d="M1158.865,1234.8l-.169-.353-.216-.451h0l-.283.117h0l.216.451.17.353Z"/><path class="e" d="M1158.939,1235.314l-.141.058.216.451.169.353.283-.117-.169-.353-.216-.451h0Z"/><path class="e" d="M1159.377,1236.578l.023.049.193.4.169.353.283-.117-.169-.353-.193-.4-.023-.049Z"/><path class="e" d="M1159.979,1237.832l.216.451.169.353.283-.117-.169-.353-.216-.451Z"/><path class="e" d="M1152.514,1223.054l-.107.043-.106.044.358.757,6.533,14.346.338.714.1-.323-7.095-15.533Z"/><path class="e" d="M1158.892,1233.466l-4.181-8.655c-.065.025-.1.041-.107.043l-.095-.2.106-.043-1.046-2.166-.027-.057-.212.088.042.087,5.357,11.088C1158.715,1233.568,1158.809,1233.511,1158.892,1233.466Z"/><path class="e" d="M1158.987,1233.663a.3.3,0,0,0-.054.037l-.071-.067-.011,0,0,.115-.111-.078,2.443,4.312c.033-.107.067-.213.1-.32Z"/><path class="e" d="M1159.348,1261.135c-.778.485-1.672,1.06-2.587,1.606-.589.351-1.208.658-1.814.983a.463.463,0,0,1-.437-.047.287.287,0,0,1-.066-.2.664.664,0,0,0-.1-.438.9.9,0,0,1-.077-.77.8.8,0,0,1,.237-.278,34.7,34.7,0,0,1,4.577-3.436,30.459,30.459,0,0,1,2.9-1.652.561.561,0,0,1,.469-.063.672.672,0,0,1,.4.344.438.438,0,0,0,.363.263.783.783,0,0,1,.246.081.218.218,0,0,1,.051.381q-1.021.924-2.134,1.753C1160.739,1260.125,1160.1,1260.584,1159.348,1261.135Z"/><path class="e" d="M1151.161,1260.115a35.005,35.005,0,0,1,3.163-2.66,39.27,39.27,0,0,1,6.668-4.047,1.888,1.888,0,0,1,.024.284c-.01.136-.043.271-.056.408-.024.23-.042.461-.057.692a.1.1,0,0,1-.059.1c-.609.327-1.227.642-1.819.994-1.126.667-2.21,1.391-3.265,2.151-.732.526-1.448,1.071-2.16,1.622-.31.24-.588.515-.884.772a.14.14,0,0,1-.1.03c-.317-.058-.632-.124-.949-.183A1.171,1.171,0,0,1,1151.161,1260.115Z"/><path class="e" d="M1154.079,1261.431a2.979,2.979,0,0,0-.265-.4,3.033,3.033,0,0,0-.379-.306,45.4,45.4,0,0,1,7.488-5.116,2.715,2.715,0,0,0,.2.429,2.951,2.951,0,0,0,.338.358,34.926,34.926,0,0,0-3.857,2.307A33.939,33.939,0,0,0,1154.079,1261.431Z"/><path class="e" d="M1152.331,1252.029l3.864,3.268-1.674,1.142-2.212-4.4Z"/><path class="e" d="M1152.457,1258.035l-2.81-3.545.011-.013,4.2,2.457Z"/><path class="e" d="M1155.749,1250.536l2.676,3.376-1.527.924-1.168-4.293Z"/><path class="e" d="M1151.788,1258.6l-1.141,1.031-2.622-2.365.009-.017Z"/><path class="e" d="M1159.229,1253.466l-.267-3.67.02-.005,1.642,3.006Z"/><path class="e" d="M1150.232,1252.215a.43.43,0,0,1-.105.631.512.512,0,0,1-.674-.1.43.43,0,0,1,.1-.63A.51.51,0,0,1,1150.232,1252.215Z"/><path class="e" d="M1155.551,1249.365a.505.505,0,0,1-.672-.093.43.43,0,0,1,.1-.631.511.511,0,0,1,.674.095A.426.426,0,0,1,1155.551,1249.365Z"/><path class="e" d="M1147.866,1254.839a.5.5,0,0,1,.672.1.429.429,0,0,1-.107.63.51.51,0,0,1-.673-.1A.426.426,0,0,1,1147.866,1254.839Z"/><path class="e" d="M1158.169,1247.808a.508.508,0,0,1,.679.1.43.43,0,0,1-.106.625.511.511,0,0,1-.68-.1A.428.428,0,0,1,1158.169,1247.808Z"/><path class="e" d="M1151.878,1250.645a.428.428,0,0,1,.1-.625.508.508,0,0,1,.679.1.425.425,0,0,1-.108.628A.505.505,0,0,1,1151.878,1250.645Z"/><path class="e" d="M1153.276,1265.848l-.665-.829-.829,1.218Z"/><path class="e" d="M1151.33,1267.192l-.665-.829-.829,1.218Z"/><path class="e" d="M1149.385,1268.537l-.666-.829-.829,1.218Z"/><path class="e" d="M1147.44,1269.881l-.665-.829-.829,1.218Z"/><path class="e" d="M1145.5,1271.226l-.666-.829-.829,1.218Z"/><path class="e" d="M1143.55,1272.57l-.666-.829-.829,1.218Z"/><path class="e" d="M1141.605,1273.915l-.665-.829-.829,1.218Z"/><path class="e" d="M1139.66,1275.259l-.665-.829-.829,1.218Z"/><path class="g" d="M1192.5,1252c0,18.925-29.013,36.284-42.5,42.524-13.494-6.228-42.5-23.561-42.5-42.524v-57h-5v57c0,27.614,47.5,48,47.5,48h0s47.5-20.386,47.5-48v-57h-5Z"/><path class="c" d="M1121.7,1189.066c-2.507-2.929-2.366-7.518-.557-9.066"/><path class="c" d="M1178.1,1189.066c2.507-2.929,2.366-7.518.557-9.066"/><path class="c" d="M1178.814,1180.608c1.2,14.189-12.916,29.392-28.849,29.392s-28.85-12.162-28.85-29.392c0-.2,28.65-7.094,28.85-7.094C1151.159,1173.514,1178.8,1180.406,1178.814,1180.608Z"/><path class="d" d="M1165.266,1160.15c-11.9-.285-14.636,8.768-15.266,13.123-.63-4.355-3.37-13.408-15.266-13.123-15.643.376-17.716,17.843-12.251,26.671s8.293,9.566,13.759,15.2c5.147,5.307,11.3-.155,13.57,3.5,0,0,.121.427.188.311.067.116.188-.311.188-.311,2.273-3.659,8.423,1.8,13.57-3.5,5.466-5.634,8.293-6.373,13.759-15.2S1180.909,1160.526,1165.266,1160.15Z"/><g class="h"><path class="i" d="M1135.278,1160.144v2c9.648,0,12.124,7.152,12.742,11.416a2,2,0,0,0,3.958,0c.618-4.264,3.093-11.416,12.742-11.416.163,0,.33,0,.5.006,5.113.122,8.967,2.316,11.148,6.344a18.5,18.5,0,0,1-.55,17.274,39.721,39.721,0,0,1-8.934,10.567c-1.324,1.175-2.825,2.506-4.559,4.294a5.845,5.845,0,0,1-4.586,1.869,21.917,21.917,0,0,1-2.363-.173,20.973,20.973,0,0,0-2.272-.168,6.6,6.6,0,0,1-6.2,0,20.973,20.973,0,0,0-2.272.168,21.917,21.917,0,0,1-2.363.173,5.845,5.845,0,0,1-4.586-1.869c-1.734-1.788-3.235-3.119-4.559-4.294a39.721,39.721,0,0,1-8.934-10.567,18.5,18.5,0,0,1-.55-17.274c2.181-4.028,6.035-6.222,11.148-6.344.168,0,.332-.006.5-.006v-2m29.443,0c-11.436,0-14.1,8.842-14.721,13.129-.621-4.287-3.287-13.129-14.721-13.129-.18,0-.361,0-.545.006-15.643.376-17.716,17.843-12.251,26.671s8.293,9.566,13.759,15.2a7.858,7.858,0,0,0,6.021,2.477c1.69,0,3.29-.341,4.635-.341a3.068,3.068,0,0,1,2.914,1.368s.094.331.162.331c.009,0,.018-.006.026-.02.008.014.017.02.026.02.068,0,.162-.331.162-.331a3.068,3.068,0,0,1,2.914-1.368c1.345,0,2.945.341,4.635.341a7.86,7.86,0,0,0,6.021-2.477c5.466-5.634,8.293-6.373,13.759-15.2s3.392-26.3-12.251-26.671c-.184,0-.366-.006-.545-.006Z"/></g><path class="j" d="M1150,1184.459l-7.971-31.657a2.4,2.4,0,0,1,2.52-2.8h10.9a2.4,2.4,0,0,1,2.52,2.8Z"/><path class="f" d="M1150,1191.554c-10.949,0-20.971-2.6-28.732-6.921,0,18.07,28.732,25.164,28.732,25.164s28.732-8.108,28.732-25.164C1170.971,1188.949,1160.949,1191.554,1150,1191.554Z"/><path class="c" d="M1172.166,1192.139q.144-1.07.286-2.139a2.172,2.172,0,0,1,.413-1.164c.5-.622,1.477-1.01,1.881-.4.371.565.168,1.5.128,2.139a10.977,10.977,0,0,1-1.278,4.372,1.466,1.466,0,0,1-.419.539,1.443,1.443,0,0,1-.885.276c-.507-.033-.557-.4-.517-.7Q1171.97,1193.6,1172.166,1192.139Z"/><path class="c" d="M1165.443,1195.583l.178-2.758a2.775,2.775,0,0,1,.4-1.485c.532-.776,1.645-1.218,2.159-.4a5.556,5.556,0,0,1,.3,2.785,14.393,14.393,0,0,1-1.171,5.593,1.624,1.624,0,0,1-.449.673,1.42,1.42,0,0,1-1.008.3c-.593-.074-.678-.554-.653-.939Q1165.321,1197.47,1165.443,1195.583Z"/><path class="c" d="M1158.834,1198.442l.273-3.415a3.737,3.737,0,0,1,.469-1.815c.595-.922,1.8-1.378,2.334-.313.486.98.269,2.452.244,3.489a19.728,19.728,0,0,1-1.423,6.86,1.925,1.925,0,0,1-.5.8,1.333,1.333,0,0,1-1.094.293c-.635-.142-.712-.746-.675-1.222Q1158.647,1200.781,1158.834,1198.442Z"/><path class="c" d="M1152.126,1200.3q.02-1.926.038-3.851a4.242,4.242,0,0,1,.369-2.055c.573-1.053,1.844-1.6,2.494-.414.6,1.09.474,2.752.526,3.92a22.637,22.637,0,0,1-1.02,7.76,2.067,2.067,0,0,1-.481.914,1.353,1.353,0,0,1-1.158.358c-.7-.143-.824-.821-.819-1.358Z"/><path class="c" d="M1127.834,1192.139q-.144-1.07-.286-2.139a2.172,2.172,0,0,0-.413-1.164c-.5-.622-1.477-1.01-1.881-.4-.371.565-.168,1.5-.128,2.139a10.977,10.977,0,0,0,1.278,4.372,1.466,1.466,0,0,0,.419.539,1.443,1.443,0,0,0,.885.276c.507-.033.557-.4.517-.7Q1128.03,1193.6,1127.834,1192.139Z"/><path class="c" d="M1134.641,1195.583l-.178-2.758a2.784,2.784,0,0,0-.4-1.485c-.532-.776-1.646-1.218-2.159-.4a5.557,5.557,0,0,0-.3,2.785,14.375,14.375,0,0,0,1.171,5.593,1.605,1.605,0,0,0,.449.673,1.418,1.418,0,0,0,1.008.3c.593-.074.678-.554.653-.939Q1134.763,1197.47,1134.641,1195.583Z"/><path class="c" d="M1141.333,1198.442q-.135-1.709-.272-3.415a3.738,3.738,0,0,0-.469-1.815c-.6-.922-1.806-1.378-2.335-.313-.486.98-.268,2.452-.244,3.489a19.75,19.75,0,0,0,1.423,6.86,1.918,1.918,0,0,0,.5.8,1.331,1.331,0,0,0,1.093.293c.635-.142.713-.746.675-1.222Q1141.52,1200.781,1141.333,1198.442Z"/><path class="c" d="M1148.125,1200.3q-.019-1.926-.038-3.851a4.24,4.24,0,0,0-.369-2.055c-.573-1.053-1.844-1.6-2.494-.414-.6,1.09-.474,2.752-.526,3.92a22.637,22.637,0,0,0,1.02,7.76,2.067,2.067,0,0,0,.481.914,1.354,1.354,0,0,0,1.158.358c.695-.143.824-.821.819-1.358Z"/><path class="k" d="M1150,1188.514a110,110,0,0,1-28.055-3.51,63.359,63.359,0,0,0,56.11,0A110,110,0,0,1,1150,1188.514Z"/><path class="j" d="M1184.1,1217.908a2.126,2.126,0,0,1-4.206,0c-2.154.052-2.44,2.466-1.687,3.686a11.253,11.253,0,0,0,1.9,2.388,18.159,18.159,0,0,1,1.869,2.065s.017.059.026.043c.009.016.026-.043.026-.043a18.159,18.159,0,0,1,1.869-2.065,11.253,11.253,0,0,0,1.9-2.388C1186.543,1220.374,1186.257,1217.96,1184.1,1217.908Z"/><path class="l" d="M1144.549,1150a2.4,2.4,0,0,0-2.52,2.8l2.571,10.209c-2.256-1.769-5.421-2.967-9.866-2.861-12.771.307-16.495,12.005-14.458,21.093a8.007,8.007,0,0,0,1.424,7.823l-.06-.976a17.429,17.429,0,0,0,2.226,5.481c.222.484.454.962.7,1.429H1102.5v57c0,11.215,7.835,21.238,17.142,29.188-.144.307-.289.614-.422.943a33.931,33.931,0,0,0-2.221,7.861c-3.01,1.541-6,4.931-6,6.99,0,2.728,2.91,2.08,6.5,2.08,2.843,0,5.254-.576,6.136-2.17a22.179,22.179,0,0,0,7.4-4.7q.792-.781,1.525-1.583A139.806,139.806,0,0,0,1150,1300V1150Z"/><g class="m"><rect class="j" width="2" height="126" rx="0.992" transform="translate(1107 1166.129)"/><path class="c" d="M1111.028,1163.107a3.061,3.061,0,0,1-6.056,0c-3.1.075-3.514,3.552-2.43,5.309a16.234,16.234,0,0,0,2.729,3.439,26.178,26.178,0,0,1,2.692,2.973s.024.085.037.062c.013.023.037-.062.037-.062a26.178,26.178,0,0,1,2.692-2.973,16.234,16.234,0,0,0,2.729-3.439C1114.542,1166.659,1114.131,1163.182,1111.028,1163.107Z"/><rect class="n" width="6" height="130" transform="translate(1102 1162.129)"/></g><path class="c" d="M1198.565,1226.588c.915,1.685,2.086,4.268,1,6.134-1.332,2.289-5.444,2.589-7.284.792,1.471-1.7.545-4.83-1.53-6.172a18.369,18.369,0,0,0,3.268-2.973c.637-.632,1.209-1.3,2.15-.91C1197.244,1223.9,1198.02,1225.583,1198.565,1226.588Z"/><path class="c" d="M1197.526,1232.88a3.535,3.535,0,0,1-1.641,1.618,3.188,3.188,0,0,1-1.074.208,6.893,6.893,0,0,1-1.829-.26,4.7,4.7,0,0,1-1.188-.437,3.614,3.614,0,0,1-1.584-2.066,7.848,7.848,0,0,1,.356-4.979c.684-1.909,1.888-5.036,4.589-3.644C1198.624,1225.1,1199.123,1230.052,1197.526,1232.88Z"/><text class="o" transform="translate(1150 1163.522)"><tspan x="-4.478" y="0">Q</tspan></text><text class="p" transform="translate(1182 1214.109)"><tspan x="-4.823" y="0">Q</tspan></text><path class="c" d="M1101.435,1226.588c-.915,1.685-2.086,4.268-1,6.134,1.332,2.289,5.444,2.589,7.284.792-1.471-1.7-.545-4.83,1.53-6.172a18.369,18.369,0,0,1-3.268-2.973c-.637-.632-1.209-1.3-2.15-.91C1102.756,1223.9,1101.98,1225.583,1101.435,1226.588Z"/><path class="c" d="M1106.092,1231.2a2.285,2.285,0,0,0,.181,1.37,1.861,1.861,0,0,0,.4.49,3.694,3.694,0,0,0,.894.541,2.435,2.435,0,0,0,.67.224,1.89,1.89,0,0,0,1.392-.411,4.76,4.76,0,0,0,1.514-2.51c.339-1.161.858-3.093-.8-3.41C1108.22,1227.088,1106.338,1229.273,1106.092,1231.2Z"/></g></svg>