<svg xmlns="http://www.w3.org/2000/svg" xmlns:xlink="http://www.w3.org/1999/xlink" viewBox="0 0 100 150"><defs><style>.a{fill:none;}.b{fill:#752125;}.c,.j,.n{fill:#eb3b56;}.d{fill:#e5284c;}.e{fill:#d31341;}.f{opacity:0.8;}.g{fill:#ff83a1;}.h{fill:#f74668;}.i,.o{fill:#e6e6e6;}.j{opacity:0.5;}.k,.m{fill:#fff;}.k{opacity:0.1;}.l{clip-path:url(#a);}.m{opacity:0.08;}.n{font-size:13px;}.n,.o{font-family:MyriadPro-Regular, Myriad Pro;}.o{font-size:14px;}</style><clipPath id="a"><path class="a" d="M214,1319.382l-6.077-7.253L202,1319.324l5,6.171v115.642a.994.994,0,0,0,.992.992h.016a.994.994,0,0,0,.992-.992V1325.349Z"/></clipPath></defs><g transform="translate(-200 -1300)"><path class="b" d="M233.844,1426.552c6.382,3.924,2.708,10.189-2.806,15.637-4,3.956-10.69,6.594-12.642,5.062-2.566-2.013-1.854-8.549.824-15.12C222.145,1424.952,227.494,1422.648,233.844,1426.552Z"/><path class="c" d="M224,1445.422c0,2.728-2.91,3.64-6.5,3.64s-6.5.648-6.5-2.08,5.25-7.8,8.84-7.8S224,1442.694,224,1445.422Z"/><path class="b" d="M266.156,1426.552c-6.382,3.924-2.708,10.189,2.806,15.637,4,3.956,10.69,6.594,12.642,5.062,2.566-2.013,1.854-8.549-.824-15.12C277.855,1424.952,272.506,1422.648,266.156,1426.552Z"/><path class="c" d="M276,1445.422c0,2.728,2.91,3.64,6.5,3.64s6.5.648,6.5-2.08-5.25-7.8-8.84-7.8S276,1442.694,276,1445.422Z"/><path class="d" d="M250,1447.259c6.687-3.076,45-21.735,45-45.259v-57H205v57C205,1425.524,243.312,1444.183,250,1447.259Z"/><path class="e" d="M292.5,1402c0,18.925-29.013,36.284-42.5,42.524-13.494-6.228-42.5-23.561-42.5-42.524v-57h-5v57c0,27.614,47.5,48,47.5,48h0s47.5-20.386,47.5-48v-57h-5Z"/><path class="c" d="M221.7,1339.066c-2.507-2.929-2.366-7.518-.557-9.066"/><path class="c" d="M278.1,1339.066c2.507-2.929,2.366-7.518.557-9.066"/><path class="c" d="M278.814,1330.608C280.009,1344.8,265.9,1360,249.965,1360s-28.85-12.162-28.85-29.392c0-.2,28.65-7.094,28.85-7.094C251.159,1323.514,278.8,1330.406,278.814,1330.608Z"/><path class="d" d="M249.551,1301.5,215,1326.3l34.551,25.2,35.449-25Z"/><g class="f"><path class="g" d="M249.561,1303.955,281.53,1326.5l-31.959,22.539-31.159-22.725,31.149-22.359m-.01-2.455L215,1326.3l34.551,25.2,35.449-25-35.449-25Z"/></g><path class="h" d="M250,1341.554c-10.949,0-20.971-2.6-28.732-6.921,0,18.07,28.732,25.164,28.732,25.164s28.732-8.108,28.732-25.164C270.971,1338.949,260.949,1341.554,250,1341.554Z"/><path class="i" d="M250,1334.459l-7.971-31.657a2.4,2.4,0,0,1,2.52-2.8h10.9a2.4,2.4,0,0,1,2.52,2.8Z"/><path class="c" d="M272.166,1342.139q.144-1.07.286-2.139a2.172,2.172,0,0,1,.413-1.164c.5-.622,1.477-1.01,1.881-.4.371.565.168,1.5.128,2.139a10.977,10.977,0,0,1-1.278,4.372,1.466,1.466,0,0,1-.419.539,1.443,1.443,0,0,1-.885.276c-.507-.033-.557-.4-.517-.7Q271.97,1343.6,272.166,1342.139Z"/><path class="c" d="M265.443,1345.583l.178-2.758a2.775,2.775,0,0,1,.4-1.485c.532-.776,1.645-1.218,2.159-.4a5.556,5.556,0,0,1,.3,2.785,14.394,14.394,0,0,1-1.171,5.593,1.624,1.624,0,0,1-.449.673,1.42,1.42,0,0,1-1.008.3c-.593-.074-.678-.554-.653-.939Q265.321,1347.47,265.443,1345.583Z"/><path class="c" d="M258.834,1348.442l.273-3.415a3.737,3.737,0,0,1,.469-1.815c.6-.922,1.805-1.378,2.334-.313.486.98.269,2.452.244,3.489a19.727,19.727,0,0,1-1.423,6.86,1.926,1.926,0,0,1-.5.8,1.333,1.333,0,0,1-1.094.293c-.635-.142-.712-.746-.675-1.222Q258.647,1350.781,258.834,1348.442Z"/><path class="c" d="M252.126,1350.3q.02-1.926.038-3.851a4.24,4.24,0,0,1,.369-2.055c.573-1.053,1.844-1.6,2.494-.414.6,1.09.474,2.752.526,3.92a22.638,22.638,0,0,1-1.02,7.76,2.066,2.066,0,0,1-.481.914,1.353,1.353,0,0,1-1.158.358c-.695-.143-.824-.821-.819-1.358Z"/><path class="c" d="M227.834,1342.139q-.144-1.07-.286-2.139a2.171,2.171,0,0,0-.413-1.164c-.5-.622-1.477-1.01-1.881-.4-.371.565-.168,1.5-.128,2.139a10.976,10.976,0,0,0,1.278,4.372,1.466,1.466,0,0,0,.419.539,1.443,1.443,0,0,0,.885.276c.507-.033.557-.4.517-.7Q228.03,1343.6,227.834,1342.139Z"/><path class="c" d="M234.641,1345.583l-.178-2.758a2.784,2.784,0,0,0-.4-1.485c-.532-.776-1.646-1.218-2.159-.4a5.556,5.556,0,0,0-.3,2.785,14.376,14.376,0,0,0,1.171,5.593,1.6,1.6,0,0,0,.449.673,1.418,1.418,0,0,0,1.008.3c.593-.074.678-.554.653-.939Q234.763,1347.47,234.641,1345.583Z"/><path class="c" d="M241.333,1348.442q-.135-1.709-.272-3.415a3.737,3.737,0,0,0-.469-1.815c-.6-.922-1.806-1.378-2.335-.313-.486.98-.268,2.452-.244,3.489a19.75,19.75,0,0,0,1.423,6.86,1.919,1.919,0,0,0,.5.8,1.331,1.331,0,0,0,1.093.293c.635-.142.713-.746.675-1.222Q241.52,1350.781,241.333,1348.442Z"/><path class="c" d="M248.125,1350.3q-.02-1.926-.038-3.851a4.24,4.24,0,0,0-.369-2.055c-.573-1.053-1.844-1.6-2.494-.414-.6,1.09-.474,2.752-.526,3.92a22.638,22.638,0,0,0,1.02,7.76,2.066,2.066,0,0,0,.481.914,1.353,1.353,0,0,0,1.158.358c.7-.143.824-.821.819-1.358Z"/><path class="j" d="M250,1338.514a109.994,109.994,0,0,1-28.055-3.51,63.358,63.358,0,0,0,56.11,0A109.994,109.994,0,0,1,250,1338.514Z"/><path class="i" d="M249.936,1391.5l-4.9,5.952,4.9,6.048,5.027-6Z"/><path class="i" d="M249.936,1365l-4.9,5.952,4.9,6.048,5.027-6Z"/><path class="i" d="M249.936,1418l-4.9,5.952,4.9,6.048,5.027-6Z"/><path class="i" d="M281.949,1367.165l-3.949,4.8,3.949,4.874L286,1372Z"/><path class="k" d="M244.549,1300a2.4,2.4,0,0,0-2.52,2.8l.874,3.47L215,1326.3l5.718,4.17c-1.384,1.862-1.309,5.918.982,8.6l-.06-.976a17.431,17.431,0,0,0,2.226,5.481c.222.484.454.962.7,1.429H202.5v57c0,11.215,7.835,21.238,17.142,29.188-.144.307-.289.614-.422.943a33.93,33.93,0,0,0-2.221,7.861c-3.01,1.541-6,4.931-6,6.99,0,2.728,2.91,2.08,6.5,2.08,2.843,0,5.254-.576,6.136-2.17a22.179,22.179,0,0,0,7.4-4.7q.792-.781,1.525-1.583A139.8,139.8,0,0,0,250,1450V1300Z"/><g class="l"><rect class="i" width="2" height="126" rx="0.992" transform="translate(207 1316.129)"/><path class="c" d="M207.923,1312.129,202,1319.324l5.923,7.31,6.077-7.253Z"/><rect class="m" width="6" height="130" transform="translate(202 1312.129)"/></g><path class="c" d="M298.565,1376.588c.915,1.685,2.086,4.268.995,6.134-1.332,2.289-5.444,2.589-7.284.792,1.471-1.7.545-4.83-1.53-6.172a18.368,18.368,0,0,0,3.268-2.973c.637-.632,1.209-1.3,2.15-.91C297.244,1373.9,298.02,1375.583,298.565,1376.588Z"/><path class="c" d="M297.526,1382.88a3.535,3.535,0,0,1-1.641,1.618,3.188,3.188,0,0,1-1.074.208,6.894,6.894,0,0,1-1.829-.26,4.7,4.7,0,0,1-1.188-.437,3.614,3.614,0,0,1-1.584-2.066,7.848,7.848,0,0,1,.356-4.979c.684-1.909,1.888-5.036,4.589-3.644C298.624,1375.1,299.123,1380.052,297.526,1382.88Z"/><text class="n" transform="translate(250 1313.522)"><tspan x="-3.335" y="0">3</tspan></text><text class="o" transform="translate(282 1364.109)"><tspan x="-3.591" y="0">3</tspan></text><path class="c" d="M201.435,1376.588c-.915,1.685-2.086,4.268-.995,6.134,1.332,2.289,5.444,2.589,7.284.792-1.471-1.7-.545-4.83,1.53-6.172a18.369,18.369,0,0,1-3.268-2.973c-.637-.632-1.209-1.3-2.15-.91C202.756,1373.9,201.98,1375.583,201.435,1376.588Z"/><path class="c" d="M206.092,1381.2a2.285,2.285,0,0,0,.181,1.37,1.861,1.861,0,0,0,.4.49,3.693,3.693,0,0,0,.894.541,2.435,2.435,0,0,0,.67.224,1.89,1.89,0,0,0,1.392-.411,4.759,4.759,0,0,0,1.514-2.51c.339-1.161.858-3.093-.8-3.41C208.22,1377.088,206.338,1379.273,206.092,1381.2Z"/></g></svg>