<svg xmlns="http://www.w3.org/2000/svg" xmlns:xlink="http://www.w3.org/1999/xlink" viewBox="0 0 100 150"><defs><style>.a{fill:none;}.b,.d,.h{fill:#27123e;}.c,.j{fill:#fff;}.c{opacity:0.1;}.d,.i{opacity:0.2;}.e,.g,.n,.q{fill:#15b0bf;}.e{opacity:0.3;}.f,.i{fill:#3b2860;}.h{font-size:13px;}.h,.n{font-family:MyriadPro-Regular, Myriad Pro;}.i{stroke-linecap:round;stroke-miterlimit:10;}.k{fill:#3c2a54;}.l{fill:#050505;}.m{fill:#1f191a;}.n{font-size:14px;}.o{clip-path:url(#a);}.p,.q{stroke:none;}</style><clipPath id="a"><path class="a" d="M1212.666,1017.133c-1.37-1.495-2.962-2.952-3.629-3.718-.5-.574-.854-1.01-1-1.192v-.094l-.037.047-.037-.047v.094c-.146.182-.5.618-1,1.192-.667.766-2.259,2.223-3.629,3.718a4.541,4.541,0,0,0-1.222,4.227,3.037,3.037,0,0,0,3.592,2.151,2.241,2.241,0,0,0,1.3-.623v.588a4.54,4.54,0,0,1-1.025,1.932H1207v115.721a1,1,0,0,0,2,0V1025.408h.925a4.423,4.423,0,0,1-.925-1.917v-.6a2.229,2.229,0,0,0,1.3.623,3.037,3.037,0,0,0,3.592-2.151A4.541,4.541,0,0,0,1212.666,1017.133Z"/></clipPath></defs><g transform="translate(-1200 -1000)"><path class="b" d="M1233.844,1126.552c6.382,3.924,2.708,10.189-2.806,15.637-4,3.956-10.69,6.594-12.642,5.062-2.566-2.013-1.854-8.549.824-15.12C1222.145,1124.952,1227.494,1122.648,1233.844,1126.552Z"/><path class="b" d="M1224,1145.422c0,2.728-2.91,3.64-6.5,3.64s-6.5.648-6.5-2.08,5.25-7.8,8.84-7.8S1224,1142.694,1224,1145.422Z"/><path class="b" d="M1266.156,1126.552c-6.382,3.924-2.708,10.189,2.806,15.637,4,3.956,10.69,6.594,12.642,5.062,2.566-2.013,1.854-8.549-.824-15.12C1277.855,1124.952,1272.506,1122.648,1266.156,1126.552Z"/><path class="b" d="M1276,1145.422c0,2.728,2.91,3.64,6.5,3.64s6.5.648,6.5-2.08-5.25-7.8-8.84-7.8S1276,1142.694,1276,1145.422Z"/><path class="b" d="M1295,1045h-90v57c0,23.524,38.313,42.183,45,45.259,6.688-3.076,45-21.735,45-45.259Z"/><path class="b" d="M1292.5,1102c0,18.925-29.013,36.284-42.5,42.524-13.494-6.228-42.5-23.561-42.5-42.524v-57h-5v57c0,27.614,47.5,48,47.5,48h0s47.5-20.386,47.5-48v-57h-5Z"/><path class="c" d="M1207.5,1045h-5v57c0,27.614,47.5,48,47.5,48V1045Z"/><path class="b" d="M1221.7,1039.066c-2.507-2.929-2.366-7.518-.557-9.066"/><path class="b" d="M1278.1,1039.066c2.507-2.929,2.366-7.518.557-9.066"/><path class="d" d="M1278.814,1030.608c1.2,14.189-12.916,29.392-28.849,29.392s-28.85-12.162-28.85-29.392c0-.2,28.65-7.094,28.85-7.094C1251.159,1023.514,1278.8,1030.406,1278.814,1030.608Z"/><path class="b" d="M1273.332,1018.085c-6.852-5.4-14.814-10.67-18.147-13.437-2.5-2.075-4.271-3.652-5-4.311V1000s-.065.061-.185.169c-.12-.108-.185-.169-.185-.169v.337c-.729.659-2.5,2.236-5,4.311-3.333,2.767-11.295,8.036-18.146,13.437s-7.407,10.8-6.111,15.282,7.777,19.7,17.961,18.773a13.061,13.061,0,0,0,7.24-2.78c-1.146,6.34-5.884,4.64-5.884,4.64h19.752c-3.606-2.912-4.883-2.038-5.342-4.6a13.081,13.081,0,0,0,7.2,2.744c10.184.923,16.665-14.293,17.961-18.773S1280.183,1023.487,1273.332,1018.085Z"/><path class="e" d="M1249.992,1002.858l.012.01.008-.007c.951.837,2.272,1.979,3.9,3.326s4.213,3.2,7.225,5.357c3.443,2.466,7.345,5.261,10.962,8.112,5.129,4.044,6.854,8.225,5.427,13.155-1.061,3.669-6.745,17.37-15.155,17.37-.233,0-.47-.011-.7-.033a11.184,11.184,0,0,1-6.124-2.311l-4.162-3.341.941,5.253a5.18,5.18,0,0,0,.9,2.251h-6.134a11.638,11.638,0,0,0,.642-2.285l.958-5.3-4.186,3.4a11.181,11.181,0,0,1-6.16,2.342c-.235.021-.472.032-.7.032-8.41,0-14.094-13.7-15.155-17.37-1.427-4.93.3-9.111,5.428-13.155,3.617-2.852,7.52-5.647,10.963-8.113,3.012-2.157,5.612-4.019,7.223-5.356s2.948-2.492,3.9-3.329m.193-2.858s-.065.061-.185.169c-.12-.108-.185-.169-.185-.169v.337c-.729.659-2.5,2.236-5,4.311-3.333,2.767-11.295,8.036-18.146,13.437s-7.407,10.8-6.111,15.282c1.258,4.348,7.4,18.814,17.076,18.814q.438,0,.885-.041a13.061,13.061,0,0,0,7.24-2.78c-.546,3.02-1.907,4.216-3.182,4.64h17.05c-3.606-2.912-4.883-2.038-5.342-4.6a13.081,13.081,0,0,0,7.2,2.744c.3.027.594.041.885.041,9.675,0,15.818-14.465,17.076-18.814,1.3-4.479.741-9.88-6.11-15.282s-14.814-10.67-18.147-13.437c-2.5-2.075-4.271-3.652-5-4.311V1000Zm-7.608,54h-2.7a4.49,4.49,0,0,0,1.378.207,4.212,4.212,0,0,0,1.324-.207Z"/><path class="f" d="M1250,1041.554c-10.949,0-20.971-2.6-28.732-6.921,0,18.07,28.732,25.164,28.732,25.164s28.732-8.108,28.732-25.164C1270.971,1038.949,1260.949,1041.554,1250,1041.554Z"/><path class="b" d="M1272.166,1042.139q.144-1.07.286-2.139a2.172,2.172,0,0,1,.413-1.164c.5-.622,1.477-1.01,1.881-.4.371.565.168,1.5.128,2.139a10.977,10.977,0,0,1-1.278,4.372,1.466,1.466,0,0,1-.419.539,1.443,1.443,0,0,1-.885.276c-.507-.033-.557-.4-.517-.7Q1271.97,1043.6,1272.166,1042.139Z"/><path class="b" d="M1265.443,1045.583l.178-2.758a2.775,2.775,0,0,1,.4-1.485c.532-.776,1.645-1.218,2.159-.4a5.556,5.556,0,0,1,.3,2.785,14.393,14.393,0,0,1-1.171,5.593,1.624,1.624,0,0,1-.449.673,1.42,1.42,0,0,1-1.008.3c-.593-.074-.678-.554-.653-.939Q1265.321,1047.47,1265.443,1045.583Z"/><path class="b" d="M1258.834,1048.442l.273-3.415a3.737,3.737,0,0,1,.469-1.815c.595-.922,1.8-1.378,2.334-.313.486.98.269,2.452.244,3.489a19.728,19.728,0,0,1-1.423,6.86,1.925,1.925,0,0,1-.5.8,1.333,1.333,0,0,1-1.094.293c-.635-.142-.712-.746-.675-1.222Q1258.647,1050.781,1258.834,1048.442Z"/><path class="b" d="M1252.126,1050.3q.02-1.926.038-3.851a4.242,4.242,0,0,1,.369-2.055c.573-1.053,1.844-1.6,2.494-.414.6,1.09.474,2.752.526,3.92a22.637,22.637,0,0,1-1.02,7.76,2.067,2.067,0,0,1-.481.914,1.353,1.353,0,0,1-1.158.358c-.7-.143-.824-.821-.819-1.358Z"/><path class="b" d="M1227.834,1042.139q-.144-1.07-.286-2.139a2.172,2.172,0,0,0-.413-1.164c-.5-.622-1.477-1.01-1.881-.4-.371.565-.168,1.5-.128,2.139a10.977,10.977,0,0,0,1.278,4.372,1.466,1.466,0,0,0,.419.539,1.443,1.443,0,0,0,.885.276c.507-.033.557-.4.517-.7Q1228.03,1043.6,1227.834,1042.139Z"/><path class="b" d="M1234.641,1045.583l-.178-2.758a2.784,2.784,0,0,0-.4-1.485c-.532-.776-1.646-1.218-2.159-.4a5.557,5.557,0,0,0-.3,2.785,14.375,14.375,0,0,0,1.171,5.593,1.605,1.605,0,0,0,.449.673,1.418,1.418,0,0,0,1.008.3c.593-.074.678-.554.653-.939Q1234.763,1047.47,1234.641,1045.583Z"/><path class="b" d="M1241.333,1048.442q-.135-1.709-.272-3.415a3.738,3.738,0,0,0-.469-1.815c-.6-.922-1.806-1.378-2.335-.313-.486.98-.268,2.452-.244,3.489a19.75,19.75,0,0,0,1.423,6.86,1.918,1.918,0,0,0,.5.8,1.331,1.331,0,0,0,1.093.293c.635-.142.713-.746.675-1.222Q1241.52,1050.781,1241.333,1048.442Z"/><path class="b" d="M1248.125,1050.3q-.019-1.926-.038-3.851a4.24,4.24,0,0,0-.369-2.055c-.573-1.053-1.844-1.6-2.494-.414-.6,1.09-.474,2.752-.526,3.92a22.637,22.637,0,0,0,1.02,7.76,2.067,2.067,0,0,0,.481.914,1.354,1.354,0,0,0,1.158.358c.695-.143.824-.821.819-1.358Z"/><path class="g" d="M1250,1034.459l-7.971-31.657a2.4,2.4,0,0,1,2.52-2.8h10.9a2.4,2.4,0,0,1,2.52,2.8Z"/><text class="h" transform="translate(1250 1013.522)"><tspan x="-3.523" y="0">K</tspan></text><g class="i"><path class="p" d="M 1250 1040.553955078125 C 1244.8779296875 1040.553955078125 1239.861694335938 1039.977783203125 1235.090454101563 1038.841430664063 C 1234.35400390625 1038.666015625 1233.625854492188 1038.47802734375 1232.907104492188 1038.277465820313 C 1238.425659179688 1039.099609375 1244.141357421875 1039.514038085938 1250 1039.514038085938 C 1255.858642578125 1039.514038085938 1261.574340820313 1039.099609375 1267.092895507813 1038.277465820313 C 1266.374145507813 1038.47802734375 1265.64599609375 1038.666015625 1264.909545898438 1038.841430664063 C 1260.138305664063 1039.977783203125 1255.1220703125 1040.553955078125 1250 1040.553955078125 Z"/><path class="q" d="M 1250 1041.553955078125 C 1239.366943359375 1041.553955078125 1229.608032226563 1039.098022460938 1221.944946289063 1035.004028320313 C 1230.371948242188 1037.243041992188 1239.900024414063 1038.514038085938 1250 1038.514038085938 C 1260.099975585938 1038.514038085938 1269.628051757813 1037.243041992188 1278.055053710938 1035.004028320313 C 1270.391967773438 1039.098022460938 1260.633056640625 1041.553955078125 1250 1041.553955078125 Z"/></g><rect class="g" width="10.869" height="15.617" transform="translate(1241.801 1075.811)"/><path class="g" d="M1260.106,1127v-23.209c0-7.993-6.178-14.532-13.729-14.532h0c-7.551,0-13.729,6.539-13.729,14.532V1127Z"/><path class="j" d="M1239,1090.62l-10,6.185,10.671,10.387,10.388-6.129Z"/><path class="k" d="M1239.67,1107.625a.652.652,0,0,1-.452-.167l-10.671-10.387a.367.367,0,0,1,.09-.6l10-6.185a.721.721,0,0,1,.422-.095.639.639,0,0,1,.386.16l11.059,10.443a.364.364,0,0,1,.122.322.422.422,0,0,1-.217.292l-10.388,6.129A.7.7,0,0,1,1239.67,1107.625Zm-9.876-10.753,9.976,9.711,9.478-5.592-10.334-9.759Z"/><path class="l" d="M1231.233,1103.348l-.005,0-.027,0,0,0Z"/><path class="m" d="M1236.886,1106.917l-.175-.357.165.359Z"/><path class="k" d="M1243.821,1101.318a.378.378,0,0,1,.433-.232c.2.029.331.18.291.337a.379.379,0,0,1-.433.232C1243.912,1101.626,1243.782,1101.476,1243.821,1101.318Z"/><path class="k" d="M1243.519,1101.668a.09.09,0,0,1,.1-.055c.047.007.077.043.068.08a.089.089,0,0,1-.1.054C1243.54,1101.74,1243.509,1101.7,1243.519,1101.668Z"/><path class="k" d="M1243.709,1100.908a.091.091,0,0,1,.1-.055c.047.007.078.043.068.08a.089.089,0,0,1-.1.054C1243.731,1100.98,1243.7,1100.945,1243.709,1100.908Z"/><path class="k" d="M1244.678,1101.078a.091.091,0,0,1,.1-.055c.047.007.078.043.068.079a.088.088,0,0,1-.1.055C1244.7,1101.15,1244.669,1101.115,1244.678,1101.078Z"/><path class="k" d="M1244.495,1101.809a.089.089,0,0,1,.1-.055c.047.007.077.042.068.079a.089.089,0,0,1-.1.055C1244.516,1101.881,1244.486,1101.846,1244.495,1101.809Z"/><path class="k" d="M1244.241,1101.141c.3-.273.125-.5.125-.5A.373.373,0,0,0,1244.241,1101.141Z"/><path class="k" d="M1244,1102.115c.3-.274.124-.5.124-.5A.373.373,0,0,0,1244,1102.115Z"/><path class="k" d="M1244.482,1101.429a.651.651,0,0,0,.634.088A.625.625,0,0,0,1244.482,1101.429Z"/><path class="k" d="M1243.241,1101.259a.651.651,0,0,0,.635.087A.628.628,0,0,0,1243.241,1101.259Z"/><ellipse class="k" cx="0.369" cy="0.289" rx="0.369" ry="0.289" transform="matrix(1, -0.027, 0.027, 1, 1239.15, 1098.498)"/><path class="k" d="M1238.863,1099.074a.087.087,0,0,1,.1-.054c.047.007.078.042.069.079a.091.091,0,0,1-.1.055C1238.884,1099.147,1238.853,1099.111,1238.863,1099.074Z"/><path class="k" d="M1239.053,1098.314a.089.089,0,0,1,.1-.054c.047.006.078.042.068.079a.088.088,0,0,1-.1.054C1239.075,1098.387,1239.044,1098.351,1239.053,1098.314Z"/><path class="k" d="M1240.022,1098.484a.089.089,0,0,1,.1-.054c.047.006.078.042.068.079a.089.089,0,0,1-.1.054A.07.07,0,0,1,1240.022,1098.484Z"/><path class="k" d="M1239.839,1099.215a.089.089,0,0,1,.1-.054.069.069,0,0,1,.068.079.089.089,0,0,1-.1.054A.069.069,0,0,1,1239.839,1099.215Z"/><path class="k" d="M1239.585,1098.548c.3-.274.124-.5.124-.5A.373.373,0,0,0,1239.585,1098.548Z"/><path class="k" d="M1239.34,1099.521c.305-.273.125-.5.125-.5A.374.374,0,0,0,1239.34,1099.521Z"/><path class="k" d="M1239.826,1098.836a.652.652,0,0,0,.634.087A.623.623,0,0,0,1239.826,1098.836Z"/><path class="k" d="M1238.585,1098.665a.653.653,0,0,0,.635.088A.627.627,0,0,0,1238.585,1098.665Z"/><ellipse class="k" cx="0.369" cy="0.289" rx="0.369" ry="0.289" transform="matrix(1, -0.027, 0.027, 1, 1231.339, 1096.635)"/><path class="k" d="M1231.051,1097.212a.089.089,0,0,1,.1-.055c.047.007.077.042.068.079a.09.09,0,0,1-.1.055C1231.072,1097.284,1231.042,1097.248,1231.051,1097.212Z"/><path class="k" d="M1231.242,1096.451a.089.089,0,0,1,.1-.054c.046.007.077.042.068.079a.091.091,0,0,1-.1.055C1231.263,1096.524,1231.232,1096.488,1231.242,1096.451Z"/><path class="k" d="M1232.211,1096.622a.088.088,0,0,1,.1-.055c.047.007.078.042.069.079a.09.09,0,0,1-.1.055C1232.232,1096.694,1232.2,1096.658,1232.211,1096.622Z"/><path class="k" d="M1232.027,1097.352a.089.089,0,0,1,.1-.054c.047.007.078.042.068.079a.088.088,0,0,1-.1.054C1232.049,1097.425,1232.018,1097.389,1232.027,1097.352Z"/><path class="k" d="M1231.773,1096.685c.3-.274.125-.5.125-.5A.373.373,0,0,0,1231.773,1096.685Z"/><path class="k" d="M1231.529,1097.658c.3-.273.125-.5.125-.5A.373.373,0,0,0,1231.529,1097.658Z"/><path class="k" d="M1232.014,1096.973a.651.651,0,0,0,.635.087A.628.628,0,0,0,1232.014,1096.973Z"/><path class="k" d="M1230.774,1096.8a.652.652,0,0,0,.634.087A.624.624,0,0,0,1230.774,1096.8Z"/><path class="k" d="M1244.255,1098.726a.371.371,0,0,1,.426-.228c.2.028.324.176.286.331a.374.374,0,0,1-.427.228C1244.344,1099.029,1244.216,1098.881,1244.255,1098.726Z"/><path class="k" d="M1243.957,1099.07a.088.088,0,0,1,.1-.054c.046.007.076.042.067.078a.089.089,0,0,1-.1.054C1243.978,1099.141,1243.948,1099.106,1243.957,1099.07Z"/><path class="k" d="M1244.145,1098.322a.087.087,0,0,1,.1-.053c.046.006.076.041.067.078a.087.087,0,0,1-.1.053C1244.166,1098.394,1244.136,1098.359,1244.145,1098.322Z"/><path class="k" d="M1245.1,1098.49a.087.087,0,0,1,.1-.054c.046.006.076.041.067.078a.087.087,0,0,1-.1.053C1245.119,1098.561,1245.089,1098.526,1245.1,1098.49Z"/><path class="k" d="M1244.917,1099.208a.088.088,0,0,1,.1-.053c.046.006.076.041.067.077a.087.087,0,0,1-.1.054C1244.938,1099.279,1244.908,1099.245,1244.917,1099.208Z"/><path class="k" d="M1244.667,1098.552c.3-.269.123-.49.123-.49A.368.368,0,0,0,1244.667,1098.552Z"/><path class="k" d="M1244.427,1099.509c.3-.269.123-.49.123-.49A.368.368,0,0,0,1244.427,1099.509Z"/><path class="k" d="M1244.905,1098.835a.639.639,0,0,0,.623.086A.614.614,0,0,0,1244.905,1098.835Z"/><path class="k" d="M1243.685,1098.668a.642.642,0,0,0,.624.085A.615.615,0,0,0,1243.685,1098.668Z"/><ellipse class="k" cx="0.363" cy="0.284" rx="0.363" ry="0.284" transform="translate(1237.444 1096.004) rotate(-1.539)"/><path class="k" d="M1237.161,1096.571a.089.089,0,0,1,.1-.054c.046.007.076.042.067.078a.088.088,0,0,1-.1.054C1237.182,1096.642,1237.152,1096.607,1237.161,1096.571Z"/><path class="k" d="M1237.349,1095.824a.087.087,0,0,1,.1-.054c.046.007.076.042.067.078a.089.089,0,0,1-.1.054C1237.37,1095.9,1237.34,1095.86,1237.349,1095.824Z"/><ellipse class="k" cx="0.085" cy="0.067" rx="0.085" ry="0.067" transform="translate(1238.298 1095.938) rotate(-1.515)"/><ellipse class="k" cx="0.085" cy="0.067" rx="0.085" ry="0.067" transform="translate(1238.118 1096.657) rotate(-1.515)"/><path class="k" d="M1237.871,1096.053c.3-.269.123-.49.123-.49A.368.368,0,0,0,1237.871,1096.053Z"/><path class="k" d="M1237.631,1097.01c.3-.269.123-.489.123-.489A.367.367,0,0,0,1237.631,1097.01Z"/><path class="k" d="M1238.108,1096.336a.641.641,0,0,0,.624.086A.615.615,0,0,0,1238.108,1096.336Z"/><path class="k" d="M1236.889,1096.169a.641.641,0,0,0,.624.086A.616.616,0,0,0,1236.889,1096.169Z"/><path class="k" d="M1242.761,1096.2a.374.374,0,0,1,.426-.229c.2.029.325.177.286.332a.374.374,0,0,1-.426.228C1242.85,1096.5,1242.722,1096.354,1242.761,1096.2Z"/><path class="k" d="M1242.464,1096.544a.087.087,0,0,1,.1-.054c.046.007.076.041.067.078a.087.087,0,0,1-.1.053C1242.485,1096.615,1242.455,1096.58,1242.464,1096.544Z"/><path class="k" d="M1242.651,1095.8a.088.088,0,0,1,.1-.053c.046.006.076.041.067.077a.087.087,0,0,1-.1.054C1242.672,1095.867,1242.642,1095.833,1242.651,1095.8Z"/><path class="k" d="M1243.6,1095.963a.087.087,0,0,1,.1-.053c.047.006.077.041.067.077a.086.086,0,0,1-.1.054C1243.625,1096.034,1243.595,1096,1243.6,1095.963Z"/><path class="k" d="M1243.424,1096.682a.089.089,0,0,1,.1-.054c.046.007.076.042.067.078a.088.088,0,0,1-.1.054C1243.445,1096.753,1243.415,1096.718,1243.424,1096.682Z"/><path class="k" d="M1243.174,1096.026c.3-.269.123-.49.123-.49A.368.368,0,0,0,1243.174,1096.026Z"/><path class="k" d="M1242.934,1096.983c.3-.269.123-.49.123-.49A.368.368,0,0,0,1242.934,1096.983Z"/><path class="k" d="M1243.411,1096.309a.641.641,0,0,0,.624.086A.617.617,0,0,0,1243.411,1096.309Z"/><path class="k" d="M1242.191,1096.141a.64.64,0,0,0,.624.086A.616.616,0,0,0,1242.191,1096.141Z"/><path class="k" d="M1239.784,1093.635a.372.372,0,0,1,.426-.229c.2.029.325.177.286.331a.374.374,0,0,1-.426.229C1239.873,1093.937,1239.745,1093.789,1239.784,1093.635Z"/><path class="k" d="M1239.487,1093.978a.087.087,0,0,1,.1-.053c.046.006.076.041.067.077a.087.087,0,0,1-.1.054C1239.508,1094.05,1239.477,1094.015,1239.487,1093.978Z"/><path class="k" d="M1239.674,1093.231a.089.089,0,0,1,.1-.054c.046.007.076.042.067.078a.089.089,0,0,1-.1.054C1239.695,1093.3,1239.665,1093.267,1239.674,1093.231Z"/><path class="k" d="M1240.627,1093.4a.087.087,0,0,1,.1-.053c.046.006.076.041.067.077a.087.087,0,0,1-.1.054C1240.648,1093.469,1240.618,1093.435,1240.627,1093.4Z"/><path class="k" d="M1240.447,1094.117a.089.089,0,0,1,.1-.054c.046.007.076.042.067.078a.089.089,0,0,1-.1.054C1240.468,1094.188,1240.438,1094.153,1240.447,1094.117Z"/><path class="k" d="M1240.2,1093.46c.3-.269.123-.489.123-.489A.367.367,0,0,0,1240.2,1093.46Z"/><path class="k" d="M1239.956,1094.418c.3-.269.123-.49.123-.49A.368.368,0,0,0,1239.956,1094.418Z"/><path class="k" d="M1240.434,1093.744a.639.639,0,0,0,.624.085A.615.615,0,0,0,1240.434,1093.744Z"/><path class="k" d="M1239.214,1093.576a.64.64,0,0,0,.624.086A.616.616,0,0,0,1239.214,1093.576Z"/><path class="k" d="M1235.68,1093.958a.372.372,0,0,1,.426-.229c.2.029.324.177.286.332a.375.375,0,0,1-.427.228C1235.769,1094.261,1235.641,1094.112,1235.68,1093.958Z"/><path class="k" d="M1235.382,1094.3a.087.087,0,0,1,.1-.054c.046.007.076.041.067.078a.088.088,0,0,1-.1.053C1235.4,1094.373,1235.373,1094.338,1235.382,1094.3Z"/><path class="k" d="M1235.57,1093.554a.087.087,0,0,1,.1-.053c.046.006.076.041.067.077a.087.087,0,0,1-.1.054C1235.591,1093.625,1235.561,1093.591,1235.57,1093.554Z"/><path class="k" d="M1236.523,1093.721a.087.087,0,0,1,.1-.053c.046.006.076.041.067.078a.087.087,0,0,1-.1.053C1236.544,1093.793,1236.514,1093.758,1236.523,1093.721Z"/><path class="k" d="M1236.342,1094.44a.09.09,0,0,1,.1-.054c.046.007.076.042.067.078a.087.087,0,0,1-.1.054C1236.363,1094.511,1236.333,1094.476,1236.342,1094.44Z"/><path class="k" d="M1236.092,1093.784c.3-.269.123-.49.123-.49A.368.368,0,0,0,1236.092,1093.784Z"/><path class="k" d="M1235.852,1094.741c.3-.269.123-.49.123-.49A.368.368,0,0,0,1235.852,1094.741Z"/><path class="k" d="M1236.329,1094.067a.64.64,0,0,0,.624.086A.615.615,0,0,0,1236.329,1094.067Z"/><path class="k" d="M1235.11,1093.9a.641.641,0,0,0,.624.086A.616.616,0,0,0,1235.11,1093.9Z"/><path class="k" d="M1234.646,1098.08a.372.372,0,0,1,.426-.228c.2.028.324.176.286.331a.374.374,0,0,1-.427.228C1234.735,1098.383,1234.607,1098.235,1234.646,1098.08Z"/><path class="k" d="M1234.348,1098.424a.088.088,0,0,1,.1-.054c.046.007.076.042.067.078a.089.089,0,0,1-.1.054C1234.369,1098.495,1234.339,1098.46,1234.348,1098.424Z"/><path class="k" d="M1234.536,1097.676a.087.087,0,0,1,.1-.053c.046.006.076.041.067.078a.087.087,0,0,1-.1.053C1234.557,1097.748,1234.527,1097.713,1234.536,1097.676Z"/><path class="k" d="M1235.489,1097.844a.087.087,0,0,1,.1-.054c.046.007.076.041.067.078a.087.087,0,0,1-.1.053C1235.51,1097.915,1235.48,1097.88,1235.489,1097.844Z"/><path class="k" d="M1235.308,1098.562a.088.088,0,0,1,.1-.053c.046.006.076.041.067.077a.087.087,0,0,1-.1.054C1235.329,1098.633,1235.3,1098.6,1235.308,1098.562Z"/><path class="k" d="M1235.058,1097.906c.3-.269.123-.49.123-.49A.368.368,0,0,0,1235.058,1097.906Z"/><path class="k" d="M1234.818,1098.863c.3-.269.123-.49.123-.49A.368.368,0,0,0,1234.818,1098.863Z"/><path class="k" d="M1235.3,1098.189a.64.64,0,0,0,.624.086A.615.615,0,0,0,1235.3,1098.189Z"/><path class="k" d="M1234.076,1098.022a.642.642,0,0,0,.624.085A.615.615,0,0,0,1234.076,1098.022Z"/><path class="k" d="M1234.055,1100.436a.373.373,0,0,1,.426-.229c.2.028.325.177.286.331a.373.373,0,0,1-.426.229C1234.144,1100.738,1234.016,1100.59,1234.055,1100.436Z"/><path class="k" d="M1233.758,1100.779a.087.087,0,0,1,.1-.053c.046.006.076.041.067.077a.087.087,0,0,1-.1.054C1233.779,1100.851,1233.748,1100.816,1233.758,1100.779Z"/><path class="k" d="M1233.945,1100.032a.089.089,0,0,1,.1-.054c.046.007.076.042.067.078a.089.089,0,0,1-.1.054C1233.966,1100.1,1233.936,1100.068,1233.945,1100.032Z"/><path class="k" d="M1234.9,1100.2a.089.089,0,0,1,.1-.054c.046.007.076.042.067.078a.087.087,0,0,1-.1.054C1234.919,1100.27,1234.889,1100.235,1234.9,1100.2Z"/><path class="k" d="M1234.718,1100.918a.088.088,0,0,1,.1-.054c.046.007.076.042.067.078a.089.089,0,0,1-.1.054C1234.739,1100.989,1234.709,1100.954,1234.718,1100.918Z"/><path class="k" d="M1234.467,1100.261c.3-.269.123-.489.123-.489A.367.367,0,0,0,1234.467,1100.261Z"/><path class="k" d="M1234.227,1101.219c.3-.269.123-.49.123-.49A.368.368,0,0,0,1234.227,1101.219Z"/><path class="k" d="M1234.7,1100.545a.642.642,0,0,0,.624.085A.615.615,0,0,0,1234.7,1100.545Z"/><path class="k" d="M1233.485,1100.377a.641.641,0,0,0,.624.086A.617.617,0,0,0,1233.485,1100.377Z"/><path class="k" d="M1236.4,1102.3a.374.374,0,0,1,.426-.229c.2.029.325.177.286.332a.373.373,0,0,1-.426.228C1236.493,1102.6,1236.365,1102.454,1236.4,1102.3Z"/><path class="k" d="M1236.106,1102.644a.087.087,0,0,1,.1-.054c.046.007.076.041.067.078a.087.087,0,0,1-.1.053C1236.127,1102.715,1236.1,1102.68,1236.106,1102.644Z"/><path class="k" d="M1236.294,1101.9a.087.087,0,0,1,.1-.053c.046.006.076.041.067.077a.087.087,0,0,1-.1.054C1236.315,1101.967,1236.284,1101.933,1236.294,1101.9Z"/><path class="k" d="M1237.246,1102.063a.089.089,0,0,1,.1-.053c.046.006.076.041.067.078a.087.087,0,0,1-.1.053C1237.267,1102.135,1237.237,1102.1,1237.246,1102.063Z"/><path class="k" d="M1237.066,1102.782a.089.089,0,0,1,.1-.054c.046.007.077.042.067.078a.087.087,0,0,1-.1.054C1237.087,1102.853,1237.057,1102.818,1237.066,1102.782Z"/><path class="k" d="M1236.816,1102.126c.3-.269.123-.49.123-.49A.368.368,0,0,0,1236.816,1102.126Z"/><path class="k" d="M1236.576,1103.083c.3-.269.123-.49.123-.49A.368.368,0,0,0,1236.576,1103.083Z"/><path class="k" d="M1237.053,1102.409a.641.641,0,0,0,.624.086A.616.616,0,0,0,1237.053,1102.409Z"/><path class="k" d="M1235.833,1102.241a.641.641,0,0,0,.624.086A.616.616,0,0,0,1235.833,1102.241Z"/><path class="k" d="M1239.879,1101.276a.372.372,0,0,1,.426-.229c.2.029.325.177.286.331a.374.374,0,0,1-.427.229C1239.968,1101.579,1239.84,1101.43,1239.879,1101.276Z"/><path class="k" d="M1239.581,1101.619a.088.088,0,0,1,.1-.053c.046.006.076.041.067.078a.087.087,0,0,1-.1.053C1239.6,1101.691,1239.572,1101.656,1239.581,1101.619Z"/><path class="k" d="M1239.769,1100.872a.089.089,0,0,1,.1-.054c.046.007.076.042.067.078a.087.087,0,0,1-.1.054C1239.79,1100.943,1239.76,1100.908,1239.769,1100.872Z"/><path class="k" d="M1240.722,1101.039a.087.087,0,0,1,.1-.053c.046.006.076.041.067.077a.087.087,0,0,1-.1.054C1240.743,1101.11,1240.713,1101.076,1240.722,1101.039Z"/><path class="k" d="M1240.542,1101.758a.088.088,0,0,1,.1-.054c.046.007.076.042.067.078a.089.089,0,0,1-.1.054C1240.562,1101.829,1240.532,1101.794,1240.542,1101.758Z"/><path class="k" d="M1240.291,1101.1c.3-.269.123-.489.123-.489A.366.366,0,0,0,1240.291,1101.1Z"/><path class="k" d="M1240.051,1102.059c.3-.269.123-.49.123-.49A.368.368,0,0,0,1240.051,1102.059Z"/><path class="k" d="M1240.529,1101.385a.639.639,0,0,0,.623.086A.614.614,0,0,0,1240.529,1101.385Z"/><path class="k" d="M1239.309,1101.217a.641.641,0,0,0,.624.086A.616.616,0,0,0,1239.309,1101.217Z"/><path class="k" d="M1239.066,1104.515a.374.374,0,0,1,.426-.229c.2.028.325.177.286.331a.372.372,0,0,1-.426.229C1239.155,1104.817,1239.027,1104.669,1239.066,1104.515Z"/><path class="k" d="M1238.769,1104.858a.087.087,0,0,1,.1-.053c.046.006.076.041.067.077a.087.087,0,0,1-.1.054C1238.79,1104.93,1238.76,1104.9,1238.769,1104.858Z"/><path class="k" d="M1238.957,1104.111a.088.088,0,0,1,.1-.054c.046.007.076.042.067.078a.089.089,0,0,1-.1.054C1238.978,1104.182,1238.947,1104.147,1238.957,1104.111Z"/><path class="k" d="M1239.909,1104.278a.089.089,0,0,1,.1-.054c.047.007.077.042.068.078a.087.087,0,0,1-.1.054C1239.93,1104.349,1239.9,1104.314,1239.909,1104.278Z"/><path class="k" d="M1239.729,1105a.088.088,0,0,1,.1-.054c.046.007.076.042.067.078a.089.089,0,0,1-.1.054C1239.75,1105.068,1239.72,1105.033,1239.729,1105Z"/><path class="k" d="M1239.479,1104.34c.3-.269.123-.489.123-.489A.367.367,0,0,0,1239.479,1104.34Z"/><path class="k" d="M1239.239,1105.3c.3-.269.123-.49.123-.49A.368.368,0,0,0,1239.239,1105.3Z"/><path class="k" d="M1239.716,1104.624a.639.639,0,0,0,.624.085A.615.615,0,0,0,1239.716,1104.624Z"/><path class="k" d="M1238.5,1104.456a.64.64,0,0,0,.624.086A.616.616,0,0,0,1238.5,1104.456Z"/><path class="k" d="M1240.485,1107.337l15.045-17.644,16.97,17.94-16.4,17.632Z"/><path class="j" d="M1256.505,1106.308q-.654-.66-1.3-1.319a.217.217,0,0,1-.041-.068,3.934,3.934,0,0,1,.655-4.379,4.1,4.1,0,0,1,2.491-1.349,4.906,4.906,0,0,1,2.518.219,2.538,2.538,0,0,1,1.654,1.578,3.387,3.387,0,0,1,.065,1.787,6.279,6.279,0,0,1-.628,1.737.211.211,0,0,1-.14.087,14.746,14.746,0,0,0-3.932,1.1C1257.4,1105.893,1256.959,1106.1,1256.505,1106.308Z"/><path class="j" d="M1255.768,1106.722c-.268.168-.529.328-.784.494a11.378,11.378,0,0,0-3.208,2.944.131.131,0,0,1-.086.051,10.5,10.5,0,0,1-3.232-.175,4.331,4.331,0,0,1-1.76-.778,2.437,2.437,0,0,1-.764-.985,2.282,2.282,0,0,1-.126-1.71,2.628,2.628,0,0,1,1.533-1.424,8.319,8.319,0,0,1,4.413-.465,10.329,10.329,0,0,1,2.593.684.587.587,0,0,1,.191.124c.384.382.762.767,1.143,1.151Z"/><path class="j" d="M1255.5,1113.124a11.617,11.617,0,0,1,3.283-2.82,16.046,16.046,0,0,1,5.378-2.117c-.269.733-2.05,2.317-3.6,3.188A14.168,14.168,0,0,1,1255.5,1113.124Z"/><path class="j" d="M1264.1,1107.412a16.445,16.445,0,0,0-9.547,5.426l-.483-.488c-.221-.223-.22-.223-.058-.455a9.553,9.553,0,0,1,2.084-2.089,15.742,15.742,0,0,1,2.445-1.527,15.444,15.444,0,0,1,4.514-1.529.513.513,0,0,1,.568.172A6.706,6.706,0,0,0,1264.1,1107.412Z"/><path class="j" d="M1253.179,1111.448c-.214-.216-.442-.443-.663-.675-.021-.023,0-.08.019-.113a7.28,7.28,0,0,1,1.139-1.355,14.957,14.957,0,0,1,3.638-2.491,16.385,16.385,0,0,1,2.839-1.114,11.617,11.617,0,0,1,1.759-.367.255.255,0,0,1,.166.038c.223.214.435.434.65.651A16.388,16.388,0,0,0,1253.179,1111.448Z"/><path class="j" d="M1254.013,1104.418l-1.692-.392a.3.3,0,0,1-.077-.026,7.639,7.639,0,0,1-1.609-1.071,1.536,1.536,0,0,1-.483-1.579c.1-.452.536-.691,1.141-.635a2.609,2.609,0,0,1,1.992.975c.193.27.36.551.533.829a.277.277,0,0,1,.043.165,4.785,4.785,0,0,0,.152,1.719C1254.016,1104.413,1254.013,1104.423,1254.013,1104.418Z"/><path class="j" d="M1250.993,1099.2l-2.721,1.547-.328-.331,2.72-1.546Z"/><path class="j" d="M1252.417,1102.361l-.544.309-3.933-3.975.544-.309Z"/><path class="k" d="M1268.029,1104.037,1227.5,1127h39.47Z"/><path class="k" d="M1267.5,1104.243a1.512,1.512,0,0,1,.624,1.171,2.189,2.189,0,0,1-4.216,0,1.446,1.446,0,0,1,.621-1.172Z"/><rect class="k" width="2.869" height="6.227" transform="translate(1264.574 1098.017)"/><path class="g" d="M1264.571,1099.271v-.244l2.869,0v.244Z"/><path class="g" d="M1264.573,1100.509v-.244l2.869,0v.244Z"/><path class="g" d="M1264.575,1101.746v-.244l2.869,0v.244Z"/><rect class="g" width="2.869" height="0.244" transform="translate(1264.576 1102.739)"/><path class="k" d="M1266.23,1098.427h1.741l-.113-16.427-1.743-1.134Z"/><path class="k" d="M1265.687,1080.865l-1.738,1.137.113,16.427h1.74Z"/><rect class="g" width="6.864" height="0.976" transform="translate(1262.394 1097.572)"/><path class="k" d="M1260.3,1070.63a.635.635,0,0,0-.732.262l-1.308,2.753a1.3,1.3,0,0,0-.537.011l-2.193.525v-.007l2.19-.523-.266-3.291-1.383,1.181-2.576-2.127c-.011,0-.022,0-.034,0l-1.5,1.856-3.17-2.443-.947,2.132-3.861-2.784-1.011,3.919-2.439-1.292-.946,3.427-2.4-.9a.261.261,0,0,1-.056.018l-.29,3.039-2.237-.555,2.236,2.819,3.824-.914v.006l-3.822.914c-.442.106-.715.4-.612.645a.527.527,0,0,0,.373.267l-4.128,1.041c-.3.075-.462.321-.363.548a.584.584,0,0,0,.543.3.746.746,0,0,0,.181-.022l7.828-1.974v5.9h-4l2.089,6.508h.746v-.849h.647v.849h.484v-.849h.647v.849h.485v-.849h.647v.849h.485v-.849h.646v.849h.485v-.849h.647v.849h.485v-.849h.647v.849h.485v-.849h.646v.849h.485v-.849h.647v.849h.485v-.849h.647v.849h.484v-.849h.647v.849h.485v-.849h.647v.849h4.079V1075.7l3.109-.784a.528.528,0,0,0,.357-.265l1.648-3.47C1260.751,1070.96,1260.6,1070.712,1260.3,1070.63Zm-8.2,14.724h-9.724v-6.332l9.724-2.452Zm0-10.352-9.724,2.326v-.007l9.724-2.326Z"/><path class="k" d="M1240.448,1070.824c.374-.089.58-.391.461-.677a.77.77,0,0,0-.89-.354c-.374.09-.58.392-.461.677A.769.769,0,0,0,1240.448,1070.824Z"/><path class="k" d="M1244.489,1067.42a.853.853,0,0,0-.986-.392c-.416.1-.641.436-.51.75a.855.855,0,0,0,.987.4C1244.4,1068.074,1244.621,1067.737,1244.489,1067.42Z"/><path class="k" d="M1237.18,1073.325a.447.447,0,0,0,.314-.577.692.692,0,0,0-.8-.319c-.333.08-.522.352-.415.61a.7.7,0,0,0,.8.319.222.222,0,0,0,.045-.015l0-.036Z"/><path class="k" d="M1234.238,1075.965c.3-.072.468-.317.372-.547a.623.623,0,0,0-.72-.29c-.3.072-.469.317-.371.551A.624.624,0,0,0,1234.238,1075.965Z"/><path class="k" d="M1249.282,1068.145a.769.769,0,0,0-.89-.354c-.374.089-.58.391-.461.677a.757.757,0,0,0,.857.358.118.118,0,0,0,.033,0C1249.195,1068.732,1249.4,1068.43,1249.282,1068.145Z"/><path class="k" d="M1257.875,1070.312c.3-.072.468-.317.372-.547a.623.623,0,0,0-.72-.29c-.3.072-.469.317-.371.551A.623.623,0,0,0,1257.875,1070.312Z"/><path class="k" d="M1253.495,1069.414a.682.682,0,0,0,.163-.022c.338-.08.523-.351.415-.609a.691.691,0,0,0-.8-.319c-.333.08-.517.35-.41.608a.636.636,0,0,0,.6.341l.016-.017Z"/><ellipse class="j" cx="1.621" cy="2.297" rx="1.621" ry="2.297" transform="translate(1243.146 1073.165) rotate(-35.901)"/><path class="j" d="M1241.229,1075.171l.248.381.554.061-.4.3.095.419-.5-.2-.5.2.095-.419-.4-.3.554-.061Z"/><path class="j" d="M1251.525,1072.568l.248.381.554.061-.4.3.095.419-.5-.2-.5.2.095-.419-.4-.3.554-.061Z"/><path class="k" d="M1231.136,1099.3l-.363,26.4h5.307l-1.546-23.16Z"/><path class="k" d="M1236.653,1104.876l1.716,18.22,2.288-.434-1.361-15.647-2.071-2.139Z"/><path class="k" d="M1241.8,1107.912l.095,1.044,1.049,11.537h2.288l.3-7.7"/><path class="j" d="M1232.843,1121.711c1.111,0,1.113-1.31,0-1.31s-1.113,1.31,0,1.31Z"/><path class="j" d="M1233.242,1114.958l-.062-.01.38.168-.038-.03.222.289-.012-.049c-.09-.347-.637-.546-1.062-.457a.669.669,0,0,0-.6.806.855.855,0,0,0,.717.546.946.946,0,0,0,1.062-.458.662.662,0,0,0-.6-.8Z"/><path class="j" d="M1233.238,1111.222c1.112,0,1.113-1.31,0-1.31s-1.113,1.31,0,1.31Z"/><path class="j" d="M1233.125,1106.155c1.111,0,1.113-1.31,0-1.31s-1.113,1.31,0,1.31Z"/><path class="j" d="M1244.075,1116.482l-.029,0,.182.072-.019-.014.112.131-.007-.023a.446.446,0,0,0-.508-.193.3.3,0,0,0-.254.385.413.413,0,0,0,.349.24.428.428,0,0,0,.479-.231.317.317,0,0,0-.305-.363Z"/><path class="j" d="M1243.956,1114.748c.516-.02.476-.628-.041-.608s-.475.628.041.608Z"/><path class="j" d="M1243.745,1112.4c.516-.02.476-.628-.041-.608s-.476.628.041.608Z"/><path class="g" d="M1238.293,1108.937c.8-.043.719-.99-.086-.948s-.719.99.086.948Z"/><path class="g" d="M1238.617,1112.474c.8-.042.719-.99-.087-.947s-.719.99.087.947Z"/><path class="g" d="M1239.375,1115.914a.566.566,0,0,0,.177-.284.508.508,0,0,0-.49-.56c-.316-.048-.691.116-.738.372l-.007.036.142-.217-.029.03a.41.41,0,0,0,.062.67.778.778,0,0,0,.883-.047Z"/><path class="g" d="M1238.763,1119.585l0,.032c.055.609,1.305.545,1.249-.066l0-.032c-.055-.61-1.3-.545-1.249.066Z"/><path class="g" d="M1285.241,1070.864c-.952-1.038-2.058-2.05-2.521-2.582-.347-.4-.593-.7-.694-.828v-.065l-.026.033-.026-.033v.065c-.1.126-.347.43-.694.828-.463.532-1.569,1.544-2.52,2.582a3.156,3.156,0,0,0-.849,2.936,2.109,2.109,0,0,0,2.494,1.493,1.581,1.581,0,0,0,1.006-.534,3.288,3.288,0,0,1-.817,1.852h2.743a3.513,3.513,0,0,1-.742-1.845,1.576,1.576,0,0,0,1,.527,2.109,2.109,0,0,0,2.494-1.493A3.157,3.157,0,0,0,1285.241,1070.864Z"/><text class="n" transform="translate(1282 1064.109)"><tspan x="-3.794" y="0">K</tspan></text><path class="c" d="M1244.549,1000a2.4,2.4,0,0,0-2.52,2.8l.846,3.361c-3.92,2.945-10.45,7.384-16.206,11.922-5.951,4.691-7.15,9.381-6.514,13.468a8.1,8.1,0,0,0,1.545,7.513l-.06-.976a17.429,17.429,0,0,0,2.226,5.481c.222.484.454.962.7,1.429H1202.5v57c0,11.215,7.835,21.238,17.142,29.188-.144.307-.289.614-.422.943a33.931,33.931,0,0,0-2.221,7.861c-3.01,1.541-6,4.931-6,6.99,0,2.728,2.91,2.08,6.5,2.08,2.843,0,5.254-.576,6.136-2.17a22.179,22.179,0,0,0,7.4-4.7q.792-.781,1.525-1.583A139.806,139.806,0,0,0,1250,1150V1000Z"/><g class="o"><rect class="g" width="2" height="128" rx="1" transform="translate(1207 1014.129)"/><path class="b" d="M1212.666,1017.133c-1.37-1.495-2.962-2.952-3.629-3.718-.5-.574-.854-1.01-1-1.192v-.094l-.037.047-.037-.047v.094c-.146.182-.5.618-1,1.192-.667.766-2.259,2.223-3.629,3.718a4.541,4.541,0,0,0-1.222,4.227,3.037,3.037,0,0,0,3.592,2.151,2.274,2.274,0,0,0,1.448-.769,4.728,4.728,0,0,1-1.177,2.666h3.95a5.054,5.054,0,0,1-1.068-2.656,2.274,2.274,0,0,0,1.439.759,3.037,3.037,0,0,0,3.592-2.151A4.541,4.541,0,0,0,1212.666,1017.133Z"/><rect class="c" width="6" height="130" transform="translate(1202 1012.129)"/></g><path class="b" d="M1298.565,1076.588c.915,1.685,2.086,4.268,1,6.134-1.332,2.289-5.444,2.589-7.284.792,1.471-1.7.545-4.83-1.53-6.172a18.369,18.369,0,0,0,3.268-2.973c.637-.632,1.209-1.3,2.15-.91C1297.244,1073.9,1298.02,1075.583,1298.565,1076.588Z"/><path class="b" d="M1297.526,1082.88a3.535,3.535,0,0,1-1.641,1.618,3.188,3.188,0,0,1-1.074.208,6.893,6.893,0,0,1-1.829-.26,4.7,4.7,0,0,1-1.188-.437,3.614,3.614,0,0,1-1.584-2.066,7.848,7.848,0,0,1,.356-4.979c.684-1.909,1.888-5.036,4.589-3.644C1298.624,1075.1,1299.123,1080.052,1297.526,1082.88Z"/><path class="k" d="M1201.435,1076.588c-.915,1.685-2.086,4.268-1,6.134,1.332,2.289,5.444,2.589,7.284.792-1.471-1.7-.545-4.83,1.53-6.172a18.369,18.369,0,0,1-3.268-2.973c-.637-.632-1.209-1.3-2.15-.91C1202.756,1073.9,1201.98,1075.583,1201.435,1076.588Z"/><path class="k" d="M1206.092,1081.2a2.285,2.285,0,0,0,.181,1.37,1.861,1.861,0,0,0,.4.49,3.694,3.694,0,0,0,.894.541,2.435,2.435,0,0,0,.67.224,1.89,1.89,0,0,0,1.392-.411,4.76,4.76,0,0,0,1.514-2.51c.339-1.161.858-3.093-.8-3.41C1208.22,1077.088,1206.338,1079.273,1206.092,1081.2Z"/></g></svg>