<svg xmlns="http://www.w3.org/2000/svg" xmlns:xlink="http://www.w3.org/1999/xlink" viewBox="0 0 100 150"><defs><style>.a{fill:none;}.b,.e,.h{fill:#27123e;}.c,.f,.k,.n{fill:#15b0bf;}.d{fill:#fff;opacity:0.1;}.e,.i{opacity:0.2;}.f{opacity:0.3;}.g,.i{fill:#3b2860;}.h{font-size:13px;}.h,.k{font-family:MyriadPro-Regular, Myriad Pro;}.i{stroke-linecap:round;stroke-miterlimit:10;}.j{clip-path:url(#a);}.k{font-size:14px;}.l{fill:#3c2a54;}.m,.n{stroke:none;}</style><clipPath id="a"><path class="a" d="M412.666,1017.133c-1.37-1.495-2.962-2.952-3.629-3.718-.5-.574-.854-1.01-1-1.192v-.094l-.037.047-.037-.047v.094c-.146.182-.5.618-1,1.192-.667.766-2.259,2.223-3.629,3.718a4.541,4.541,0,0,0-1.222,4.227,3.038,3.038,0,0,0,3.592,2.151,2.241,2.241,0,0,0,1.3-.623v.588a4.539,4.539,0,0,1-1.025,1.932H407v115.721a1,1,0,0,0,2,0V1025.408h.925a4.423,4.423,0,0,1-.925-1.917v-.6a2.229,2.229,0,0,0,1.3.623,3.038,3.038,0,0,0,3.592-2.151A4.541,4.541,0,0,0,412.666,1017.133Z"/></clipPath></defs><g transform="translate(-400 -1000)"><path class="b" d="M433.844,1126.552c6.382,3.924,2.708,10.189-2.806,15.637-4,3.956-10.69,6.594-12.642,5.062-2.566-2.013-1.854-8.549.824-15.12C422.145,1124.952,427.494,1122.648,433.844,1126.552Z"/><path class="b" d="M424,1145.422c0,2.728-2.91,3.64-6.5,3.64s-6.5.648-6.5-2.08,5.25-7.8,8.84-7.8S424,1142.694,424,1145.422Z"/><path class="b" d="M466.156,1126.552c-6.382,3.924-2.708,10.189,2.806,15.637,4,3.956,10.69,6.594,12.642,5.062,2.566-2.013,1.854-8.549-.824-15.12C477.855,1124.952,472.506,1122.648,466.156,1126.552Z"/><path class="b" d="M476,1145.422c0,2.728,2.91,3.64,6.5,3.64s6.5.648,6.5-2.08-5.25-7.8-8.84-7.8S476,1142.694,476,1145.422Z"/><path class="b" d="M495,1045H405v57c0,23.524,38.313,42.183,45,45.259,6.688-3.076,45-21.735,45-45.259Z"/><path class="b" d="M492.5,1102c0,18.925-29.013,36.284-42.5,42.524-13.494-6.228-42.5-23.561-42.5-42.524v-57h-5v57c0,27.614,47.5,48,47.5,48h0s47.5-20.386,47.5-48v-57h-5Z"/><path class="c" d="M454.23,1096c-1.242-1.355-2.686-2.676-3.29-3.37-.453-.52-.774-.915-.906-1.081,0,0-.012-.069-.034-.042-.022-.027-.034.042-.034.042-.132.166-.453.561-.906,1.081-.6.694-2.048,2.015-3.29,3.37a4.12,4.12,0,0,0-1.107,3.832,2.754,2.754,0,0,0,3.256,1.949,2.064,2.064,0,0,0,1.312-.7,4.286,4.286,0,0,1-1.066,2.417h3.58a4.576,4.576,0,0,1-.968-2.408,2.059,2.059,0,0,0,1.3.688,2.754,2.754,0,0,0,3.256-1.949A4.12,4.12,0,0,0,454.23,1096Z"/><path class="c" d="M441.23,1069.5c-1.242-1.355-2.686-2.676-3.29-3.37-.453-.52-.774-.915-.906-1.081,0,0-.012-.069-.034-.042-.022-.027-.034.042-.034.042-.132.166-.453.561-.906,1.081-.6.694-2.048,2.015-3.29,3.37a4.12,4.12,0,0,0-1.107,3.832,2.754,2.754,0,0,0,3.256,1.949,2.064,2.064,0,0,0,1.312-.7,4.286,4.286,0,0,1-1.066,2.417h3.58a4.576,4.576,0,0,1-.968-2.408,2.059,2.059,0,0,0,1.3.688,2.754,2.754,0,0,0,3.256-1.949A4.12,4.12,0,0,0,441.23,1069.5Z"/><path class="c" d="M441.23,1122.5c-1.242-1.355-2.686-2.676-3.29-3.37-.453-.52-.774-.915-.906-1.081,0,0-.012-.069-.034-.042-.022-.027-.034.042-.034.042-.132.166-.453.561-.906,1.081-.6.694-2.048,2.015-3.29,3.37a4.12,4.12,0,0,0-1.107,3.832,2.754,2.754,0,0,0,3.256,1.949,2.064,2.064,0,0,0,1.312-.7,4.286,4.286,0,0,1-1.066,2.417h3.58a4.576,4.576,0,0,1-.968-2.408,2.059,2.059,0,0,0,1.3.688,2.754,2.754,0,0,0,3.256-1.949A4.12,4.12,0,0,0,441.23,1122.5Z"/><path class="c" d="M467.23,1069.5c-1.242-1.355-2.686-2.676-3.29-3.37-.453-.52-.774-.915-.906-1.081,0,0-.012-.069-.034-.042-.022-.027-.034.042-.034.042-.132.166-.453.561-.906,1.081-.6.694-2.048,2.015-3.29,3.37a4.12,4.12,0,0,0-1.107,3.832,2.754,2.754,0,0,0,3.256,1.949,2.064,2.064,0,0,0,1.312-.7,4.286,4.286,0,0,1-1.066,2.417h3.58a4.576,4.576,0,0,1-.968-2.408,2.059,2.059,0,0,0,1.3.688,2.754,2.754,0,0,0,3.256-1.949A4.12,4.12,0,0,0,467.23,1069.5Z"/><path class="c" d="M467.23,1122.5c-1.242-1.355-2.686-2.676-3.29-3.37-.453-.52-.774-.915-.906-1.081,0,0-.012-.069-.034-.042-.022-.027-.034.042-.034.042-.132.166-.453.561-.906,1.081-.6.694-2.048,2.015-3.29,3.37a4.12,4.12,0,0,0-1.107,3.832,2.754,2.754,0,0,0,3.256,1.949,2.064,2.064,0,0,0,1.312-.7,4.286,4.286,0,0,1-1.066,2.417h3.58a4.576,4.576,0,0,1-.968-2.408,2.059,2.059,0,0,0,1.3.688,2.754,2.754,0,0,0,3.256-1.949A4.12,4.12,0,0,0,467.23,1122.5Z"/><path class="d" d="M407.5,1045h-5v57c0,27.614,47.5,48,47.5,48V1045Z"/><path class="b" d="M421.7,1039.066c-2.507-2.929-2.366-7.518-.557-9.066"/><path class="b" d="M478.1,1039.066c2.507-2.929,2.366-7.518.557-9.066"/><path class="e" d="M478.814,1030.608C480.009,1044.8,465.9,1060,449.965,1060s-28.85-12.162-28.85-29.392c0-.2,28.65-7.094,28.85-7.094C451.159,1023.514,478.8,1030.406,478.814,1030.608Z"/><path class="b" d="M473.332,1018.085c-6.852-5.4-14.814-10.67-18.147-13.437-2.5-2.075-4.271-3.652-5-4.311V1000s-.065.061-.185.169c-.12-.108-.185-.169-.185-.169v.337c-.729.659-2.5,2.236-5,4.311-3.333,2.767-11.3,8.036-18.146,13.437s-7.407,10.8-6.111,15.282,7.777,19.7,17.961,18.773a13.06,13.06,0,0,0,7.24-2.78c-1.146,6.34-5.884,4.64-5.884,4.64h19.752c-3.606-2.912-4.883-2.038-5.342-4.6a13.082,13.082,0,0,0,7.2,2.744c10.184.923,16.665-14.293,17.961-18.773S480.183,1023.487,473.332,1018.085Z"/><path class="f" d="M449.992,1002.858l.012.01.008-.007c.951.837,2.272,1.979,3.9,3.326s4.213,3.2,7.225,5.357c3.443,2.466,7.345,5.261,10.962,8.112,5.129,4.044,6.854,8.225,5.427,13.155-1.061,3.669-6.745,17.37-15.155,17.37-.233,0-.47-.011-.7-.033a11.185,11.185,0,0,1-6.124-2.311l-4.162-3.341.941,5.253a5.18,5.18,0,0,0,.9,2.251h-6.134a11.634,11.634,0,0,0,.642-2.285l.958-5.3-4.186,3.4a11.18,11.18,0,0,1-6.16,2.342c-.235.021-.472.032-.7.032-8.41,0-14.094-13.7-15.155-17.37-1.427-4.93.3-9.111,5.428-13.155,3.617-2.852,7.52-5.647,10.963-8.113,3.012-2.157,5.612-4.019,7.223-5.356s2.948-2.492,3.9-3.329m.193-2.858s-.065.061-.185.169c-.12-.108-.185-.169-.185-.169v.337c-.729.659-2.5,2.236-5,4.311-3.333,2.767-11.3,8.036-18.146,13.437s-7.407,10.8-6.111,15.282c1.258,4.348,7.4,18.814,17.076,18.814q.438,0,.885-.041a13.06,13.06,0,0,0,7.24-2.78c-.546,3.02-1.907,4.216-3.182,4.64h17.05c-3.606-2.912-4.883-2.038-5.342-4.6a13.082,13.082,0,0,0,7.2,2.744c.3.027.594.041.885.041,9.675,0,15.818-14.465,17.076-18.814,1.3-4.479.741-9.88-6.11-15.282s-14.814-10.67-18.147-13.437c-2.5-2.075-4.271-3.652-5-4.311V1000Zm-7.608,54h-2.7a4.49,4.49,0,0,0,1.378.207,4.212,4.212,0,0,0,1.324-.207Z"/><path class="g" d="M450,1041.554c-10.949,0-20.971-2.6-28.732-6.921,0,18.07,28.732,25.164,28.732,25.164s28.732-8.108,28.732-25.164C470.971,1038.949,460.949,1041.554,450,1041.554Z"/><path class="b" d="M472.166,1042.139q.144-1.07.286-2.139a2.172,2.172,0,0,1,.413-1.164c.5-.622,1.477-1.01,1.881-.4.371.565.168,1.5.128,2.139a10.977,10.977,0,0,1-1.278,4.372,1.466,1.466,0,0,1-.419.539,1.443,1.443,0,0,1-.885.276c-.507-.033-.557-.4-.517-.7Q471.97,1043.6,472.166,1042.139Z"/><path class="b" d="M465.443,1045.583l.178-2.758a2.775,2.775,0,0,1,.4-1.485c.532-.776,1.645-1.218,2.159-.4a5.556,5.556,0,0,1,.3,2.785,14.394,14.394,0,0,1-1.171,5.593,1.624,1.624,0,0,1-.449.673,1.42,1.42,0,0,1-1.008.3c-.593-.074-.678-.554-.653-.939Q465.321,1047.47,465.443,1045.583Z"/><path class="b" d="M458.834,1048.442l.273-3.415a3.737,3.737,0,0,1,.469-1.815c.6-.922,1.805-1.378,2.334-.313.486.98.269,2.452.244,3.489a19.727,19.727,0,0,1-1.423,6.86,1.926,1.926,0,0,1-.5.8,1.333,1.333,0,0,1-1.094.293c-.635-.142-.712-.746-.675-1.222Q458.647,1050.781,458.834,1048.442Z"/><path class="b" d="M452.126,1050.3q.02-1.926.038-3.851a4.24,4.24,0,0,1,.369-2.055c.573-1.053,1.844-1.6,2.494-.414.6,1.09.474,2.752.526,3.92a22.638,22.638,0,0,1-1.02,7.76,2.066,2.066,0,0,1-.481.914,1.353,1.353,0,0,1-1.158.358c-.7-.143-.824-.821-.819-1.358Z"/><path class="b" d="M427.834,1042.139q-.144-1.07-.286-2.139a2.172,2.172,0,0,0-.413-1.164c-.5-.622-1.477-1.01-1.881-.4-.371.565-.168,1.5-.128,2.139a10.977,10.977,0,0,0,1.278,4.372,1.466,1.466,0,0,0,.419.539,1.443,1.443,0,0,0,.885.276c.507-.033.557-.4.517-.7Q428.03,1043.6,427.834,1042.139Z"/><path class="b" d="M434.641,1045.583l-.178-2.758a2.784,2.784,0,0,0-.4-1.485c-.532-.776-1.646-1.218-2.159-.4a5.556,5.556,0,0,0-.3,2.785,14.376,14.376,0,0,0,1.171,5.593,1.6,1.6,0,0,0,.449.673,1.418,1.418,0,0,0,1.008.3c.593-.074.678-.554.653-.939Q434.763,1047.47,434.641,1045.583Z"/><path class="b" d="M441.333,1048.442q-.135-1.709-.272-3.415a3.737,3.737,0,0,0-.469-1.815c-.6-.922-1.806-1.378-2.335-.313-.486.98-.268,2.452-.244,3.489a19.75,19.75,0,0,0,1.423,6.86,1.919,1.919,0,0,0,.5.8,1.331,1.331,0,0,0,1.093.293c.635-.142.713-.746.675-1.222Q441.52,1050.781,441.333,1048.442Z"/><path class="b" d="M448.125,1050.3q-.02-1.926-.038-3.851a4.24,4.24,0,0,0-.369-2.055c-.573-1.053-1.844-1.6-2.494-.414-.6,1.09-.474,2.752-.526,3.92a22.639,22.639,0,0,0,1.02,7.76,2.066,2.066,0,0,0,.481.914,1.353,1.353,0,0,0,1.158.358c.7-.143.824-.821.819-1.358Z"/><path class="c" d="M450,1034.459l-7.971-31.657a2.4,2.4,0,0,1,2.52-2.8h10.9a2.4,2.4,0,0,1,2.52,2.8Z"/><text class="h" transform="translate(450 1013.522)"><tspan x="-3.335" y="0">5</tspan></text><g class="i"><path class="m" d="M 450 1040.553955078125 C 444.8780212402344 1040.553955078125 439.8617248535156 1039.977783203125 435.0904541015625 1038.841430664063 C 434.35400390625 1038.666015625 433.6259155273438 1038.477905273438 432.9071044921875 1038.277465820313 C 438.4256591796875 1039.099609375 444.1413879394531 1039.514038085938 450 1039.514038085938 C 455.8586120605469 1039.514038085938 461.5743713378906 1039.099609375 467.0928955078125 1038.277465820313 C 466.3740844726563 1038.477905273438 465.64599609375 1038.666015625 464.9095764160156 1038.841430664063 C 460.1382751464844 1039.977783203125 455.1219787597656 1040.553955078125 450 1040.553955078125 Z"/><path class="n" d="M 450 1041.553955078125 C 439.3670043945313 1041.553955078125 429.6080017089844 1039.098022460938 421.9450073242188 1035.004028320313 C 430.3720092773438 1037.243041992188 439.8999938964844 1038.514038085938 450 1038.514038085938 C 460.1000061035156 1038.514038085938 469.6279907226563 1037.243041992188 478.0549926757813 1035.004028320313 C 470.3919982910156 1039.098022460938 460.6329956054688 1041.553955078125 450 1041.553955078125 Z"/></g><path class="c" d="M485.241,1070.864c-.952-1.038-2.058-2.05-2.521-2.582-.347-.4-.593-.7-.694-.828v-.065l-.026.033-.026-.033v.065c-.1.126-.347.43-.694.828-.463.532-1.569,1.544-2.52,2.582a3.156,3.156,0,0,0-.849,2.936,2.109,2.109,0,0,0,2.494,1.493,1.58,1.58,0,0,0,1.006-.534,3.288,3.288,0,0,1-.817,1.852h2.743a3.512,3.512,0,0,1-.742-1.845,1.576,1.576,0,0,0,1,.527,2.109,2.109,0,0,0,2.494-1.493A3.157,3.157,0,0,0,485.241,1070.864Z"/><path class="d" d="M444.549,1000a2.4,2.4,0,0,0-2.52,2.8l.846,3.361c-3.92,2.945-10.45,7.384-16.206,11.922-5.951,4.691-7.15,9.381-6.514,13.468a8.1,8.1,0,0,0,1.545,7.513l-.06-.976a17.43,17.43,0,0,0,2.226,5.481c.222.484.454.962.7,1.429H402.5v57c0,11.215,7.835,21.238,17.142,29.188-.144.307-.289.614-.422.943a33.931,33.931,0,0,0-2.221,7.861c-3.01,1.541-6,4.931-6,6.99,0,2.728,2.91,2.08,6.5,2.08,2.843,0,5.254-.576,6.136-2.17a22.179,22.179,0,0,0,7.4-4.7q.792-.781,1.525-1.583A139.8,139.8,0,0,0,450,1150V1000Z"/><g class="j"><rect class="c" width="2" height="128" rx="1" transform="translate(407 1014.129)"/><path class="b" d="M412.666,1017.133c-1.37-1.495-2.962-2.952-3.629-3.718-.5-.574-.854-1.01-1-1.192v-.094l-.037.047-.037-.047v.094c-.146.182-.5.618-1,1.192-.667.766-2.259,2.223-3.629,3.718a4.541,4.541,0,0,0-1.222,4.227,3.037,3.037,0,0,0,3.592,2.151,2.274,2.274,0,0,0,1.448-.769,4.728,4.728,0,0,1-1.177,2.666h3.95a5.055,5.055,0,0,1-1.068-2.656,2.275,2.275,0,0,0,1.439.759,3.037,3.037,0,0,0,3.592-2.151A4.541,4.541,0,0,0,412.666,1017.133Z"/><rect class="d" width="6" height="130" transform="translate(402 1012.129)"/></g><path class="b" d="M498.565,1076.588c.915,1.685,2.086,4.268.995,6.134-1.332,2.289-5.444,2.589-7.284.792,1.471-1.7.545-4.83-1.53-6.172a18.368,18.368,0,0,0,3.268-2.973c.637-.632,1.209-1.3,2.15-.91C497.244,1073.9,498.02,1075.583,498.565,1076.588Z"/><path class="b" d="M497.526,1082.88a3.535,3.535,0,0,1-1.641,1.618,3.188,3.188,0,0,1-1.074.208,6.894,6.894,0,0,1-1.829-.26,4.7,4.7,0,0,1-1.188-.437,3.614,3.614,0,0,1-1.584-2.066,7.848,7.848,0,0,1,.356-4.979c.684-1.909,1.888-5.036,4.589-3.644C498.624,1075.1,499.123,1080.052,497.526,1082.88Z"/><text class="k" transform="translate(482 1064.109)"><tspan x="-3.591" y="0">5</tspan></text><path class="l" d="M401.435,1076.588c-.915,1.685-2.086,4.268-.995,6.134,1.332,2.289,5.444,2.589,7.284.792-1.471-1.7-.545-4.83,1.53-6.172a18.368,18.368,0,0,1-3.268-2.973c-.637-.632-1.209-1.3-2.15-.91C402.756,1073.9,401.98,1075.583,401.435,1076.588Z"/><path class="l" d="M406.092,1081.2a2.285,2.285,0,0,0,.181,1.37,1.86,1.86,0,0,0,.4.49,3.693,3.693,0,0,0,.894.541,2.435,2.435,0,0,0,.67.224,1.89,1.89,0,0,0,1.392-.411,4.759,4.759,0,0,0,1.514-2.51c.339-1.161.858-3.093-.8-3.41C408.22,1077.088,406.338,1079.273,406.092,1081.2Z"/></g></svg>