<svg xmlns="http://www.w3.org/2000/svg" xmlns:xlink="http://www.w3.org/1999/xlink" viewBox="0 0 100 150"><defs><style>.a{fill:none;}.b,.d,.h{fill:#27123e;}.c,.k{fill:#fff;}.c{opacity:0.1;}.d,.i{opacity:0.2;}.e,.g,.l,.o{fill:#15b0bf;}.e{opacity:0.3;}.f,.i{fill:#3b2860;}.h{font-size:13px;}.h,.l{font-family:MyriadPro-Regular, Myriad Pro;}.i{stroke-linecap:round;stroke-miterlimit:10;}.j{fill:#3c2a54;}.l{font-size:14px;}.m{clip-path:url(#a);}.n,.o{stroke:none;}</style><clipPath id="a"><path class="a" d="M1112.666,1017.133c-1.37-1.495-2.962-2.952-3.629-3.718-.5-.574-.854-1.01-1-1.192v-.094l-.037.047-.037-.047v.094c-.146.182-.5.618-1,1.192-.667.766-2.259,2.223-3.629,3.718a4.541,4.541,0,0,0-1.222,4.227,3.037,3.037,0,0,0,3.592,2.151,2.241,2.241,0,0,0,1.3-.623v.588a4.54,4.54,0,0,1-1.025,1.932H1107v115.721a1,1,0,0,0,2,0V1025.408h.925a4.423,4.423,0,0,1-.925-1.917v-.6a2.229,2.229,0,0,0,1.3.623,3.037,3.037,0,0,0,3.592-2.151A4.541,4.541,0,0,0,1112.666,1017.133Z"/></clipPath></defs><g transform="translate(-1100 -1000)"><path class="b" d="M1133.844,1126.552c6.382,3.924,2.708,10.189-2.806,15.637-4,3.956-10.69,6.594-12.642,5.062-2.566-2.013-1.854-8.549.824-15.12C1122.145,1124.952,1127.494,1122.648,1133.844,1126.552Z"/><path class="b" d="M1124,1145.422c0,2.728-2.91,3.64-6.5,3.64s-6.5.648-6.5-2.08,5.25-7.8,8.84-7.8S1124,1142.694,1124,1145.422Z"/><path class="b" d="M1166.156,1126.552c-6.382,3.924-2.708,10.189,2.806,15.637,4,3.956,10.69,6.594,12.642,5.062,2.566-2.013,1.854-8.549-.824-15.12C1177.855,1124.952,1172.506,1122.648,1166.156,1126.552Z"/><path class="b" d="M1176,1145.422c0,2.728,2.91,3.64,6.5,3.64s6.5.648,6.5-2.08-5.25-7.8-8.84-7.8S1176,1142.694,1176,1145.422Z"/><path class="b" d="M1195,1045h-90v57c0,23.524,38.313,42.183,45,45.259,6.688-3.076,45-21.735,45-45.259Z"/><path class="b" d="M1192.5,1102c0,18.925-29.013,36.284-42.5,42.524-13.494-6.228-42.5-23.561-42.5-42.524v-57h-5v57c0,27.614,47.5,48,47.5,48h0s47.5-20.386,47.5-48v-57h-5Z"/><path class="c" d="M1107.5,1045h-5v57c0,27.614,47.5,48,47.5,48V1045Z"/><path class="b" d="M1121.7,1039.066c-2.507-2.929-2.366-7.518-.557-9.066"/><path class="b" d="M1178.1,1039.066c2.507-2.929,2.366-7.518.557-9.066"/><path class="d" d="M1178.814,1030.608c1.2,14.189-12.916,29.392-28.849,29.392s-28.85-12.162-28.85-29.392c0-.2,28.65-7.094,28.85-7.094C1151.159,1023.514,1178.8,1030.406,1178.814,1030.608Z"/><path class="b" d="M1173.332,1018.085c-6.852-5.4-14.814-10.67-18.147-13.437-2.5-2.075-4.271-3.652-5-4.311V1000s-.065.061-.185.169c-.12-.108-.185-.169-.185-.169v.337c-.729.659-2.5,2.236-5,4.311-3.333,2.767-11.295,8.036-18.146,13.437s-7.407,10.8-6.111,15.282,7.777,19.7,17.961,18.773a13.061,13.061,0,0,0,7.24-2.78c-1.146,6.34-5.884,4.64-5.884,4.64h19.752c-3.606-2.912-4.883-2.038-5.342-4.6a13.081,13.081,0,0,0,7.2,2.744c10.184.923,16.665-14.293,17.961-18.773S1180.183,1023.487,1173.332,1018.085Z"/><path class="e" d="M1149.992,1002.858l.012.01.008-.007c.951.837,2.272,1.979,3.9,3.326s4.213,3.2,7.225,5.357c3.443,2.466,7.345,5.261,10.962,8.112,5.129,4.044,6.854,8.225,5.427,13.155-1.061,3.669-6.745,17.37-15.155,17.37-.233,0-.47-.011-.7-.033a11.184,11.184,0,0,1-6.124-2.311l-4.162-3.341.941,5.253a5.18,5.18,0,0,0,.9,2.251h-6.134a11.638,11.638,0,0,0,.642-2.285l.958-5.3-4.186,3.4a11.181,11.181,0,0,1-6.16,2.342c-.235.021-.472.032-.7.032-8.41,0-14.094-13.7-15.155-17.37-1.427-4.93.3-9.111,5.428-13.155,3.617-2.852,7.52-5.647,10.963-8.113,3.012-2.157,5.612-4.019,7.223-5.356s2.948-2.492,3.9-3.329m.193-2.858s-.065.061-.185.169c-.12-.108-.185-.169-.185-.169v.337c-.729.659-2.5,2.236-5,4.311-3.333,2.767-11.295,8.036-18.146,13.437s-7.407,10.8-6.111,15.282c1.258,4.348,7.4,18.814,17.076,18.814q.438,0,.885-.041a13.061,13.061,0,0,0,7.24-2.78c-.546,3.02-1.907,4.216-3.182,4.64h17.05c-3.606-2.912-4.883-2.038-5.342-4.6a13.081,13.081,0,0,0,7.2,2.744c.3.027.594.041.885.041,9.675,0,15.818-14.465,17.076-18.814,1.3-4.479.741-9.88-6.11-15.282s-14.814-10.67-18.147-13.437c-2.5-2.075-4.271-3.652-5-4.311V1000Zm-7.608,54h-2.7a4.49,4.49,0,0,0,1.378.207,4.212,4.212,0,0,0,1.324-.207Z"/><path class="f" d="M1150,1041.554c-10.949,0-20.971-2.6-28.732-6.921,0,18.07,28.732,25.164,28.732,25.164s28.732-8.108,28.732-25.164C1170.971,1038.949,1160.949,1041.554,1150,1041.554Z"/><path class="b" d="M1172.166,1042.139q.144-1.07.286-2.139a2.172,2.172,0,0,1,.413-1.164c.5-.622,1.477-1.01,1.881-.4.371.565.168,1.5.128,2.139a10.977,10.977,0,0,1-1.278,4.372,1.466,1.466,0,0,1-.419.539,1.443,1.443,0,0,1-.885.276c-.507-.033-.557-.4-.517-.7Q1171.97,1043.6,1172.166,1042.139Z"/><path class="b" d="M1165.443,1045.583l.178-2.758a2.775,2.775,0,0,1,.4-1.485c.532-.776,1.645-1.218,2.159-.4a5.556,5.556,0,0,1,.3,2.785,14.393,14.393,0,0,1-1.171,5.593,1.624,1.624,0,0,1-.449.673,1.42,1.42,0,0,1-1.008.3c-.593-.074-.678-.554-.653-.939Q1165.321,1047.47,1165.443,1045.583Z"/><path class="b" d="M1158.834,1048.442l.273-3.415a3.737,3.737,0,0,1,.469-1.815c.595-.922,1.8-1.378,2.334-.313.486.98.269,2.452.244,3.489a19.728,19.728,0,0,1-1.423,6.86,1.925,1.925,0,0,1-.5.8,1.333,1.333,0,0,1-1.094.293c-.635-.142-.712-.746-.675-1.222Q1158.647,1050.781,1158.834,1048.442Z"/><path class="b" d="M1152.126,1050.3q.02-1.926.038-3.851a4.242,4.242,0,0,1,.369-2.055c.573-1.053,1.844-1.6,2.494-.414.6,1.09.474,2.752.526,3.92a22.637,22.637,0,0,1-1.02,7.76,2.067,2.067,0,0,1-.481.914,1.353,1.353,0,0,1-1.158.358c-.7-.143-.824-.821-.819-1.358Z"/><path class="b" d="M1127.834,1042.139q-.144-1.07-.286-2.139a2.172,2.172,0,0,0-.413-1.164c-.5-.622-1.477-1.01-1.881-.4-.371.565-.168,1.5-.128,2.139a10.977,10.977,0,0,0,1.278,4.372,1.466,1.466,0,0,0,.419.539,1.443,1.443,0,0,0,.885.276c.507-.033.557-.4.517-.7Q1128.03,1043.6,1127.834,1042.139Z"/><path class="b" d="M1134.641,1045.583l-.178-2.758a2.784,2.784,0,0,0-.4-1.485c-.532-.776-1.646-1.218-2.159-.4a5.557,5.557,0,0,0-.3,2.785,14.375,14.375,0,0,0,1.171,5.593,1.605,1.605,0,0,0,.449.673,1.418,1.418,0,0,0,1.008.3c.593-.074.678-.554.653-.939Q1134.763,1047.47,1134.641,1045.583Z"/><path class="b" d="M1141.333,1048.442q-.135-1.709-.272-3.415a3.738,3.738,0,0,0-.469-1.815c-.6-.922-1.806-1.378-2.335-.313-.486.98-.268,2.452-.244,3.489a19.75,19.75,0,0,0,1.423,6.86,1.918,1.918,0,0,0,.5.8,1.331,1.331,0,0,0,1.093.293c.635-.142.713-.746.675-1.222Q1141.52,1050.781,1141.333,1048.442Z"/><path class="b" d="M1148.125,1050.3q-.019-1.926-.038-3.851a4.24,4.24,0,0,0-.369-2.055c-.573-1.053-1.844-1.6-2.494-.414-.6,1.09-.474,2.752-.526,3.92a22.637,22.637,0,0,0,1.02,7.76,2.067,2.067,0,0,0,.481.914,1.354,1.354,0,0,0,1.158.358c.695-.143.824-.821.819-1.358Z"/><path class="g" d="M1150,1034.459l-7.971-31.657a2.4,2.4,0,0,1,2.52-2.8h10.9a2.4,2.4,0,0,1,2.52,2.8Z"/><text class="h" transform="translate(1150 1013.522)"><tspan x="-4.478" y="0">Q</tspan></text><g class="i"><path class="n" d="M 1150 1040.553955078125 C 1144.8779296875 1040.553955078125 1139.861694335938 1039.977783203125 1135.090454101563 1038.841430664063 C 1134.35400390625 1038.666015625 1133.625854492188 1038.47802734375 1132.907104492188 1038.277465820313 C 1138.425659179688 1039.099609375 1144.141357421875 1039.514038085938 1150 1039.514038085938 C 1155.858642578125 1039.514038085938 1161.574340820313 1039.099609375 1167.092895507813 1038.277465820313 C 1166.374145507813 1038.47802734375 1165.64599609375 1038.666015625 1164.909545898438 1038.841430664063 C 1160.138305664063 1039.977783203125 1155.1220703125 1040.553955078125 1150 1040.553955078125 Z"/><path class="o" d="M 1150 1041.553955078125 C 1139.366943359375 1041.553955078125 1129.608032226563 1039.098022460938 1121.944946289063 1035.004028320313 C 1130.371948242188 1037.243041992188 1139.900024414063 1038.514038085938 1150 1038.514038085938 C 1160.099975585938 1038.514038085938 1169.628051757813 1037.243041992188 1178.055053710938 1035.004028320313 C 1170.391967773438 1039.098022460938 1160.633056640625 1041.553955078125 1150 1041.553955078125 Z"/></g><path class="g" d="M1156.765,1087.011V1069.9h-9.909v15.54a13.836,13.836,0,0,0-7.651,6.665,5.2,5.2,0,0,0-2.1.154c-3.167.98-9.5,2.94-8.447,8.818s7.391,6.858,7.391,6.858l5.28,15.675,1.7-.122.692,2.541,19.818.968v-25.887C1163.545,1095.082,1160.8,1089.8,1156.765,1087.011Z"/><path class="g" d="M1167.054,1086.547l-2.894.954.27,3.36,2.945-.941Z"/><path class="j" d="M1172.5,1105.433l-14.692-19.078-4.406,6.288a13.262,13.262,0,0,0-5.619.1l-9.037-8.107-3.014,2.35,1.419,4.269c-.124.029-.249.054-.372.092-3.1.957-10.349,3.2-9.146,9.894.856,4.766,5.036,6.915,7.606,7.526l5.346,15.872,7.483-.534.445,1.339,8.87-2.071.686.968Zm-18.335,15.108a15.132,15.132,0,0,1-3.834-7.124l3.946,5.57Zm-8.79-9.413c-2.659-5.685.081-13.536,1.108-16.08.163-.038.336-.08.531-.129.141-.036.3-.075.459-.113l1.011.946a23.117,23.117,0,0,0-3.22,8.508l-.706,1.008.507.716A16.7,16.7,0,0,0,1145.375,1111.128Zm3.075-11.416a31.116,31.116,0,0,1,1.126-3.361l.777.645Zm.216,11.355a20.713,20.713,0,0,0,.471,2.518,9.913,9.913,0,0,1-1.572-4.072Zm3.5-16.662-.976,1.393-1.5-1.349-.051-.046A10.4,10.4,0,0,1,1152.168,1094.405Zm-10.087,28.184-.254-.754,5.029-.641-.552-2.4,1.134,3.412Zm14.05-.312.044-.611.872,1.231C1156.792,1122.74,1156.484,1122.538,1156.131,1122.277Z"/><path class="g" d="M1167.8,1090.081l2.922-.842-.163-3.369-2.974.826Z"/><path class="g" d="M1168.043,1090.072l-2.826,1.178.483,3.331,2.878-1.168Z"/><path class="g" d="M1169,1093.753l2.894-.954-.269-3.36-2.946.94Z"/><path class="j" d="M1168.682,1101.387,1131.732,1127h35.985Z"/><path class="j" d="M1172.164,1092.965l-.31-3.857-.867.277-.185-3.835-3.489.969-.029-.305-3.4,1.121.31,3.857,2.248-.718-1.51.629.555,3.828,3.232-1.312.045.467Zm-.55-.332-2.389.788-.273-2.874,2.433-.777Zm-1.3-6.441.138,2.872-2.411.694-.183-2.884Zm-5.876,1.475,2.389-.788.274,2.874-2.433.777Zm1.478,6.563-.411-2.833,2.334-.973.455,2.841Zm2.411-4.048,1.687-.485-1.614.515.1,1.034Z"/><ellipse class="g" cx="0.977" cy="1.081" rx="0.977" ry="1.081" transform="translate(1167.12 1089)"/><path class="j" d="M1168.095,1091.405a1.176,1.176,0,0,1-.63-.185,1.37,1.37,0,0,1-.452-1.78,1.253,1.253,0,0,1,.8-.647,1.159,1.159,0,0,1,.914.15,1.368,1.368,0,0,1,.451,1.779,1.25,1.25,0,0,1-.8.648A1.2,1.2,0,0,1,1168.095,1091.405Zm0-2.164a.62.62,0,0,0-.148.019.738.738,0,0,0-.467.389.921.921,0,0,0,.275,1.171.61.61,0,0,0,.485.082.739.739,0,0,0,.466-.389.92.92,0,0,0-.275-1.17h0A.611.611,0,0,0,1168.1,1089.241Z"/><path class="g" d="M1163.053,1100.871a10,10,0,0,1,1.3-2.806c.864-1.2,3.888-2.4,3.888-2.4l-1.728,3.607-3.025,1.6Z"/><path class="j" d="M1163.555,1101.113h-.836l.081-.3a10.186,10.186,0,0,1,1.333-2.881c.9-1.249,3.876-2.443,4-2.494l.612-.243-2.033,4.244Zm-.157-.484h.018l2.89-1.532,1.412-2.946a9.307,9.307,0,0,0-3.151,2.048A9.431,9.431,0,0,0,1163.4,1100.629Z"/><path class="g" d="M1162.829,1090.53a7.687,7.687,0,0,1,.666,2.766c.035,1.445-1.951,3.6-1.951,3.6l-.532-2.213a17.586,17.586,0,0,0,.428-2.122C1161.538,1091.669,1162.829,1090.53,1162.829,1090.53Z"/><path class="j" d="M1161.4,1097.42l-.661-2.741.015-.055a17.51,17.51,0,0,0,.423-2.089,4.735,4.735,0,0,1,1.469-2.181l.268-.236.15.314a7.889,7.889,0,0,1,.688,2.859c.037,1.52-1.929,3.671-2.013,3.762Zm-.125-2.735.4,1.664c.549-.67,1.578-2.062,1.554-3.047a7.333,7.333,0,0,0-.5-2.333,3.566,3.566,0,0,0-1.035,1.616A17.241,17.241,0,0,1,1161.279,1094.685Z"/><path class="g" d="M1164.528,1094.194s-3.024,4.81-3.024,7.616v2.806h.432v-3.207c0-1.2,1.728-4.409,2.16-5.211a18.22,18.22,0,0,0,.865-2Z"/><path class="j" d="M1157.808,1089.742l7.3-3.871-4.658-6.577.029.018,2.543-6.506-9.387-5.806-7.823,3.387.89.541-4.462,12.027,3.875,3,.724-14.947,3.267,1.988Z"/><path class="k" d="M1153.444,1072.309l.343.478.426-.388-.32-.482Z"/><path class="k" d="M1151.74,1072.146l.343.478.426-.388-.32-.482Z"/><path class="k" d="M1150.074,1071.587l.343.478.426-.388-.32-.482Z"/><path class="k" d="M1148.748,1071.535l.425-.388-.136-.2c-.073-.005-.146-.006-.219-.013s-.153-.02-.228-.035l-.185.162Z"/><path class="k" d="M1155.148,1072.472l.343.478.426-.388-.32-.482Z"/><path class="k" d="M1157.635,1072.574l-.32-.482-.448.392.343.478Z"/><path class="k" d="M1159.355,1072.571l-.32-.482-.448.392.343.478Z"/><path class="k" d="M1160.54,1072.4l.343.478.426-.388-.272-.409-.034-.05-.037,0-.043.037Z"/><path class="g" d="M1154.677,1076.108l-.177-.35-.209-.414-.281.122.209.414.177.35Z"/><path class="g" d="M1154.085,1074.889l-.177-.35-.205-.407-.281.122.205.407.177.35Z"/><path class="g" d="M1153.5,1073.675l-.177-.35-.226-.447-.281.122.226.447.177.35Z"/><path class="g" d="M1155.25,1077.279l-.17-.353-.178-.371-.038-.079-.283.117.041.084.176.366.169.353Z"/><path class="g" d="M1155.853,1078.533l-.169-.353-.216-.451-.283.117.216.451.17.353Z"/><path class="g" d="M1156.455,1079.788l-.169-.353-.217-.451-.141.058-.142.059h0l.216.451.169.353Z"/><path class="g" d="M1157.057,1081.042l-.169-.353-.216-.451-.142.058-.142.058h0l.216.451.17.353Z"/><path class="g" d="M1157.66,1082.3l-.17-.353-.216-.451h0l-.283.117h0l.217.451.169.353Z"/><path class="g" d="M1158.262,1083.55l-.169-.353-.216-.451h0l-.283.117h0l.216.451.169.353Z"/><path class="g" d="M1158.865,1084.8l-.169-.353-.216-.451h0l-.283.117h0l.216.451.17.353Z"/><path class="g" d="M1158.939,1085.314l-.141.058.216.451.169.353.283-.117-.169-.353-.216-.451h0Z"/><path class="g" d="M1159.377,1086.578l.023.049.193.4.169.353.283-.117-.169-.353-.193-.4-.023-.049Z"/><path class="g" d="M1159.979,1087.832l.216.451.169.353.283-.117-.169-.353-.216-.451Z"/><path class="g" d="M1152.514,1073.054l-.107.043-.106.044.358.757,6.533,14.346.338.714.1-.323-7.095-15.533Z"/><path class="g" d="M1158.892,1083.466l-4.181-8.655c-.065.025-.1.041-.107.043l-.095-.2.106-.043-1.046-2.166-.027-.057-.212.088.042.087,5.357,11.088C1158.715,1083.568,1158.809,1083.511,1158.892,1083.466Z"/><path class="g" d="M1158.987,1083.663a.3.3,0,0,0-.054.037l-.071-.067-.011,0,0,.115-.111-.078,2.443,4.312c.033-.107.067-.213.1-.32Z"/><path class="k" d="M1159.348,1111.135c-.778.485-1.672,1.06-2.587,1.606-.589.351-1.208.658-1.814.983a.463.463,0,0,1-.437-.047.287.287,0,0,1-.066-.2.664.664,0,0,0-.1-.438.9.9,0,0,1-.077-.77.8.8,0,0,1,.237-.278,34.7,34.7,0,0,1,4.577-3.436,30.459,30.459,0,0,1,2.9-1.652.561.561,0,0,1,.469-.063.672.672,0,0,1,.4.344.438.438,0,0,0,.363.263.783.783,0,0,1,.246.081.218.218,0,0,1,.051.381q-1.021.924-2.134,1.753C1160.739,1110.125,1160.1,1110.584,1159.348,1111.135Z"/><path class="k" d="M1151.161,1110.115a35.005,35.005,0,0,1,3.163-2.66,39.27,39.27,0,0,1,6.668-4.047,1.888,1.888,0,0,1,.024.284c-.01.136-.043.271-.056.408-.024.23-.042.461-.057.692a.1.1,0,0,1-.059.1c-.609.327-1.227.642-1.819.994-1.126.667-2.21,1.391-3.265,2.151-.732.526-1.448,1.071-2.16,1.622-.31.24-.588.515-.884.772a.14.14,0,0,1-.1.03c-.317-.058-.632-.124-.949-.183A1.171,1.171,0,0,1,1151.161,1110.115Z"/><path class="k" d="M1154.079,1111.431a2.979,2.979,0,0,0-.265-.4,3.033,3.033,0,0,0-.379-.306,45.4,45.4,0,0,1,7.488-5.116,2.715,2.715,0,0,0,.2.429,2.951,2.951,0,0,0,.338.358,34.926,34.926,0,0,0-3.857,2.307A33.939,33.939,0,0,0,1154.079,1111.431Z"/><path class="k" d="M1152.331,1102.029l3.864,3.268-1.674,1.142-2.212-4.4Z"/><path class="k" d="M1152.457,1108.035l-2.81-3.545.011-.013,4.2,2.457Z"/><path class="k" d="M1155.749,1100.536l2.676,3.376-1.527.924-1.168-4.293Z"/><path class="k" d="M1151.788,1108.6l-1.141,1.031-2.622-2.365.009-.017Z"/><path class="k" d="M1159.229,1103.466l-.267-3.67.02-.005,1.642,3.006Z"/><path class="k" d="M1150.232,1102.215a.43.43,0,0,1-.105.631.512.512,0,0,1-.674-.1.43.43,0,0,1,.1-.63A.51.51,0,0,1,1150.232,1102.215Z"/><path class="k" d="M1155.551,1099.365a.505.505,0,0,1-.672-.093.43.43,0,0,1,.1-.631.511.511,0,0,1,.674.095A.426.426,0,0,1,1155.551,1099.365Z"/><path class="k" d="M1147.866,1104.839a.5.5,0,0,1,.672.1.429.429,0,0,1-.107.63.51.51,0,0,1-.673-.1A.426.426,0,0,1,1147.866,1104.839Z"/><path class="k" d="M1158.169,1097.808a.508.508,0,0,1,.679.1.43.43,0,0,1-.106.625.511.511,0,0,1-.68-.1A.428.428,0,0,1,1158.169,1097.808Z"/><path class="k" d="M1151.878,1100.645a.428.428,0,0,1,.1-.625.508.508,0,0,1,.679.1.425.425,0,0,1-.108.628A.505.505,0,0,1,1151.878,1100.645Z"/><path class="k" d="M1153.276,1115.848l-.665-.829-.829,1.218Z"/><path class="k" d="M1151.33,1117.192l-.665-.829-.829,1.218Z"/><path class="k" d="M1149.385,1118.537l-.666-.829-.829,1.218Z"/><path class="k" d="M1147.44,1119.881l-.665-.829-.829,1.218Z"/><path class="k" d="M1145.5,1121.226l-.666-.829-.829,1.218Z"/><path class="k" d="M1143.55,1122.57l-.666-.829-.829,1.218Z"/><path class="k" d="M1141.605,1123.915l-.665-.829-.829,1.218Z"/><path class="k" d="M1139.66,1125.259l-.665-.829-.829,1.218Z"/><path class="g" d="M1185.241,1070.864c-.952-1.038-2.058-2.05-2.521-2.582-.347-.4-.593-.7-.694-.828v-.065l-.026.033-.026-.033v.065c-.1.126-.347.43-.694.828-.463.532-1.569,1.544-2.52,2.582a3.156,3.156,0,0,0-.849,2.936,2.109,2.109,0,0,0,2.494,1.493,1.581,1.581,0,0,0,1.006-.534,3.288,3.288,0,0,1-.817,1.852h2.743a3.513,3.513,0,0,1-.742-1.845,1.576,1.576,0,0,0,1,.527,2.109,2.109,0,0,0,2.494-1.493A3.157,3.157,0,0,0,1185.241,1070.864Z"/><text class="l" transform="translate(1182 1064.109)"><tspan x="-4.823" y="0">Q</tspan></text><path class="c" d="M1144.549,1000a2.4,2.4,0,0,0-2.52,2.8l.846,3.361c-3.92,2.945-10.45,7.384-16.206,11.922-5.951,4.691-7.15,9.381-6.514,13.468a8.1,8.1,0,0,0,1.545,7.513l-.06-.976a17.429,17.429,0,0,0,2.226,5.481c.222.484.454.962.7,1.429H1102.5v57c0,11.215,7.835,21.238,17.142,29.188-.144.307-.289.614-.422.943a33.931,33.931,0,0,0-2.221,7.861c-3.01,1.541-6,4.931-6,6.99,0,2.728,2.91,2.08,6.5,2.08,2.843,0,5.254-.576,6.136-2.17a22.179,22.179,0,0,0,7.4-4.7q.792-.781,1.525-1.583A139.806,139.806,0,0,0,1150,1150V1000Z"/><g class="m"><rect class="g" width="2" height="128" rx="1" transform="translate(1107 1014.129)"/><path class="b" d="M1112.666,1017.133c-1.37-1.495-2.962-2.952-3.629-3.718-.5-.574-.854-1.01-1-1.192v-.094l-.037.047-.037-.047v.094c-.146.182-.5.618-1,1.192-.667.766-2.259,2.223-3.629,3.718a4.541,4.541,0,0,0-1.222,4.227,3.037,3.037,0,0,0,3.592,2.151,2.274,2.274,0,0,0,1.448-.769,4.728,4.728,0,0,1-1.177,2.666h3.95a5.054,5.054,0,0,1-1.068-2.656,2.274,2.274,0,0,0,1.439.759,3.037,3.037,0,0,0,3.592-2.151A4.541,4.541,0,0,0,1112.666,1017.133Z"/><rect class="c" width="6" height="130" transform="translate(1102 1012.129)"/></g><path class="b" d="M1198.565,1076.588c.915,1.685,2.086,4.268,1,6.134-1.332,2.289-5.444,2.589-7.284.792,1.471-1.7.545-4.83-1.53-6.172a18.369,18.369,0,0,0,3.268-2.973c.637-.632,1.209-1.3,2.15-.91C1197.244,1073.9,1198.02,1075.583,1198.565,1076.588Z"/><path class="b" d="M1197.526,1082.88a3.535,3.535,0,0,1-1.641,1.618,3.188,3.188,0,0,1-1.074.208,6.893,6.893,0,0,1-1.829-.26,4.7,4.7,0,0,1-1.188-.437,3.614,3.614,0,0,1-1.584-2.066,7.848,7.848,0,0,1,.356-4.979c.684-1.909,1.888-5.036,4.589-3.644C1198.624,1075.1,1199.123,1080.052,1197.526,1082.88Z"/><path class="j" d="M1101.435,1076.588c-.915,1.685-2.086,4.268-1,6.134,1.332,2.289,5.444,2.589,7.284.792-1.471-1.7-.545-4.83,1.53-6.172a18.369,18.369,0,0,1-3.268-2.973c-.637-.632-1.209-1.3-2.15-.91C1102.756,1073.9,1101.98,1075.583,1101.435,1076.588Z"/><path class="j" d="M1106.092,1081.2a2.285,2.285,0,0,0,.181,1.37,1.861,1.861,0,0,0,.4.49,3.694,3.694,0,0,0,.894.541,2.435,2.435,0,0,0,.67.224,1.89,1.89,0,0,0,1.392-.411,4.76,4.76,0,0,0,1.514-2.51c.339-1.161.858-3.093-.8-3.41C1108.22,1077.088,1106.338,1079.273,1106.092,1081.2Z"/></g></svg>