<svg xmlns="http://www.w3.org/2000/svg" xmlns:xlink="http://www.w3.org/1999/xlink" viewBox="0 0 100 150"><defs><style>.a{fill:none;}.c{fill:#752125;}.d,.j,.n{fill:#eb3b56;}.e{fill:#e5284c;}.f{fill:#d31341;}.g,.o{fill:#e6e6e6;}.h{fill:#ff83a1;}.i{fill:#f74668;}.j{opacity:0.5;}.k,.m{fill:#fff;}.k{opacity:0.1;}.l{clip-path:url(#a);}.m{opacity:0.05;}.n{font-size:13px;}.n,.o{font-family:MyriadPro-Regular, Myriad Pro;}.o{font-size:14px;}</style><clipPath id="a"><path class="a" d="M711.028,1163.107a3.061,3.061,0,0,1-6.056,0c-3.1.075-3.514,3.552-2.43,5.309a16.234,16.234,0,0,0,2.729,3.439c.572.592,1.2,1.222,1.729,1.793v117.489a.994.994,0,0,0,.992.992h.016a.994.994,0,0,0,.992-.992V1173.648c.527-.571,1.157-1.2,1.729-1.793a16.234,16.234,0,0,0,2.729-3.439C714.542,1166.659,714.131,1163.182,711.028,1163.107Z"/></clipPath></defs><g class="b" transform="translate(-700 -1150)"><path class="c" d="M733.844,1276.552c6.382,3.924,2.708,10.189-2.806,15.637-4,3.956-10.69,6.594-12.642,5.062-2.566-2.013-1.854-8.549.824-15.12C722.145,1274.952,727.494,1272.648,733.844,1276.552Z"/><path class="d" d="M724,1295.422c0,2.728-2.91,3.64-6.5,3.64s-6.5.648-6.5-2.08,5.25-7.8,8.84-7.8S724,1292.694,724,1295.422Z"/><path class="c" d="M766.156,1276.552c-6.382,3.924-2.708,10.189,2.806,15.637,4,3.956,10.69,6.594,12.642,5.062,2.566-2.013,1.854-8.549-.824-15.12C777.855,1274.952,772.506,1272.648,766.156,1276.552Z"/><path class="d" d="M776,1295.422c0,2.728,2.91,3.64,6.5,3.64s6.5.648,6.5-2.08-5.25-7.8-8.84-7.8S776,1292.694,776,1295.422Z"/><path class="e" d="M750,1297.259c6.687-3.076,45-21.735,45-45.259v-57H705v57C705,1275.524,743.312,1294.183,750,1297.259Z"/><path class="f" d="M792.5,1252c0,18.925-29.013,36.284-42.5,42.524-13.494-6.228-42.5-23.561-42.5-42.524v-57h-5v57c0,27.614,47.5,48,47.5,48h0s47.5-20.386,47.5-48v-57h-5Z"/><path class="g" d="M753.082,1228.251a3.116,3.116,0,0,1-6.164,0c-3.159.076-3.578,3.616-2.474,5.4a16.488,16.488,0,0,0,2.778,3.5,26.66,26.66,0,0,1,2.74,3.027s.024.086.038.063c.014.023.038-.063.038-.063a26.66,26.66,0,0,1,2.74-3.027,16.488,16.488,0,0,0,2.778-3.5C756.66,1231.867,756.241,1228.327,753.082,1228.251Z"/><path class="g" d="M753.082,1254.751a3.116,3.116,0,0,1-6.164,0c-3.159.076-3.578,3.616-2.474,5.4a16.488,16.488,0,0,0,2.778,3.5,26.66,26.66,0,0,1,2.74,3.027s.024.086.038.063c.014.023.038-.063.038-.063a26.66,26.66,0,0,1,2.74-3.027,16.488,16.488,0,0,0,2.778-3.5C756.66,1258.367,756.241,1254.827,753.082,1254.751Z"/><path class="g" d="M766.082,1241.5a3.116,3.116,0,0,1-6.164,0c-3.159.076-3.578,3.616-2.474,5.4a16.488,16.488,0,0,0,2.778,3.5,26.66,26.66,0,0,1,2.74,3.027s.024.086.038.063c.014.023.038-.063.038-.063a26.66,26.66,0,0,1,2.74-3.027,16.488,16.488,0,0,0,2.778-3.5C769.66,1245.117,769.241,1241.577,766.082,1241.5Z"/><path class="g" d="M766.082,1215a3.116,3.116,0,0,1-6.164,0c-3.159.076-3.578,3.616-2.474,5.4a16.488,16.488,0,0,0,2.778,3.5,26.66,26.66,0,0,1,2.74,3.027s.024.086.038.063c.014.023.038-.063.038-.063a26.66,26.66,0,0,1,2.74-3.027,16.488,16.488,0,0,0,2.778-3.5C769.66,1218.617,769.241,1215.077,766.082,1215Z"/><path class="g" d="M766.082,1268a3.116,3.116,0,0,1-6.164,0c-3.159.076-3.578,3.616-2.474,5.4a16.488,16.488,0,0,0,2.778,3.5,26.66,26.66,0,0,1,2.74,3.027s.024.086.038.063c.014.023.038-.063.038-.063a26.66,26.66,0,0,1,2.74-3.027,16.488,16.488,0,0,0,2.778-3.5C769.66,1271.617,769.241,1268.077,766.082,1268Z"/><path class="g" d="M740.082,1241.5a3.116,3.116,0,0,1-6.164,0c-3.159.076-3.578,3.616-2.474,5.4a16.488,16.488,0,0,0,2.778,3.5,26.66,26.66,0,0,1,2.74,3.027s.024.086.038.063c.014.023.038-.063.038-.063a26.66,26.66,0,0,1,2.74-3.027,16.488,16.488,0,0,0,2.778-3.5C743.66,1245.117,743.241,1241.577,740.082,1241.5Z"/><path class="g" d="M740.082,1215a3.116,3.116,0,0,1-6.164,0c-3.159.076-3.578,3.616-2.474,5.4a16.488,16.488,0,0,0,2.778,3.5,26.66,26.66,0,0,1,2.74,3.027s.024.086.038.063c.014.023.038-.063.038-.063a26.66,26.66,0,0,1,2.74-3.027,16.488,16.488,0,0,0,2.778-3.5C743.66,1218.617,743.241,1215.077,740.082,1215Z"/><path class="g" d="M740.082,1268a3.116,3.116,0,0,1-6.164,0c-3.159.076-3.578,3.616-2.474,5.4a16.488,16.488,0,0,0,2.778,3.5,26.66,26.66,0,0,1,2.74,3.027s.024.086.038.063c.014.023.038-.063.038-.063a26.66,26.66,0,0,1,2.74-3.027,16.488,16.488,0,0,0,2.778-3.5C743.66,1271.617,743.241,1268.077,740.082,1268Z"/><path class="d" d="M721.7,1189.066c-2.507-2.929-2.366-7.518-.557-9.066"/><path class="d" d="M778.1,1189.066c2.507-2.929,2.366-7.518.557-9.066"/><path class="d" d="M778.814,1180.608C780.009,1194.8,765.9,1210,749.965,1210s-28.85-12.162-28.85-29.392c0-.2,28.65-7.094,28.85-7.094C751.159,1173.514,778.8,1180.406,778.814,1180.608Z"/><path class="e" d="M765.266,1160.15c-11.9-.285-14.636,8.768-15.266,13.123-.63-4.355-3.37-13.408-15.266-13.123-15.643.376-17.716,17.843-12.251,26.671s8.293,9.566,13.759,15.2c5.147,5.307,11.3-.155,13.57,3.5,0,0,.121.427.188.311.067.116.188-.311.188-.311,2.273-3.659,8.423,1.8,13.57-3.5,5.466-5.634,8.293-6.373,13.759-15.2S780.909,1160.526,765.266,1160.15Z"/><g class="b"><path class="h" d="M735.278,1160.144v2c9.648,0,12.124,7.152,12.742,11.416a2,2,0,0,0,3.958,0c.618-4.264,3.093-11.416,12.742-11.416.163,0,.33,0,.5.006,5.113.122,8.967,2.316,11.148,6.344a18.5,18.5,0,0,1-.55,17.274,39.72,39.72,0,0,1-8.934,10.567c-1.324,1.175-2.825,2.506-4.559,4.294a5.845,5.845,0,0,1-4.586,1.869,21.917,21.917,0,0,1-2.363-.173,20.973,20.973,0,0,0-2.272-.168,6.6,6.6,0,0,1-6.2,0,20.973,20.973,0,0,0-2.272.168,21.917,21.917,0,0,1-2.363.173,5.845,5.845,0,0,1-4.586-1.869c-1.734-1.788-3.235-3.119-4.559-4.294a39.72,39.72,0,0,1-8.934-10.567,18.5,18.5,0,0,1-.55-17.274c2.181-4.028,6.035-6.222,11.148-6.344.168,0,.332-.006.5-.006v-2m29.443,0c-11.436,0-14.1,8.842-14.721,13.129-.621-4.287-3.287-13.129-14.721-13.129-.18,0-.361,0-.545.006-15.643.376-17.716,17.843-12.251,26.671s8.293,9.566,13.759,15.2a7.858,7.858,0,0,0,6.021,2.477c1.69,0,3.29-.341,4.635-.341a3.068,3.068,0,0,1,2.914,1.368s.094.331.162.331c.009,0,.018-.006.026-.02.008.014.017.02.026.02.068,0,.162-.331.162-.331a3.068,3.068,0,0,1,2.914-1.368c1.345,0,2.945.341,4.635.341a7.859,7.859,0,0,0,6.021-2.477c5.466-5.634,8.293-6.373,13.759-15.2s3.392-26.3-12.251-26.671q-.276-.006-.545-.006Z"/></g><path class="g" d="M750,1184.459l-7.971-31.657a2.4,2.4,0,0,1,2.52-2.8h10.9a2.4,2.4,0,0,1,2.52,2.8Z"/><path class="i" d="M750,1191.554c-10.949,0-20.971-2.6-28.732-6.921,0,18.07,28.732,25.164,28.732,25.164s28.732-8.108,28.732-25.164C770.971,1188.949,760.949,1191.554,750,1191.554Z"/><path class="d" d="M772.166,1192.139q.144-1.07.286-2.139a2.171,2.171,0,0,1,.413-1.164c.5-.622,1.477-1.01,1.881-.4.371.565.168,1.5.128,2.139a10.977,10.977,0,0,1-1.278,4.372,1.466,1.466,0,0,1-.419.539,1.443,1.443,0,0,1-.885.276c-.507-.033-.557-.4-.517-.7Q771.97,1193.6,772.166,1192.139Z"/><path class="d" d="M765.443,1195.583l.178-2.758a2.775,2.775,0,0,1,.4-1.485c.532-.776,1.645-1.218,2.159-.4a5.557,5.557,0,0,1,.3,2.785,14.394,14.394,0,0,1-1.171,5.593,1.624,1.624,0,0,1-.449.673,1.42,1.42,0,0,1-1.008.3c-.593-.074-.678-.554-.653-.939Q765.321,1197.47,765.443,1195.583Z"/><path class="d" d="M758.834,1198.442l.273-3.415a3.737,3.737,0,0,1,.469-1.815c.6-.922,1.8-1.378,2.334-.313.486.98.269,2.452.244,3.489a19.728,19.728,0,0,1-1.423,6.86,1.927,1.927,0,0,1-.5.8,1.333,1.333,0,0,1-1.094.293c-.635-.142-.712-.746-.675-1.222Q758.648,1200.781,758.834,1198.442Z"/><path class="d" d="M752.126,1200.3q.02-1.926.038-3.851a4.239,4.239,0,0,1,.369-2.055c.573-1.053,1.844-1.6,2.494-.414.6,1.09.474,2.752.526,3.92a22.637,22.637,0,0,1-1.02,7.76,2.067,2.067,0,0,1-.481.914,1.353,1.353,0,0,1-1.158.358c-.7-.143-.824-.821-.819-1.358Z"/><path class="d" d="M727.834,1192.139q-.144-1.07-.286-2.139a2.171,2.171,0,0,0-.413-1.164c-.5-.622-1.477-1.01-1.881-.4-.371.565-.168,1.5-.128,2.139a10.977,10.977,0,0,0,1.278,4.372,1.466,1.466,0,0,0,.419.539,1.443,1.443,0,0,0,.885.276c.507-.033.557-.4.517-.7Q728.03,1193.6,727.834,1192.139Z"/><path class="d" d="M734.641,1195.583l-.178-2.758a2.784,2.784,0,0,0-.4-1.485c-.532-.776-1.646-1.218-2.159-.4a5.556,5.556,0,0,0-.3,2.785,14.376,14.376,0,0,0,1.171,5.593,1.605,1.605,0,0,0,.449.673,1.418,1.418,0,0,0,1.008.3c.593-.074.678-.554.653-.939Q734.763,1197.47,734.641,1195.583Z"/><path class="d" d="M741.333,1198.442q-.135-1.709-.272-3.415a3.737,3.737,0,0,0-.469-1.815c-.595-.922-1.806-1.378-2.335-.313-.486.98-.268,2.452-.244,3.489a19.751,19.751,0,0,0,1.423,6.86,1.919,1.919,0,0,0,.5.8,1.331,1.331,0,0,0,1.093.293c.635-.142.713-.746.675-1.222Q741.519,1200.781,741.333,1198.442Z"/><path class="d" d="M748.125,1200.3q-.02-1.926-.038-3.851a4.24,4.24,0,0,0-.369-2.055c-.573-1.053-1.844-1.6-2.494-.414-.6,1.09-.474,2.752-.526,3.92a22.638,22.638,0,0,0,1.02,7.76,2.067,2.067,0,0,0,.481.914,1.353,1.353,0,0,0,1.158.358c.7-.143.824-.821.819-1.358Z"/><path class="j" d="M750,1188.514a110,110,0,0,1-28.055-3.51,63.358,63.358,0,0,0,56.11,0A110,110,0,0,1,750,1188.514Z"/><path class="g" d="M784.1,1217.908a2.126,2.126,0,0,1-4.206,0c-2.154.052-2.44,2.466-1.687,3.686a11.249,11.249,0,0,0,1.895,2.388,18.153,18.153,0,0,1,1.869,2.065s.017.059.026.043c.009.016.026-.043.026-.043a18.153,18.153,0,0,1,1.869-2.065,11.249,11.249,0,0,0,1.895-2.388C786.543,1220.374,786.257,1217.96,784.1,1217.908Z"/><path class="k" d="M744.549,1150a2.4,2.4,0,0,0-2.52,2.8l2.571,10.209c-2.256-1.769-5.421-2.967-9.866-2.861-12.771.307-16.495,12.005-14.458,21.093a8.007,8.007,0,0,0,1.424,7.823l-.06-.976a17.431,17.431,0,0,0,2.226,5.481c.222.484.454.962.7,1.429H702.5v57c0,11.215,7.835,21.238,17.142,29.188-.144.307-.289.614-.422.943a33.928,33.928,0,0,0-2.221,7.861c-3.01,1.541-6,4.931-6,6.99,0,2.728,2.91,2.08,6.5,2.08,2.843,0,5.254-.576,6.136-2.17a22.18,22.18,0,0,0,7.4-4.7q.792-.781,1.525-1.583A139.8,139.8,0,0,0,750,1300V1150Z"/><g class="l"><rect class="g" width="2" height="126" rx="0.992" transform="translate(707 1166.129)"/><path class="d" d="M711.028,1163.107a3.061,3.061,0,0,1-6.056,0c-3.1.075-3.514,3.552-2.43,5.309a16.234,16.234,0,0,0,2.729,3.439,26.172,26.172,0,0,1,2.692,2.973s.024.085.037.062c.013.023.037-.062.037-.062a26.172,26.172,0,0,1,2.692-2.973,16.234,16.234,0,0,0,2.729-3.439C714.542,1166.659,714.131,1163.182,711.028,1163.107Z"/><rect class="m" width="6" height="130" transform="translate(702 1162.129)"/></g><path class="d" d="M798.565,1226.588c.915,1.685,2.086,4.268.995,6.134-1.332,2.289-5.444,2.589-7.284.792,1.471-1.7.545-4.83-1.53-6.172a18.368,18.368,0,0,0,3.268-2.973c.637-.632,1.209-1.3,2.15-.91C797.244,1223.9,798.02,1225.583,798.565,1226.588Z"/><path class="d" d="M797.526,1232.88a3.535,3.535,0,0,1-1.641,1.618,3.188,3.188,0,0,1-1.074.208,6.894,6.894,0,0,1-1.829-.26,4.7,4.7,0,0,1-1.188-.437,3.614,3.614,0,0,1-1.584-2.066,7.848,7.848,0,0,1,.356-4.979c.684-1.909,1.888-5.036,4.589-3.644C798.624,1225.1,799.123,1230.052,797.526,1232.88Z"/><text class="n" transform="translate(750 1163.522)"><tspan x="-3.335" y="0">8</tspan></text><text class="o" transform="translate(782 1214.109)"><tspan x="-3.591" y="0">8</tspan></text><path class="d" d="M701.435,1226.588c-.915,1.685-2.086,4.268-.995,6.134,1.332,2.289,5.444,2.589,7.284.792-1.471-1.7-.545-4.83,1.53-6.172a18.368,18.368,0,0,1-3.268-2.973c-.637-.632-1.209-1.3-2.15-.91C702.756,1223.9,701.98,1225.583,701.435,1226.588Z"/><path class="d" d="M706.092,1231.2a2.285,2.285,0,0,0,.181,1.37,1.861,1.861,0,0,0,.4.49,3.692,3.692,0,0,0,.894.541,2.435,2.435,0,0,0,.67.224,1.89,1.89,0,0,0,1.392-.411,4.759,4.759,0,0,0,1.514-2.51c.339-1.161.858-3.093-.8-3.41C708.22,1227.088,706.338,1229.273,706.092,1231.2Z"/></g></svg>