<svg xmlns="http://www.w3.org/2000/svg" xmlns:xlink="http://www.w3.org/1999/xlink" viewBox="0 0 100 150"><defs><style>.a,.h{fill:none;}.b,.d,.j{fill:#27123e;}.c,.m{fill:#fff;}.c{opacity:0.1;}.d{opacity:0.6;}.e{opacity:0.3;}.f,.k,.o{fill:#15b0bf;}.g{opacity:0.96;}.h{stroke-linecap:round;stroke-miterlimit:10;opacity:0.2;}.i{clip-path:url(#a);}.j{font-size:13px;}.j,.k{font-family:MyriadPro-Regular, Myriad Pro;}.k{font-size:14px;}.l{fill:#3c2a54;}.n,.o{stroke:none;}</style><clipPath id="a"><path class="a" d="M1013.229,1467.679a3.086,3.086,0,0,0-3.3-.579,2.4,2.4,0,0,0,.862-2.051c0-.034,0-.067,0-.1a2.82,2.82,0,1,0-5.581.572,2.544,2.544,0,0,0,.86,1.579,3.086,3.086,0,0,0-3.3.579,2.944,2.944,0,0,0-.241,3.662,2.616,2.616,0,0,0,2.47,1.378,2.856,2.856,0,0,0,2-.737v1.328a5.871,5.871,0,0,1-.928,1.646H1007v116.173a1,1,0,0,0,2,0V1474.956h.928a5.108,5.108,0,0,1-.928-1.615v-1.359a2.858,2.858,0,0,0,2,.737,2.616,2.616,0,0,0,2.47-1.378A2.944,2.944,0,0,0,1013.229,1467.679Z"/></clipPath></defs><g transform="translate(-1000 -1450)"><path class="b" d="M1033.844,1576.552c6.382,3.924,2.708,10.189-2.806,15.637-4,3.956-10.69,6.594-12.642,5.062-2.566-2.013-1.854-8.549.824-15.12C1022.145,1574.952,1027.494,1572.648,1033.844,1576.552Z"/><path class="b" d="M1024,1595.422c0,2.728-2.91,3.64-6.5,3.64s-6.5.648-6.5-2.08,5.25-7.8,8.84-7.8S1024,1592.694,1024,1595.422Z"/><path class="b" d="M1066.156,1576.552c-6.382,3.924-2.708,10.189,2.806,15.637,4,3.956,10.69,6.594,12.642,5.062,2.566-2.013,1.854-8.549-.824-15.12C1077.855,1574.952,1072.506,1572.648,1066.156,1576.552Z"/><path class="b" d="M1076,1595.422c0,2.728,2.91,3.64,6.5,3.64s6.5.648,6.5-2.08-5.25-7.8-8.84-7.8S1076,1592.694,1076,1595.422Z"/><path class="b" d="M1095,1495h-90v57c0,23.524,38.313,42.183,45,45.259,6.688-3.076,45-21.735,45-45.259Z"/><path class="b" d="M1092.5,1552c0,18.925-29.013,36.284-42.5,42.524-13.494-6.228-42.5-23.561-42.5-42.524v-57h-5v57c0,27.614,47.5,48,47.5,48h0s47.5-20.386,47.5-48v-57h-5Z"/><path class="c" d="M1007.5,1495h-5v57c0,27.614,47.5,48,47.5,48V1495Z"/><path class="b" d="M1021.7,1489.066c-2.507-2.929-2.366-7.518-.557-9.066"/><path class="b" d="M1078.1,1489.066c2.507-2.929,2.366-7.518.557-9.066"/><path class="d" d="M1078.814,1480.608c1.2,14.189-12.916,29.392-28.849,29.392s-28.85-12.162-28.85-29.392c0-.2,28.65-7.094,28.85-7.094C1051.159,1473.514,1078.8,1480.406,1078.814,1480.608Z"/><path class="b" d="M1076.146,1473.779c-6.507-4.927-14.507-2-14.507-2,2.795-2.07,4.662-3.715,4.312-7.11.006-.115.013-.23.013-.346,0-5.4-8.312-9.771-16.1-9.771s-16.1,4.375-16.1,9.771a6.921,6.921,0,0,0,.291,1.984c.321,2.348,2,3.765,4.3,5.472,0,0-8-2.923-14.507,2s-3.253,10.774-1.205,12.694,5.119,5.146,12.351,4.774c6.4-.33-.4,4.188,4,1.753-.525,6.7,1.361,6,1.361,6h19.278c-3.544-2.583-1.048-3.3-.639-6,4.3,2.385-.343-2.08,6-1.753,7.232.372,10.3-2.853,12.351-4.774S1082.652,1478.707,1076.146,1473.779Z"/><g class="e"><path class="f" d="M1049.867,1456.548c6.982,0,14.1,3.922,14.1,7.771,0,.067-.005.134-.01.244a1.857,1.857,0,0,0,.008.307c.222,2.159-.638,3.168-3.514,5.3a2,2,0,0,0,1.871,3.488,16.093,16.093,0,0,1,4.87-.741,12.52,12.52,0,0,1,7.749,2.459c1.936,1.466,2.964,3.09,3.055,4.828a6.7,6.7,0,0,1-2.01,4.812c-.422.4-.849.875-1.3,1.382-1.935,2.17-4.344,4.87-8.954,4.87q-.306,0-.624-.017c-.263-.013-.509-.019-.74-.019-2.248,0-3.754.637-4.557,1.94a2,2,0,0,0-2.783,1.531,4.773,4.773,0,0,1-.541,1.439,4.958,4.958,0,0,0-.681,2.86h-14.752a14.709,14.709,0,0,1-.055-3.844,2,2,0,0,0-.912-1.838,2.046,2.046,0,0,0-.4-.2,2.747,2.747,0,0,0-.149-.283c-.864-1.439-2.637-1.606-3.9-1.606q-.341,0-.736.02-.318.016-.624.017c-4.61,0-7.019-2.7-8.955-4.87-.452-.508-.88-.987-1.3-1.382a6.7,6.7,0,0,1-2.01-4.811c.091-1.739,1.119-3.363,3.055-4.829a12.513,12.513,0,0,1,7.749-2.459,16.1,16.1,0,0,1,4.864.739,2,2,0,0,0,1.877-3.486c-2.265-1.678-3.309-2.673-3.509-4.136a2.025,2.025,0,0,0-.065-.3,4.957,4.957,0,0,1-.208-1.413c0-3.849,7.114-7.771,14.1-7.771m0-2c-7.786,0-16.1,4.375-16.1,9.771a6.921,6.921,0,0,0,.291,1.984c.321,2.348,2,3.765,4.3,5.472a17.809,17.809,0,0,0-5.55-.86,14.611,14.611,0,0,0-8.957,2.864c-6.506,4.928-3.253,10.774-1.205,12.694,1.978,1.855,4.911,6.793,11.624,6.793.238,0,.479-.006.727-.019q.341-.018.633-.018c4.122,0,1.3,2.495,1.841,2.495A5.938,5.938,0,0,0,1039,1495c-.434,5.542.782,6.021,1.215,6.021a.453.453,0,0,0,.146-.021h19.278c-3.544-2.583-1.048-3.3-.639-6a4.483,4.483,0,0,0,1.722.7c1.054,0-.558-2.474,3.641-2.474.2,0,.411.005.637.017.247.013.49.019.727.019,6.714,0,9.645-4.938,11.624-6.793,2.048-1.92,5.3-7.766-1.2-12.694a14.618,14.618,0,0,0-8.957-2.864,17.809,17.809,0,0,0-5.55.86c2.795-2.07,4.662-3.715,4.312-7.11.006-.115.013-.23.013-.346,0-5.4-8.312-9.771-16.1-9.771Z"/></g><path class="b" d="M1050,1491.554c-10.949,0-20.971-2.6-28.732-6.921,0,18.07,28.732,25.164,28.732,25.164s28.732-8.108,28.732-25.164C1070.971,1488.949,1060.949,1491.554,1050,1491.554Z"/><path class="f" d="M1050,1484.459l-7.971-31.657a2.4,2.4,0,0,1,2.52-2.8h10.9a2.4,2.4,0,0,1,2.52,2.8Z"/><g class="g"><path class="b" d="M1072.166,1492.139q.144-1.07.286-2.139a2.172,2.172,0,0,1,.413-1.164c.5-.622,1.477-1.01,1.881-.4.371.565.168,1.5.128,2.139a10.977,10.977,0,0,1-1.278,4.372,1.466,1.466,0,0,1-.419.539,1.443,1.443,0,0,1-.885.276c-.507-.033-.557-.4-.517-.7Q1071.97,1493.6,1072.166,1492.139Z"/><path class="b" d="M1065.443,1495.583l.178-2.758a2.775,2.775,0,0,1,.4-1.485c.532-.776,1.645-1.218,2.159-.4a5.556,5.556,0,0,1,.3,2.785,14.393,14.393,0,0,1-1.171,5.593,1.624,1.624,0,0,1-.449.673,1.42,1.42,0,0,1-1.008.3c-.593-.074-.678-.554-.653-.939Q1065.321,1497.47,1065.443,1495.583Z"/><path class="b" d="M1058.834,1498.442l.273-3.415a3.737,3.737,0,0,1,.469-1.815c.595-.922,1.8-1.378,2.334-.313.486.98.269,2.452.244,3.489a19.728,19.728,0,0,1-1.423,6.86,1.925,1.925,0,0,1-.5.8,1.333,1.333,0,0,1-1.094.293c-.635-.142-.712-.746-.675-1.222Q1058.647,1500.781,1058.834,1498.442Z"/><path class="b" d="M1052.126,1500.3q.02-1.926.038-3.851a4.242,4.242,0,0,1,.369-2.055c.573-1.053,1.844-1.6,2.494-.414.6,1.09.474,2.752.526,3.92a22.637,22.637,0,0,1-1.02,7.76,2.067,2.067,0,0,1-.481.914,1.353,1.353,0,0,1-1.158.358c-.7-.143-.824-.821-.819-1.358Z"/><path class="b" d="M1027.834,1492.139q-.144-1.07-.286-2.139a2.172,2.172,0,0,0-.413-1.164c-.5-.622-1.477-1.01-1.881-.4-.371.565-.168,1.5-.128,2.139a10.977,10.977,0,0,0,1.278,4.372,1.466,1.466,0,0,0,.419.539,1.443,1.443,0,0,0,.885.276c.507-.033.557-.4.517-.7Q1028.03,1493.6,1027.834,1492.139Z"/><path class="b" d="M1034.641,1495.583l-.178-2.758a2.784,2.784,0,0,0-.4-1.485c-.532-.776-1.646-1.218-2.159-.4a5.557,5.557,0,0,0-.3,2.785,14.375,14.375,0,0,0,1.171,5.593,1.605,1.605,0,0,0,.449.673,1.418,1.418,0,0,0,1.008.3c.593-.074.678-.554.653-.939Q1034.763,1497.47,1034.641,1495.583Z"/><path class="b" d="M1041.333,1498.442q-.135-1.709-.272-3.415a3.738,3.738,0,0,0-.469-1.815c-.6-.922-1.806-1.378-2.335-.313-.486.98-.268,2.452-.244,3.489a19.75,19.75,0,0,0,1.423,6.86,1.918,1.918,0,0,0,.5.8,1.331,1.331,0,0,0,1.093.293c.635-.142.713-.746.675-1.222Q1041.52,1500.781,1041.333,1498.442Z"/><path class="b" d="M1048.125,1500.3q-.019-1.926-.038-3.851a4.24,4.24,0,0,0-.369-2.055c-.573-1.053-1.844-1.6-2.494-.414-.6,1.09-.474,2.752-.526,3.92a22.637,22.637,0,0,0,1.02,7.76,2.067,2.067,0,0,0,.481.914,1.354,1.354,0,0,0,1.158.358c.695-.143.824-.821.819-1.358Z"/></g><g class="h"><path class="n" d="M1050,1488.514a109.994,109.994,0,0,1-28.055-3.51,63.358,63.358,0,0,0,56.11,0A110,110,0,0,1,1050,1488.514Z"/><path class="o" d="M 1050 1491.553955078125 C 1039.366943359375 1491.553955078125 1029.608032226563 1489.098022460938 1021.945007324219 1485.004028320313 C 1030.371948242188 1487.243041992188 1039.900024414063 1488.514038085938 1050 1488.514038085938 C 1060.099975585938 1488.514038085938 1069.628051757813 1487.243041992188 1078.055053710938 1485.004028320313 C 1070.391967773438 1489.098022460938 1060.633056640625 1491.553955078125 1050 1491.553955078125 Z"/></g><path class="f" d="M1086.077,1521.326a2.408,2.408,0,0,0-2.574-.451,1.869,1.869,0,0,0,.672-1.6c0-.026,0-.052,0-.078a2.2,2.2,0,1,0-4.35.446,1.985,1.985,0,0,0,.67,1.231,2.408,2.408,0,0,0-2.574.451,2.3,2.3,0,0,0-.188,2.856,2.04,2.04,0,0,0,1.926,1.074,2.479,2.479,0,0,0,1.832-.792,4.524,4.524,0,0,1-1,2.536h3.006a4.266,4.266,0,0,1-.978-2.522,2.46,2.46,0,0,0,1.814.778,2.04,2.04,0,0,0,1.926-1.074A2.3,2.3,0,0,0,1086.077,1521.326Z"/><path class="c" d="M1044.549,1450a2.4,2.4,0,0,0-2.52,2.8l.731,2.9c-5.021,1.647-8.99,4.886-8.99,8.615a6.921,6.921,0,0,0,.291,1.984c.321,2.348,2,3.765,4.3,5.472,0,0-8-2.923-14.507,2-3.459,2.621-4.159,5.5-3.749,7.911a8.144,8.144,0,0,0,1.6,7.376l-.06-.976a17.431,17.431,0,0,0,2.226,5.481c.222.484.454.962.7,1.429H1002.5v57c0,11.215,7.835,21.238,17.142,29.188-.144.307-.289.614-.422.943a33.928,33.928,0,0,0-2.221,7.861c-3.01,1.541-6,4.931-6,6.99,0,2.728,2.91,2.08,6.5,2.08,2.843,0,5.254-.576,6.136-2.17a22.179,22.179,0,0,0,7.4-4.7q.792-.781,1.525-1.583A139.806,139.806,0,0,0,1050,1600V1450Z"/><g class="i"><rect class="f" width="2" height="128" rx="1" transform="translate(1007 1464.129)"/><path class="b" d="M1013.229,1467.679a3.086,3.086,0,0,0-3.3-.579,2.4,2.4,0,0,0,.862-2.051c0-.034,0-.067,0-.1a2.82,2.82,0,1,0-5.581.572,2.544,2.544,0,0,0,.86,1.579,3.086,3.086,0,0,0-3.3.579,2.944,2.944,0,0,0-.241,3.662,2.616,2.616,0,0,0,2.47,1.378,3.176,3.176,0,0,0,2.349-1.016,5.8,5.8,0,0,1-1.277,3.253h3.856a5.483,5.483,0,0,1-1.255-3.235,3.151,3.151,0,0,0,2.327,1,2.616,2.616,0,0,0,2.47-1.378A2.944,2.944,0,0,0,1013.229,1467.679Z"/><rect class="c" width="6" height="130" transform="translate(1002 1462.129)"/></g><path class="b" d="M1098.565,1526.588c.915,1.685,2.086,4.268,1,6.134-1.332,2.289-5.444,2.589-7.284.792,1.471-1.7.545-4.83-1.53-6.172a18.369,18.369,0,0,0,3.268-2.973c.637-.632,1.209-1.3,2.15-.91C1097.244,1523.9,1098.02,1525.583,1098.565,1526.588Z"/><path class="b" d="M1097.526,1532.88a3.535,3.535,0,0,1-1.641,1.618,3.188,3.188,0,0,1-1.074.208,6.893,6.893,0,0,1-1.829-.26,4.7,4.7,0,0,1-1.188-.437,3.614,3.614,0,0,1-1.584-2.066,7.848,7.848,0,0,1,.356-4.979c.684-1.909,1.888-5.036,4.589-3.644C1098.624,1525.1,1099.123,1530.052,1097.526,1532.88Z"/><text class="j" transform="translate(1050 1463.522)"><tspan x="-2.405" y="0">J</tspan></text><text class="k" transform="translate(1082 1514.109)"><tspan x="-2.59" y="0">J</tspan></text><path class="l" d="M1001.435,1526.588c-.915,1.685-2.086,4.268-.995,6.134,1.332,2.289,5.444,2.589,7.284.792-1.471-1.7-.545-4.83,1.53-6.172a18.368,18.368,0,0,1-3.268-2.973c-.637-.632-1.209-1.3-2.15-.91C1002.756,1523.9,1001.98,1525.583,1001.435,1526.588Z"/><path class="l" d="M1006.092,1531.2a2.285,2.285,0,0,0,.181,1.37,1.861,1.861,0,0,0,.4.49,3.692,3.692,0,0,0,.894.541,2.435,2.435,0,0,0,.67.224,1.89,1.89,0,0,0,1.392-.411,4.759,4.759,0,0,0,1.514-2.51c.339-1.161.858-3.093-.8-3.41C1008.22,1527.088,1006.338,1529.273,1006.092,1531.2Z"/><path class="f" d="M1053.875,1537.78v-15.888h-9.607v15.428c-4.9,2.19-8.426,7.948-8.426,14.681v24.975h25.534V1552C1061.376,1545.7,1058.286,1540.25,1053.875,1537.78Z"/><path class="l" d="M1046.527,1526.14h-2.315l-1.543-6.087h2.528Z"/><path class="l" d="M1059.493,1540.381l-4.609-12.887h.238l1.7-8.4h-16.18l2.555,8.4h6.914l1.149,9.319Z"/><path class="m" d="M1055.815,1525.16l-13.146.467-.506-1.4h13.652Z"/><path class="l" d="M1044.034,1555.817l13.3-18.987,15,19.305-14.495,18.973Z"/><path class="l" d="M1064.88,1576.976H1050.6l-23.1-42.013h14.283Z"/><path class="m" d="M1059.054,1574.736l-22.778-39.6a.253.253,0,0,0-.322-.1l-.221.1a.251.251,0,0,0-.111.351l22.777,39.606a.249.249,0,0,0,.323.1l.22-.1a.251.251,0,0,0,.112-.352Z"/><path class="m" d="M1062.217,1574.772l-22.777-39.6a.253.253,0,0,0-.321-.1l-.222.1a.247.247,0,0,0-.133.15.25.25,0,0,0,.021.2l22.778,39.6a.249.249,0,0,0,.216.125.269.269,0,0,0,.106-.023l.22-.1a.246.246,0,0,0,.133-.151A.249.249,0,0,0,1062.217,1574.772Z"/><path class="m" d="M1050.314,1548.042a3.921,3.921,0,0,1,.317.314c.217.274.429.552.63.836a.541.541,0,0,0,.476.25q.559,0,1.118,0a.5.5,0,0,0,.5-.294,3.485,3.485,0,0,1,.957-1.218l.083-.062c.006-.005.017,0,.063-.012.043.265.09.528.126.793.019.135.013.273.027.409a.449.449,0,0,0,.439.382,10.554,10.554,0,0,1,4.6,1.367,7.883,7.883,0,0,1,2.761,2.884,13.284,13.284,0,0,1,1.4,3.758,24.377,24.377,0,0,1,.567,4.439c.037.994.037,1.989.053,2.984,0,.04,0,.081-.006.128h-13.181c.034-.209.061-.416.1-.621a4.311,4.311,0,0,1,1.4-2.264c.482-.452.978-.892,1.456-1.346a6.4,6.4,0,0,0,1.975-3.653,9.83,9.83,0,0,0,.12-1.946.478.478,0,0,1,.065-.244,2.5,2.5,0,0,0,.4-1.149,1.235,1.235,0,0,0-.026-.333.434.434,0,0,0-.478-.319.409.409,0,0,0-.413.388,2.207,2.207,0,0,1-.69,1.548,12.784,12.784,0,0,1-2.391,2.124q-.758.549-1.554,1.05a6.639,6.639,0,0,0-1.654,1.464c-.152.189-.309.377-.473.558a.651.651,0,0,1-.457.238c.032-.087.055-.163.087-.236.1-.229.225-.452.31-.687a.555.555,0,0,0-.354-.738.974.974,0,0,0-.646-.005.614.614,0,0,0-.429.64c0,.107.011.215.008.323,0,.082-.044.136-.151.137-.219,0-.439.026-.658.02a.9.9,0,0,1-.823-.513,2.72,2.72,0,0,1-.239-.951,2.062,2.062,0,0,1,.205-1.1,29.311,29.311,0,0,1,1.672-3.1c.509-.847,1.033-1.687,1.561-2.524a3.854,3.854,0,0,1,.4-.5,4.253,4.253,0,0,0,.992-1.606.723.723,0,0,0-.1-.719A1.159,1.159,0,0,1,1050.314,1548.042Zm-.846,4.617a.592.592,0,0,0,.307.572.661.661,0,0,0,.651-.03,1.732,1.732,0,0,0,.563-.526,2.117,2.117,0,0,0,.459-1.059.56.56,0,0,0-.285-.579.66.66,0,0,0-.674.024,1.758,1.758,0,0,0-.576.548A2.14,2.14,0,0,0,1049.468,1552.659Zm-1.617,5.132a.767.767,0,0,0-1.529.005.767.767,0,0,0,1.529-.005Z"/><path class="m" d="M1067.68,1523.759v13.071s4.82-2.5,4.82-6.674S1067.68,1523.759,1067.68,1523.759Z"/><path class="l" d="M1067.726,1523.752a11.082,11.082,0,0,1-2.217,3.639l-.5.445a4.251,4.251,0,0,1-.986.592h-4.673v4.2h5.351c.9.444,2.309,1.684,2.822,5.135C1068.522,1536.721,1073.407,1530.961,1067.726,1523.752Zm-2.673,8.877h.166l.094.108c-.045-.02-.085-.042-.135-.061Z"/><path class="l" d="M1064.157,1522.532c-1.587-1.587-2.194-5.532-2.194-5.532s-.612,3.945-2.2,5.532a5.335,5.335,0,0,1,1.351-.019.964.964,0,0,0-.243.635,1,1,0,0,0,.586.892v-.005l.075.033a.321.321,0,0,1-.075-.028v50.166a.475.475,0,0,0,.506.436.47.47,0,0,0,.5-.436v-50.162a1.006,1.006,0,0,0,.586-.9.964.964,0,0,0-.243-.635A5.324,5.324,0,0,1,1064.157,1522.532Zm-1.693,1.512a1.043,1.043,0,0,1-.156.049,1.419,1.419,0,0,0,.156-.058Z"/><path class="l" d="M1068.379,1552.266l-35.823,24.71h34.888Z"/><path class="m" d="M1030.028,1534.963h2.388l23.4,42.013-3.939.024Z"/><path class="l" d="M1053.519,1574.888l-1.431-1.479-.26-1.7-1.616-1.671-.293-1.915-1.431-1.479-.26-1.7-1.744-1.8-.3-1.794-1.467-1.547-.29-1.753-1.657-1.747-.328-1.98-1.467-1.547-.29-1.753-1.787-1.884-.3-1.794-1.467-1.547-.29-1.753-1.657-1.747-.328-1.98-1.467-1.547-.29-1.753-1.789-1.886.526,2.46,1.327,1.283.431,2.017,1.5,1.449.487,2.278,1.326,1.283.431,2.017,1.618,1.564-.053-.317.52,2.431,1.326,1.283.431,2.017,1.5,1.449.487,2.278,1.326,1.283.431,2.017,1.618,1.564-.051-.308.474,2.34,1.3,1.225.395,1.949,1.464,1.384.446,2.2,1.3,1.225.395,1.949,1.58,1.494Z"/><path class="m" d="M1038.086,1547.959c.263-.12-.22-1.027-.483-.908s.22,1.027.483.908Z"/><path class="m" d="M1036.369,1544.61c.263-.12-.22-1.027-.483-.908s.219,1.027.483.908Z"/><path class="m" d="M1034.342,1540.866c.263-.119-.22-1.027-.483-.907s.219,1.026.483.907Z"/><path class="m" d="M1032.611,1537.523c.263-.119-.22-1.027-.483-.907s.22,1.027.483.907Z"/><path class="m" d="M1045.67,1561.963c.263-.12-.219-1.027-.483-.907s.22,1.026.483.907Z"/><path class="m" d="M1043.953,1558.614c.263-.12-.22-1.027-.483-.907s.22,1.026.483.907Z"/><path class="m" d="M1041.926,1554.87c.263-.119-.22-1.026-.483-.907s.22,1.027.483.907Z"/><path class="m" d="M1040.195,1551.527c.263-.119-.219-1.026-.483-.907s.22,1.027.483.907Z"/><path class="m" d="M1053.093,1575.663c.263-.119-.207-1-.47-.882s.206,1,.47.882Z"/><path class="m" d="M1051.423,1572.4c.263-.12-.207-1-.47-.883s.207,1,.47.883Z"/><path class="m" d="M1049.45,1568.761c.263-.12-.207-1-.47-.883s.206,1,.47.883Z"/><path class="m" d="M1047.767,1565.507c.263-.119-.207-1-.47-.883s.206,1,.47.883Z"/></g></svg>