<svg xmlns="http://www.w3.org/2000/svg" xmlns:xlink="http://www.w3.org/1999/xlink" viewBox="0 0 100 150"><defs><style>.a{fill:none;}.b{fill:#752125;}.c,.m,.q{fill:#eb3b56;}.d{fill:#e5284c;}.e,.n,.p{fill:#fff;}.f{fill:#f74668;}.g{fill:#050505;}.h{fill:#1f191a;}.i{fill:#d31341;}.j{opacity:0.8;}.k{fill:#ff83a1;}.l,.r{fill:#e6e6e6;}.m{opacity:0.5;}.n{opacity:0.1;}.o{clip-path:url(#a);}.p{opacity:0.08;}.q{font-size:13px;}.q,.r{font-family:MyriadPro-Regular, Myriad Pro;}.r{font-size:14px;}</style><clipPath id="a"><path class="a" d="M1214,1319.382l-6.077-7.253-5.923,7.195,5,6.171v115.642a.994.994,0,0,0,.992.992h.016a.994.994,0,0,0,.992-.992V1325.349Z"/></clipPath></defs><g transform="translate(-1200 -1300)"><path class="b" d="M1233.844,1426.552c6.382,3.924,2.708,10.189-2.806,15.637-4,3.956-10.69,6.594-12.642,5.062-2.566-2.013-1.854-8.549.824-15.12C1222.145,1424.952,1227.494,1422.648,1233.844,1426.552Z"/><path class="c" d="M1224,1445.422c0,2.728-2.91,3.64-6.5,3.64s-6.5.648-6.5-2.08,5.25-7.8,8.84-7.8S1224,1442.694,1224,1445.422Z"/><path class="b" d="M1266.156,1426.552c-6.382,3.924-2.708,10.189,2.806,15.637,4,3.956,10.69,6.594,12.642,5.062,2.566-2.013,1.854-8.549-.824-15.12C1277.855,1424.952,1272.506,1422.648,1266.156,1426.552Z"/><path class="c" d="M1276,1445.422c0,2.728,2.91,3.64,6.5,3.64s6.5.648,6.5-2.08-5.25-7.8-8.84-7.8S1276,1442.694,1276,1445.422Z"/><path class="d" d="M1250,1447.259c6.687-3.076,45-21.735,45-45.259v-57h-90v57C1205,1425.524,1243.312,1444.183,1250,1447.259Z"/><rect class="e" width="10.869" height="15.617" transform="translate(1241.801 1375.811)"/><path class="e" d="M1260.106,1427v-23.209c0-7.993-6.178-14.532-13.729-14.532h0c-7.551,0-13.729,6.539-13.729,14.532V1427Z"/><path class="e" d="M1239,1390.62l-10,6.185,10.671,10.387,10.388-6.129Z"/><path class="f" d="M1239.67,1407.625a.652.652,0,0,1-.452-.167l-10.671-10.387a.367.367,0,0,1,.09-.6l10-6.185a.721.721,0,0,1,.422-.095.639.639,0,0,1,.386.16l11.059,10.443a.364.364,0,0,1,.122.322.422.422,0,0,1-.217.292l-10.388,6.129A.7.7,0,0,1,1239.67,1407.625Zm-9.876-10.752,9.976,9.71,9.478-5.592-10.334-9.759Z"/><path class="g" d="M1231.233,1403.348l-.005,0-.027,0,0,0Z"/><path class="h" d="M1236.886,1406.917l-.175-.357.165.359Z"/><path class="f" d="M1243.821,1401.318a.378.378,0,0,1,.433-.232c.2.029.331.18.291.337a.379.379,0,0,1-.433.232C1243.912,1401.626,1243.782,1401.476,1243.821,1401.318Z"/><path class="f" d="M1243.519,1401.668a.09.09,0,0,1,.1-.055c.047.007.077.043.068.08a.089.089,0,0,1-.1.054C1243.54,1401.74,1243.509,1401.7,1243.519,1401.668Z"/><path class="f" d="M1243.709,1400.908a.091.091,0,0,1,.1-.055c.047.007.078.043.068.08a.089.089,0,0,1-.1.054C1243.731,1400.98,1243.7,1400.945,1243.709,1400.908Z"/><path class="f" d="M1244.678,1401.078a.091.091,0,0,1,.1-.055c.047.007.078.043.068.08a.088.088,0,0,1-.1.054C1244.7,1401.15,1244.669,1401.115,1244.678,1401.078Z"/><path class="f" d="M1244.495,1401.809a.089.089,0,0,1,.1-.055c.047.007.077.042.068.079a.089.089,0,0,1-.1.055C1244.516,1401.881,1244.486,1401.846,1244.495,1401.809Z"/><path class="f" d="M1244.241,1401.141c.3-.273.125-.5.125-.5A.373.373,0,0,0,1244.241,1401.141Z"/><path class="f" d="M1244,1402.115c.3-.274.124-.5.124-.5A.373.373,0,0,0,1244,1402.115Z"/><path class="f" d="M1244.482,1401.429a.651.651,0,0,0,.634.088A.625.625,0,0,0,1244.482,1401.429Z"/><path class="f" d="M1243.241,1401.259a.651.651,0,0,0,.635.087A.628.628,0,0,0,1243.241,1401.259Z"/><ellipse class="f" cx="0.369" cy="0.289" rx="0.369" ry="0.289" transform="matrix(1, -0.027, 0.027, 1, 1239.15, 1398.498)"/><path class="f" d="M1238.863,1399.074a.087.087,0,0,1,.1-.054c.047.007.078.042.069.079a.091.091,0,0,1-.1.055C1238.884,1399.147,1238.853,1399.111,1238.863,1399.074Z"/><path class="f" d="M1239.053,1398.314a.089.089,0,0,1,.1-.054c.047.007.078.042.068.079a.088.088,0,0,1-.1.054C1239.075,1398.387,1239.044,1398.351,1239.053,1398.314Z"/><path class="f" d="M1240.022,1398.484a.089.089,0,0,1,.1-.054c.047.006.078.042.068.079a.089.089,0,0,1-.1.054A.07.07,0,0,1,1240.022,1398.484Z"/><path class="f" d="M1239.839,1399.215a.089.089,0,0,1,.1-.054.069.069,0,0,1,.068.079.089.089,0,0,1-.1.054A.069.069,0,0,1,1239.839,1399.215Z"/><path class="f" d="M1239.585,1398.548c.3-.274.124-.5.124-.5A.373.373,0,0,0,1239.585,1398.548Z"/><path class="f" d="M1239.34,1399.521c.305-.273.125-.5.125-.5A.374.374,0,0,0,1239.34,1399.521Z"/><path class="f" d="M1239.826,1398.836a.652.652,0,0,0,.634.087A.623.623,0,0,0,1239.826,1398.836Z"/><path class="f" d="M1238.585,1398.665a.653.653,0,0,0,.635.088A.627.627,0,0,0,1238.585,1398.665Z"/><ellipse class="f" cx="0.369" cy="0.289" rx="0.369" ry="0.289" transform="matrix(1, -0.027, 0.027, 1, 1231.339, 1396.635)"/><path class="f" d="M1231.051,1397.212a.089.089,0,0,1,.1-.055c.047.007.077.042.068.079a.09.09,0,0,1-.1.055C1231.072,1397.284,1231.042,1397.248,1231.051,1397.212Z"/><path class="f" d="M1231.242,1396.451a.089.089,0,0,1,.1-.054c.046.007.077.042.068.079a.091.091,0,0,1-.1.055C1231.263,1396.524,1231.232,1396.488,1231.242,1396.451Z"/><path class="f" d="M1232.211,1396.622a.088.088,0,0,1,.1-.055c.047.007.078.042.069.079a.09.09,0,0,1-.1.055C1232.232,1396.694,1232.2,1396.658,1232.211,1396.622Z"/><path class="f" d="M1232.027,1397.352a.089.089,0,0,1,.1-.054c.047.007.078.042.068.079a.089.089,0,0,1-.1.055C1232.049,1397.425,1232.018,1397.389,1232.027,1397.352Z"/><path class="f" d="M1231.773,1396.685c.3-.274.125-.5.125-.5A.373.373,0,0,0,1231.773,1396.685Z"/><path class="f" d="M1231.529,1397.658c.3-.273.125-.5.125-.5A.373.373,0,0,0,1231.529,1397.658Z"/><path class="f" d="M1232.014,1396.973a.651.651,0,0,0,.635.087A.628.628,0,0,0,1232.014,1396.973Z"/><path class="f" d="M1230.774,1396.8a.652.652,0,0,0,.634.087A.624.624,0,0,0,1230.774,1396.8Z"/><path class="f" d="M1244.255,1398.726a.371.371,0,0,1,.426-.228c.2.028.324.176.286.331a.374.374,0,0,1-.427.228C1244.344,1399.029,1244.216,1398.881,1244.255,1398.726Z"/><path class="f" d="M1243.957,1399.07a.088.088,0,0,1,.1-.054c.046.007.076.042.067.078a.089.089,0,0,1-.1.054C1243.978,1399.141,1243.948,1399.106,1243.957,1399.07Z"/><path class="f" d="M1244.145,1398.322a.087.087,0,0,1,.1-.053c.046.006.076.041.067.078a.087.087,0,0,1-.1.053C1244.166,1398.394,1244.136,1398.359,1244.145,1398.322Z"/><path class="f" d="M1245.1,1398.49a.087.087,0,0,1,.1-.054c.046.007.076.041.067.078a.087.087,0,0,1-.1.053C1245.119,1398.561,1245.089,1398.526,1245.1,1398.49Z"/><path class="f" d="M1244.917,1399.208a.088.088,0,0,1,.1-.053c.046.006.076.041.067.077a.087.087,0,0,1-.1.054C1244.938,1399.279,1244.908,1399.245,1244.917,1399.208Z"/><path class="f" d="M1244.667,1398.552c.3-.269.123-.49.123-.49A.368.368,0,0,0,1244.667,1398.552Z"/><path class="f" d="M1244.427,1399.509c.3-.269.123-.49.123-.49A.368.368,0,0,0,1244.427,1399.509Z"/><path class="f" d="M1244.905,1398.835a.639.639,0,0,0,.623.086A.614.614,0,0,0,1244.905,1398.835Z"/><path class="f" d="M1243.685,1398.668a.642.642,0,0,0,.624.085A.615.615,0,0,0,1243.685,1398.668Z"/><ellipse class="f" cx="0.363" cy="0.284" rx="0.363" ry="0.284" transform="translate(1237.444 1396.004) rotate(-1.539)"/><path class="f" d="M1237.161,1396.571a.089.089,0,0,1,.1-.054c.046.007.076.042.067.078a.088.088,0,0,1-.1.054C1237.182,1396.642,1237.152,1396.607,1237.161,1396.571Z"/><path class="f" d="M1237.349,1395.824a.087.087,0,0,1,.1-.054c.046.007.076.042.067.078a.089.089,0,0,1-.1.054C1237.37,1395.9,1237.34,1395.86,1237.349,1395.824Z"/><ellipse class="f" cx="0.085" cy="0.067" rx="0.085" ry="0.067" transform="translate(1238.298 1395.938) rotate(-1.515)"/><ellipse class="f" cx="0.085" cy="0.067" rx="0.085" ry="0.067" transform="translate(1238.118 1396.657) rotate(-1.515)"/><path class="f" d="M1237.871,1396.053c.3-.269.123-.49.123-.49A.368.368,0,0,0,1237.871,1396.053Z"/><path class="f" d="M1237.631,1397.01c.3-.269.123-.489.123-.489A.367.367,0,0,0,1237.631,1397.01Z"/><path class="f" d="M1238.108,1396.336a.641.641,0,0,0,.624.086A.615.615,0,0,0,1238.108,1396.336Z"/><path class="f" d="M1236.889,1396.169a.641.641,0,0,0,.624.086A.616.616,0,0,0,1236.889,1396.169Z"/><path class="f" d="M1242.761,1396.2a.374.374,0,0,1,.426-.229c.2.029.325.177.286.332a.374.374,0,0,1-.426.228C1242.85,1396.5,1242.722,1396.354,1242.761,1396.2Z"/><path class="f" d="M1242.464,1396.544a.087.087,0,0,1,.1-.054c.046.007.076.041.067.078a.087.087,0,0,1-.1.053C1242.485,1396.615,1242.455,1396.58,1242.464,1396.544Z"/><path class="f" d="M1242.651,1395.8a.088.088,0,0,1,.1-.053c.046.006.076.041.067.077a.087.087,0,0,1-.1.054C1242.672,1395.867,1242.642,1395.833,1242.651,1395.8Z"/><path class="f" d="M1243.6,1395.963a.087.087,0,0,1,.1-.053c.047.006.077.041.067.077a.086.086,0,0,1-.1.054C1243.625,1396.034,1243.595,1396,1243.6,1395.963Z"/><path class="f" d="M1243.424,1396.682a.089.089,0,0,1,.1-.054c.046.007.076.042.067.078a.088.088,0,0,1-.1.054C1243.445,1396.753,1243.415,1396.718,1243.424,1396.682Z"/><path class="f" d="M1243.174,1396.026c.3-.269.123-.49.123-.49A.368.368,0,0,0,1243.174,1396.026Z"/><path class="f" d="M1242.934,1396.983c.3-.269.123-.49.123-.49A.368.368,0,0,0,1242.934,1396.983Z"/><path class="f" d="M1243.411,1396.309a.641.641,0,0,0,.624.086A.617.617,0,0,0,1243.411,1396.309Z"/><path class="f" d="M1242.191,1396.141a.64.64,0,0,0,.624.086A.616.616,0,0,0,1242.191,1396.141Z"/><path class="f" d="M1239.784,1393.635a.372.372,0,0,1,.426-.229c.2.029.325.177.286.331a.374.374,0,0,1-.426.229C1239.873,1393.937,1239.745,1393.789,1239.784,1393.635Z"/><path class="f" d="M1239.487,1393.978a.087.087,0,0,1,.1-.053c.046.006.076.041.067.077a.087.087,0,0,1-.1.054C1239.508,1394.05,1239.477,1394.015,1239.487,1393.978Z"/><path class="f" d="M1239.674,1393.231a.089.089,0,0,1,.1-.054c.046.007.076.042.067.078a.089.089,0,0,1-.1.054C1239.695,1393.3,1239.665,1393.267,1239.674,1393.231Z"/><path class="f" d="M1240.627,1393.4a.087.087,0,0,1,.1-.053c.046.006.076.041.067.077a.087.087,0,0,1-.1.054C1240.648,1393.469,1240.618,1393.435,1240.627,1393.4Z"/><path class="f" d="M1240.447,1394.117a.089.089,0,0,1,.1-.054c.046.007.076.042.067.078a.089.089,0,0,1-.1.054C1240.468,1394.188,1240.438,1394.153,1240.447,1394.117Z"/><path class="f" d="M1240.2,1393.46c.3-.269.123-.489.123-.489A.367.367,0,0,0,1240.2,1393.46Z"/><path class="f" d="M1239.956,1394.418c.3-.269.123-.49.123-.49A.368.368,0,0,0,1239.956,1394.418Z"/><path class="f" d="M1240.434,1393.744a.639.639,0,0,0,.624.085A.615.615,0,0,0,1240.434,1393.744Z"/><path class="f" d="M1239.214,1393.576a.64.64,0,0,0,.624.086A.616.616,0,0,0,1239.214,1393.576Z"/><path class="f" d="M1235.68,1393.958a.372.372,0,0,1,.426-.229c.2.029.324.177.286.332a.375.375,0,0,1-.427.228C1235.769,1394.261,1235.641,1394.112,1235.68,1393.958Z"/><path class="f" d="M1235.382,1394.3a.087.087,0,0,1,.1-.054c.046.007.076.041.067.078a.088.088,0,0,1-.1.053C1235.4,1394.373,1235.373,1394.338,1235.382,1394.3Z"/><path class="f" d="M1235.57,1393.554a.087.087,0,0,1,.1-.053c.046.006.076.041.067.077a.087.087,0,0,1-.1.054C1235.591,1393.625,1235.561,1393.591,1235.57,1393.554Z"/><path class="f" d="M1236.523,1393.721a.087.087,0,0,1,.1-.053c.046.006.076.041.067.078a.087.087,0,0,1-.1.053C1236.544,1393.793,1236.514,1393.758,1236.523,1393.721Z"/><path class="f" d="M1236.342,1394.44a.09.09,0,0,1,.1-.054c.046.007.076.042.067.078a.087.087,0,0,1-.1.054C1236.363,1394.511,1236.333,1394.476,1236.342,1394.44Z"/><path class="f" d="M1236.092,1393.784c.3-.269.123-.49.123-.49A.368.368,0,0,0,1236.092,1393.784Z"/><path class="f" d="M1235.852,1394.741c.3-.269.123-.49.123-.49A.368.368,0,0,0,1235.852,1394.741Z"/><path class="f" d="M1236.329,1394.067a.64.64,0,0,0,.624.086A.615.615,0,0,0,1236.329,1394.067Z"/><path class="f" d="M1235.11,1393.9a.641.641,0,0,0,.624.086A.616.616,0,0,0,1235.11,1393.9Z"/><path class="f" d="M1234.646,1398.08a.372.372,0,0,1,.426-.228c.2.028.324.176.286.331a.374.374,0,0,1-.427.228C1234.735,1398.383,1234.607,1398.235,1234.646,1398.08Z"/><path class="f" d="M1234.348,1398.424a.088.088,0,0,1,.1-.054c.046.007.076.042.067.078a.089.089,0,0,1-.1.054C1234.369,1398.495,1234.339,1398.46,1234.348,1398.424Z"/><path class="f" d="M1234.536,1397.676a.087.087,0,0,1,.1-.053c.046.006.076.041.067.078a.087.087,0,0,1-.1.053C1234.557,1397.748,1234.527,1397.713,1234.536,1397.676Z"/><path class="f" d="M1235.489,1397.844a.087.087,0,0,1,.1-.054c.046.007.076.041.067.078a.087.087,0,0,1-.1.053C1235.51,1397.915,1235.48,1397.88,1235.489,1397.844Z"/><path class="f" d="M1235.308,1398.562a.088.088,0,0,1,.1-.053c.046.006.076.041.067.077a.087.087,0,0,1-.1.054C1235.329,1398.633,1235.3,1398.6,1235.308,1398.562Z"/><path class="f" d="M1235.058,1397.906c.3-.269.123-.49.123-.49A.368.368,0,0,0,1235.058,1397.906Z"/><path class="f" d="M1234.818,1398.863c.3-.269.123-.489.123-.489A.367.367,0,0,0,1234.818,1398.863Z"/><path class="f" d="M1235.3,1398.189a.64.64,0,0,0,.624.086A.615.615,0,0,0,1235.3,1398.189Z"/><path class="f" d="M1234.076,1398.022a.642.642,0,0,0,.624.085A.615.615,0,0,0,1234.076,1398.022Z"/><path class="f" d="M1234.055,1400.436a.373.373,0,0,1,.426-.229c.2.028.325.177.286.331a.373.373,0,0,1-.426.229C1234.144,1400.738,1234.016,1400.59,1234.055,1400.436Z"/><path class="f" d="M1233.758,1400.779a.087.087,0,0,1,.1-.053c.046.006.076.041.067.077a.087.087,0,0,1-.1.054C1233.779,1400.851,1233.748,1400.816,1233.758,1400.779Z"/><path class="f" d="M1233.945,1400.032a.089.089,0,0,1,.1-.054c.046.007.076.042.067.078a.089.089,0,0,1-.1.054C1233.966,1400.1,1233.936,1400.068,1233.945,1400.032Z"/><path class="f" d="M1234.9,1400.2a.089.089,0,0,1,.1-.054c.046.007.076.042.067.078a.087.087,0,0,1-.1.054C1234.919,1400.27,1234.889,1400.235,1234.9,1400.2Z"/><path class="f" d="M1234.718,1400.918a.088.088,0,0,1,.1-.054c.046.007.076.042.067.078a.089.089,0,0,1-.1.054C1234.739,1400.989,1234.709,1400.954,1234.718,1400.918Z"/><path class="f" d="M1234.467,1400.261c.3-.269.123-.489.123-.489A.367.367,0,0,0,1234.467,1400.261Z"/><path class="f" d="M1234.227,1401.219c.3-.269.123-.49.123-.49A.368.368,0,0,0,1234.227,1401.219Z"/><path class="f" d="M1234.7,1400.545a.639.639,0,0,0,.624.085A.615.615,0,0,0,1234.7,1400.545Z"/><path class="f" d="M1233.485,1400.377a.641.641,0,0,0,.624.086A.617.617,0,0,0,1233.485,1400.377Z"/><path class="f" d="M1236.4,1402.3a.374.374,0,0,1,.426-.229c.2.029.325.177.286.332a.373.373,0,0,1-.426.228C1236.493,1402.6,1236.365,1402.454,1236.4,1402.3Z"/><path class="f" d="M1236.106,1402.644a.087.087,0,0,1,.1-.054c.046.007.076.041.067.078a.087.087,0,0,1-.1.053C1236.127,1402.715,1236.1,1402.68,1236.106,1402.644Z"/><path class="f" d="M1236.294,1401.9a.087.087,0,0,1,.1-.053c.046.006.076.041.067.077a.087.087,0,0,1-.1.054C1236.315,1401.967,1236.284,1401.933,1236.294,1401.9Z"/><path class="f" d="M1237.246,1402.063a.089.089,0,0,1,.1-.053c.046.006.076.041.067.078a.087.087,0,0,1-.1.053C1237.267,1402.135,1237.237,1402.1,1237.246,1402.063Z"/><path class="f" d="M1237.066,1402.782a.089.089,0,0,1,.1-.054c.046.007.077.042.067.078a.087.087,0,0,1-.1.054C1237.087,1402.853,1237.057,1402.818,1237.066,1402.782Z"/><path class="f" d="M1236.816,1402.126c.3-.269.123-.49.123-.49A.368.368,0,0,0,1236.816,1402.126Z"/><path class="f" d="M1236.576,1403.083c.3-.269.123-.49.123-.49A.368.368,0,0,0,1236.576,1403.083Z"/><path class="f" d="M1237.053,1402.409a.641.641,0,0,0,.624.086A.616.616,0,0,0,1237.053,1402.409Z"/><path class="f" d="M1235.833,1402.241a.641.641,0,0,0,.624.086A.616.616,0,0,0,1235.833,1402.241Z"/><path class="f" d="M1239.879,1401.276a.372.372,0,0,1,.426-.229c.2.029.325.177.286.331a.374.374,0,0,1-.427.229C1239.968,1401.579,1239.84,1401.43,1239.879,1401.276Z"/><path class="f" d="M1239.581,1401.619a.088.088,0,0,1,.1-.053c.046.006.076.041.067.078a.087.087,0,0,1-.1.053C1239.6,1401.691,1239.572,1401.656,1239.581,1401.619Z"/><path class="f" d="M1239.769,1400.872a.089.089,0,0,1,.1-.054c.046.007.076.042.067.078a.087.087,0,0,1-.1.054C1239.79,1400.943,1239.76,1400.908,1239.769,1400.872Z"/><path class="f" d="M1240.722,1401.039a.087.087,0,0,1,.1-.053c.046.006.076.041.067.077a.087.087,0,0,1-.1.054C1240.743,1401.11,1240.713,1401.076,1240.722,1401.039Z"/><path class="f" d="M1240.542,1401.758a.088.088,0,0,1,.1-.054c.046.007.076.042.067.078a.089.089,0,0,1-.1.054C1240.562,1401.829,1240.532,1401.794,1240.542,1401.758Z"/><path class="f" d="M1240.291,1401.1c.3-.269.123-.489.123-.489A.366.366,0,0,0,1240.291,1401.1Z"/><path class="f" d="M1240.051,1402.059c.3-.269.123-.49.123-.49A.368.368,0,0,0,1240.051,1402.059Z"/><path class="f" d="M1240.529,1401.385a.639.639,0,0,0,.623.086A.614.614,0,0,0,1240.529,1401.385Z"/><path class="f" d="M1239.309,1401.217a.641.641,0,0,0,.624.086A.616.616,0,0,0,1239.309,1401.217Z"/><path class="f" d="M1239.066,1404.515a.374.374,0,0,1,.426-.229c.2.028.325.177.286.331a.372.372,0,0,1-.426.229C1239.155,1404.817,1239.027,1404.669,1239.066,1404.515Z"/><path class="f" d="M1238.769,1404.858a.087.087,0,0,1,.1-.053c.046.006.076.041.067.077a.087.087,0,0,1-.1.054C1238.79,1404.93,1238.76,1404.9,1238.769,1404.858Z"/><path class="f" d="M1238.957,1404.111a.088.088,0,0,1,.1-.054c.046.007.076.042.067.078a.089.089,0,0,1-.1.054C1238.978,1404.182,1238.947,1404.147,1238.957,1404.111Z"/><path class="f" d="M1239.909,1404.278a.089.089,0,0,1,.1-.054c.047.007.077.042.068.078a.087.087,0,0,1-.1.054C1239.93,1404.349,1239.9,1404.314,1239.909,1404.278Z"/><path class="f" d="M1239.729,1405a.088.088,0,0,1,.1-.054c.046.007.076.042.067.078a.089.089,0,0,1-.1.054C1239.75,1405.068,1239.72,1405.033,1239.729,1405Z"/><path class="f" d="M1239.479,1404.34c.3-.269.123-.489.123-.489A.367.367,0,0,0,1239.479,1404.34Z"/><path class="f" d="M1239.239,1405.3c.3-.269.123-.49.123-.49A.368.368,0,0,0,1239.239,1405.3Z"/><path class="f" d="M1239.716,1404.624a.639.639,0,0,0,.624.085A.615.615,0,0,0,1239.716,1404.624Z"/><path class="f" d="M1238.5,1404.456a.64.64,0,0,0,.624.086A.616.616,0,0,0,1238.5,1404.456Z"/><path class="f" d="M1240.485,1407.337l15.045-17.644,16.97,17.94-16.4,17.632Z"/><path class="e" d="M1256.505,1406.308q-.654-.66-1.3-1.319a.217.217,0,0,1-.041-.068,3.934,3.934,0,0,1,.655-4.379,4.1,4.1,0,0,1,2.491-1.349,4.906,4.906,0,0,1,2.518.219,2.538,2.538,0,0,1,1.654,1.578,3.387,3.387,0,0,1,.065,1.787,6.279,6.279,0,0,1-.628,1.737.211.211,0,0,1-.14.087,14.746,14.746,0,0,0-3.932,1.1C1257.4,1405.893,1256.959,1406.1,1256.505,1406.308Z"/><path class="e" d="M1255.768,1406.722c-.268.168-.529.328-.784.494a11.378,11.378,0,0,0-3.208,2.944.131.131,0,0,1-.086.051,10.5,10.5,0,0,1-3.232-.175,4.331,4.331,0,0,1-1.76-.778,2.437,2.437,0,0,1-.764-.985,2.282,2.282,0,0,1-.126-1.71,2.628,2.628,0,0,1,1.533-1.424,8.319,8.319,0,0,1,4.413-.465,10.329,10.329,0,0,1,2.593.684.587.587,0,0,1,.191.124c.384.382.762.767,1.143,1.151Z"/><path class="e" d="M1255.5,1413.124a11.617,11.617,0,0,1,3.283-2.82,16.069,16.069,0,0,1,5.378-2.117c-.269.733-2.05,2.317-3.6,3.188A14.168,14.168,0,0,1,1255.5,1413.124Z"/><path class="e" d="M1264.1,1407.412a16.445,16.445,0,0,0-9.547,5.426l-.483-.488c-.221-.223-.22-.223-.058-.455a9.553,9.553,0,0,1,2.084-2.089,15.742,15.742,0,0,1,2.445-1.527,15.444,15.444,0,0,1,4.514-1.529.513.513,0,0,1,.568.172A6.706,6.706,0,0,0,1264.1,1407.412Z"/><path class="e" d="M1253.179,1411.448c-.214-.216-.442-.443-.663-.675-.021-.023,0-.08.019-.113a7.28,7.28,0,0,1,1.139-1.355,14.957,14.957,0,0,1,3.638-2.491,16.385,16.385,0,0,1,2.839-1.114,11.617,11.617,0,0,1,1.759-.367.255.255,0,0,1,.166.038c.223.214.435.434.65.651A16.388,16.388,0,0,0,1253.179,1411.448Z"/><path class="e" d="M1254.013,1404.418l-1.692-.392a.3.3,0,0,1-.077-.026,7.639,7.639,0,0,1-1.609-1.071,1.536,1.536,0,0,1-.483-1.579c.1-.452.536-.691,1.141-.635a2.612,2.612,0,0,1,1.992.975c.193.27.36.551.533.829a.277.277,0,0,1,.043.165,4.785,4.785,0,0,0,.152,1.719C1254.016,1404.413,1254.013,1404.423,1254.013,1404.418Z"/><path class="e" d="M1250.993,1399.2l-2.721,1.547-.328-.331,2.72-1.546Z"/><path class="e" d="M1252.417,1402.361l-.544.309-3.933-3.975.544-.309Z"/><path class="f" d="M1268.029,1404.037,1227.5,1427h39.47Z"/><path class="f" d="M1267.5,1404.243a1.512,1.512,0,0,1,.624,1.171,2.189,2.189,0,0,1-4.216,0,1.446,1.446,0,0,1,.621-1.172Z"/><rect class="f" width="2.869" height="6.227" transform="translate(1264.574 1398.017)"/><path class="e" d="M1264.571,1399.271v-.244l2.869,0v.244Z"/><path class="e" d="M1264.573,1400.509v-.244l2.869,0v.244Z"/><path class="e" d="M1264.575,1401.746v-.244l2.869,0v.244Z"/><rect class="e" width="2.869" height="0.244" transform="translate(1264.576 1402.739)"/><path class="f" d="M1266.23,1398.427h1.741l-.113-16.427-1.743-1.134Z"/><path class="f" d="M1265.687,1380.865l-1.738,1.137.113,16.427h1.74Z"/><rect class="e" width="6.864" height="0.976" transform="translate(1262.394 1397.572)"/><path class="f" d="M1260.3,1370.631a.633.633,0,0,0-.732.261l-1.308,2.753a1.3,1.3,0,0,0-.537.011l-2.193.525v-.006l2.19-.524-.266-3.291-1.383,1.181-2.576-2.127c-.011,0-.022,0-.034,0l-1.5,1.856-3.17-2.443-.947,2.132-3.861-2.784-1.011,3.919-2.439-1.292-.946,3.427-2.4-.9a.261.261,0,0,1-.056.018l-.29,3.039-2.237-.555,2.236,2.819,3.824-.914v.006l-3.822.914c-.442.106-.715.4-.612.645a.527.527,0,0,0,.373.267l-4.128,1.041c-.3.075-.462.321-.363.548a.584.584,0,0,0,.543.3.746.746,0,0,0,.181-.022l7.828-1.974v5.9h-4l2.089,6.508h.746v-.849h.647v.849h.484v-.849h.647v.849h.485v-.849h.647v.849h.485v-.849h.646v.849h.485v-.849h.647v.849h.485v-.849h.647v.849h.485v-.849h.646v.849h.485v-.849h.647v.849h.485v-.849h.647v.849h.484v-.849h.647v.849h.485v-.849h.647v.849h4.079V1375.7l3.109-.784a.528.528,0,0,0,.357-.265l1.648-3.47C1260.751,1370.96,1260.6,1370.712,1260.3,1370.631Zm-8.2,14.723h-9.724v-6.332l9.724-2.452Zm0-10.352-9.724,2.326v-.007l9.724-2.326Z"/><path class="f" d="M1240.448,1370.824c.374-.089.58-.391.461-.677a.771.771,0,0,0-.89-.354c-.374.09-.58.392-.461.677A.769.769,0,0,0,1240.448,1370.824Z"/><path class="f" d="M1244.489,1367.42a.853.853,0,0,0-.986-.392c-.416.1-.641.436-.51.75a.855.855,0,0,0,.987.4C1244.4,1368.074,1244.621,1367.737,1244.489,1367.42Z"/><path class="f" d="M1237.18,1373.325a.447.447,0,0,0,.314-.577.692.692,0,0,0-.8-.319c-.333.08-.522.352-.415.61a.7.7,0,0,0,.8.319.222.222,0,0,0,.045-.015l0-.036Z"/><path class="f" d="M1234.238,1375.965c.3-.072.468-.317.372-.547a.623.623,0,0,0-.72-.29c-.3.072-.469.317-.371.551A.624.624,0,0,0,1234.238,1375.965Z"/><path class="f" d="M1249.282,1368.145a.769.769,0,0,0-.89-.354c-.374.089-.58.391-.461.677a.757.757,0,0,0,.857.358.118.118,0,0,0,.033,0C1249.195,1368.732,1249.4,1368.43,1249.282,1368.145Z"/><path class="f" d="M1257.875,1370.312c.3-.072.468-.317.372-.547a.623.623,0,0,0-.72-.29c-.3.072-.469.317-.371.551A.623.623,0,0,0,1257.875,1370.312Z"/><path class="f" d="M1253.495,1369.414a.682.682,0,0,0,.163-.022c.338-.08.523-.351.415-.609a.691.691,0,0,0-.8-.319c-.333.08-.517.35-.41.608a.636.636,0,0,0,.6.341l.016-.017Z"/><ellipse class="e" cx="1.621" cy="2.297" rx="1.621" ry="2.297" transform="translate(1243.146 1373.165) rotate(-35.901)"/><path class="e" d="M1241.229,1375.171l.248.381.554.061-.4.3.095.419-.5-.2-.5.2.095-.419-.4-.3.554-.061Z"/><path class="e" d="M1251.525,1372.568l.248.381.554.061-.4.3.095.419-.5-.2-.5.2.095-.419-.4-.3.554-.061Z"/><path class="f" d="M1231.136,1399.3l-.363,26.4h5.307l-1.546-23.16Z"/><path class="f" d="M1236.653,1404.876l1.716,18.22,2.288-.434-1.361-15.647-2.071-2.139Z"/><path class="f" d="M1241.8,1407.912l.095,1.044,1.049,11.537h2.288l.3-7.7"/><path class="e" d="M1232.843,1421.711c1.111,0,1.113-1.31,0-1.31s-1.113,1.31,0,1.31Z"/><path class="e" d="M1233.242,1414.958l-.062-.01.38.168-.038-.03.222.289-.012-.049c-.09-.347-.637-.546-1.062-.457a.669.669,0,0,0-.6.806.855.855,0,0,0,.717.546.946.946,0,0,0,1.062-.458.662.662,0,0,0-.6-.8Z"/><path class="e" d="M1233.238,1411.222c1.112,0,1.113-1.31,0-1.31s-1.113,1.31,0,1.31Z"/><path class="e" d="M1233.125,1406.155c1.111,0,1.113-1.31,0-1.31s-1.113,1.31,0,1.31Z"/><path class="e" d="M1244.075,1416.482l-.029,0,.182.072-.019-.014.112.131-.007-.023a.446.446,0,0,0-.508-.193.3.3,0,0,0-.254.385.413.413,0,0,0,.349.24.428.428,0,0,0,.479-.231.317.317,0,0,0-.305-.363Z"/><path class="e" d="M1243.956,1414.748c.516-.02.476-.628-.041-.608s-.475.628.041.608Z"/><path class="e" d="M1243.745,1412.4c.516-.02.476-.628-.041-.608s-.476.628.041.608Z"/><path class="e" d="M1238.293,1408.937c.8-.043.719-.99-.086-.948s-.719.99.086.948Z"/><path class="e" d="M1238.617,1412.474c.8-.042.719-.99-.087-.947s-.719.99.087.947Z"/><path class="e" d="M1239.375,1415.914a.566.566,0,0,0,.177-.284.508.508,0,0,0-.49-.56c-.316-.048-.691.116-.738.372l-.007.036.142-.217-.029.03a.41.41,0,0,0,.062.67.778.778,0,0,0,.883-.047Z"/><path class="e" d="M1238.763,1419.585l0,.032c.055.609,1.305.545,1.249-.066l0-.032c-.055-.61-1.3-.545-1.249.066Z"/><path class="i" d="M1292.5,1402c0,18.925-29.013,36.284-42.5,42.524-13.494-6.228-42.5-23.561-42.5-42.524v-57h-5v57c0,27.614,47.5,48,47.5,48h0s47.5-20.386,47.5-48v-57h-5Z"/><path class="c" d="M1221.7,1339.066c-2.507-2.929-2.366-7.518-.557-9.066"/><path class="c" d="M1278.1,1339.066c2.507-2.929,2.366-7.518.557-9.066"/><path class="c" d="M1278.814,1330.608c1.2,14.189-12.916,29.392-28.849,29.392s-28.85-12.162-28.85-29.392c0-.2,28.65-7.094,28.85-7.094C1251.159,1323.514,1278.8,1330.406,1278.814,1330.608Z"/><path class="d" d="M1249.551,1301.5,1215,1326.3l34.551,25.2,35.449-25Z"/><g class="j"><path class="k" d="M1249.561,1303.955l31.969,22.545-31.959,22.539-31.159-22.725,31.149-22.359m-.01-2.455L1215,1326.3l34.551,25.2,35.449-25-35.449-25Z"/></g><path class="f" d="M1250,1341.554c-10.949,0-20.971-2.6-28.732-6.921,0,18.07,28.732,25.164,28.732,25.164s28.732-8.108,28.732-25.164C1270.971,1338.949,1260.949,1341.554,1250,1341.554Z"/><path class="l" d="M1250,1334.459l-7.971-31.657a2.4,2.4,0,0,1,2.52-2.8h10.9a2.4,2.4,0,0,1,2.52,2.8Z"/><path class="c" d="M1272.166,1342.139q.144-1.07.286-2.139a2.172,2.172,0,0,1,.413-1.164c.5-.622,1.477-1.01,1.881-.4.371.565.168,1.5.128,2.139a10.977,10.977,0,0,1-1.278,4.372,1.466,1.466,0,0,1-.419.539,1.443,1.443,0,0,1-.885.276c-.507-.033-.557-.4-.517-.7Q1271.97,1343.6,1272.166,1342.139Z"/><path class="c" d="M1265.443,1345.583l.178-2.758a2.775,2.775,0,0,1,.4-1.485c.532-.776,1.645-1.218,2.159-.4a5.556,5.556,0,0,1,.3,2.785,14.393,14.393,0,0,1-1.171,5.593,1.624,1.624,0,0,1-.449.673,1.42,1.42,0,0,1-1.008.3c-.593-.074-.678-.554-.653-.939Q1265.321,1347.47,1265.443,1345.583Z"/><path class="c" d="M1258.834,1348.442l.273-3.415a3.737,3.737,0,0,1,.469-1.815c.595-.922,1.8-1.378,2.334-.313.486.98.269,2.452.244,3.489a19.728,19.728,0,0,1-1.423,6.86,1.925,1.925,0,0,1-.5.8,1.333,1.333,0,0,1-1.094.293c-.635-.142-.712-.746-.675-1.222Q1258.647,1350.781,1258.834,1348.442Z"/><path class="c" d="M1252.126,1350.3q.02-1.926.038-3.851a4.242,4.242,0,0,1,.369-2.055c.573-1.053,1.844-1.6,2.494-.414.6,1.09.474,2.752.526,3.92a22.637,22.637,0,0,1-1.02,7.76,2.067,2.067,0,0,1-.481.914,1.353,1.353,0,0,1-1.158.358c-.7-.143-.824-.821-.819-1.358Z"/><path class="c" d="M1227.834,1342.139q-.144-1.07-.286-2.139a2.172,2.172,0,0,0-.413-1.164c-.5-.622-1.477-1.01-1.881-.4-.371.565-.168,1.5-.128,2.139a10.977,10.977,0,0,0,1.278,4.372,1.466,1.466,0,0,0,.419.539,1.443,1.443,0,0,0,.885.276c.507-.033.557-.4.517-.7Q1228.03,1343.6,1227.834,1342.139Z"/><path class="c" d="M1234.641,1345.583l-.178-2.758a2.784,2.784,0,0,0-.4-1.485c-.532-.776-1.646-1.218-2.159-.4a5.557,5.557,0,0,0-.3,2.785,14.375,14.375,0,0,0,1.171,5.593,1.605,1.605,0,0,0,.449.673,1.418,1.418,0,0,0,1.008.3c.593-.074.678-.554.653-.939Q1234.763,1347.47,1234.641,1345.583Z"/><path class="c" d="M1241.333,1348.442q-.135-1.709-.272-3.415a3.738,3.738,0,0,0-.469-1.815c-.6-.922-1.806-1.378-2.335-.313-.486.98-.268,2.452-.244,3.489a19.75,19.75,0,0,0,1.423,6.86,1.918,1.918,0,0,0,.5.8,1.331,1.331,0,0,0,1.093.293c.635-.142.713-.746.675-1.222Q1241.52,1350.781,1241.333,1348.442Z"/><path class="c" d="M1248.125,1350.3q-.019-1.926-.038-3.851a4.24,4.24,0,0,0-.369-2.055c-.573-1.053-1.844-1.6-2.494-.414-.6,1.09-.474,2.752-.526,3.92a22.637,22.637,0,0,0,1.02,7.76,2.067,2.067,0,0,0,.481.914,1.354,1.354,0,0,0,1.158.358c.695-.143.824-.821.819-1.358Z"/><path class="m" d="M1250,1338.514a110,110,0,0,1-28.055-3.51,63.359,63.359,0,0,0,56.11,0A110,110,0,0,1,1250,1338.514Z"/><path class="l" d="M1281.949,1367.165l-3.949,4.8,3.949,4.874L1286,1372Z"/><path class="n" d="M1244.549,1300a2.4,2.4,0,0,0-2.52,2.8l.874,3.47L1215,1326.3l5.718,4.17c-1.384,1.862-1.309,5.918.982,8.6l-.06-.976a17.429,17.429,0,0,0,2.226,5.481c.222.484.454.962.7,1.429H1202.5v57c0,11.215,7.835,21.238,17.142,29.188-.144.307-.289.614-.422.943a33.931,33.931,0,0,0-2.221,7.861c-3.01,1.541-6,4.931-6,6.99,0,2.728,2.91,2.08,6.5,2.08,2.843,0,5.254-.576,6.136-2.17a22.179,22.179,0,0,0,7.4-4.7q.792-.781,1.525-1.583A139.806,139.806,0,0,0,1250,1450V1300Z"/><g class="o"><rect class="l" width="2" height="126" rx="0.992" transform="translate(1207 1316.129)"/><path class="c" d="M1207.923,1312.129l-5.923,7.195,5.923,7.31,6.077-7.253Z"/><rect class="p" width="6" height="130" transform="translate(1202 1312.129)"/></g><path class="c" d="M1298.565,1376.588c.915,1.685,2.086,4.268,1,6.134-1.332,2.289-5.444,2.589-7.284.792,1.471-1.7.545-4.83-1.53-6.172a18.369,18.369,0,0,0,3.268-2.973c.637-.632,1.209-1.3,2.15-.91C1297.244,1373.9,1298.02,1375.583,1298.565,1376.588Z"/><path class="c" d="M1297.526,1382.88a3.535,3.535,0,0,1-1.641,1.618,3.188,3.188,0,0,1-1.074.208,6.893,6.893,0,0,1-1.829-.26,4.7,4.7,0,0,1-1.188-.437,3.614,3.614,0,0,1-1.584-2.066,7.848,7.848,0,0,1,.356-4.979c.684-1.909,1.888-5.036,4.589-3.644C1298.624,1375.1,1299.123,1380.052,1297.526,1382.88Z"/><text class="q" transform="translate(1250 1313.522)"><tspan x="-3.523" y="0">K</tspan></text><text class="r" transform="translate(1282 1364.109)"><tspan x="-3.794" y="0">K</tspan></text><path class="c" d="M1201.435,1376.588c-.915,1.685-2.086,4.268-1,6.134,1.332,2.289,5.444,2.589,7.284.792-1.471-1.7-.545-4.83,1.53-6.172a18.369,18.369,0,0,1-3.268-2.973c-.637-.632-1.209-1.3-2.15-.91C1202.756,1373.9,1201.98,1375.583,1201.435,1376.588Z"/><path class="c" d="M1206.092,1381.2a2.285,2.285,0,0,0,.181,1.37,1.861,1.861,0,0,0,.4.49,3.694,3.694,0,0,0,.894.541,2.435,2.435,0,0,0,.67.224,1.89,1.89,0,0,0,1.392-.411,4.76,4.76,0,0,0,1.514-2.51c.339-1.161.858-3.093-.8-3.41C1208.22,1377.088,1206.338,1379.273,1206.092,1381.2Z"/></g></svg>