<svg xmlns="http://www.w3.org/2000/svg" xmlns:xlink="http://www.w3.org/1999/xlink" viewBox="0 0 100 150"><defs><style>.a{fill:none;}.b{fill:#752125;}.c,.m,.q{fill:#eb3b56;}.d{fill:#e5284c;}.e,.n,.p{fill:#fff;}.f{fill:#f74668;}.g{fill:#050505;}.h{fill:#1f191a;}.i{fill:#d31341;}.j{opacity:0.8;}.k{fill:#ff83a1;}.l,.r{fill:#e6e6e6;}.m{opacity:0.5;}.n{opacity:0.1;}.o{clip-path:url(#a);}.p{opacity:0.05;}.q{font-size:13px;}.q,.r{font-family:MyriadPro-Regular, Myriad Pro;}.r{font-size:14px;}</style><clipPath id="a"><path class="a" d="M1211.028,1163.107a3.061,3.061,0,0,1-6.056,0c-3.1.075-3.514,3.552-2.43,5.309a16.234,16.234,0,0,0,2.729,3.439c.572.592,1.2,1.222,1.729,1.793v117.489a.994.994,0,0,0,.992.992h.016a.994.994,0,0,0,.992-.992V1173.648c.527-.571,1.157-1.2,1.729-1.793a16.234,16.234,0,0,0,2.729-3.439C1214.542,1166.659,1214.131,1163.182,1211.028,1163.107Z"/></clipPath></defs><g transform="translate(-1200 -1150)"><path class="b" d="M1233.844,1276.552c6.382,3.924,2.708,10.189-2.806,15.637-4,3.956-10.69,6.594-12.642,5.062-2.566-2.013-1.854-8.549.824-15.12C1222.145,1274.952,1227.494,1272.648,1233.844,1276.552Z"/><path class="c" d="M1224,1295.422c0,2.728-2.91,3.64-6.5,3.64s-6.5.648-6.5-2.08,5.25-7.8,8.84-7.8S1224,1292.694,1224,1295.422Z"/><path class="b" d="M1266.156,1276.552c-6.382,3.924-2.708,10.189,2.806,15.637,4,3.956,10.69,6.594,12.642,5.062,2.566-2.013,1.854-8.549-.824-15.12C1277.855,1274.952,1272.506,1272.648,1266.156,1276.552Z"/><path class="c" d="M1276,1295.422c0,2.728,2.91,3.64,6.5,3.64s6.5.648,6.5-2.08-5.25-7.8-8.84-7.8S1276,1292.694,1276,1295.422Z"/><path class="d" d="M1250,1297.259c6.687-3.076,45-21.735,45-45.259v-57h-90v57C1205,1275.524,1243.312,1294.183,1250,1297.259Z"/><rect class="e" width="10.869" height="15.617" transform="translate(1241.801 1225.811)"/><path class="e" d="M1260.106,1277v-23.209c0-7.993-6.178-14.532-13.729-14.532h0c-7.551,0-13.729,6.539-13.729,14.532V1277Z"/><path class="e" d="M1239,1240.62l-10,6.185,10.671,10.387,10.388-6.129Z"/><path class="f" d="M1239.67,1257.625a.652.652,0,0,1-.452-.167l-10.671-10.387a.367.367,0,0,1,.09-.6l10-6.185a.721.721,0,0,1,.422-.095.639.639,0,0,1,.386.16l11.059,10.443a.364.364,0,0,1,.122.322.422.422,0,0,1-.217.292l-10.388,6.129A.7.7,0,0,1,1239.67,1257.625Zm-9.876-10.752,9.976,9.71,9.478-5.592-10.334-9.759Z"/><path class="g" d="M1231.233,1253.348l-.005,0-.027,0,0,0Z"/><path class="h" d="M1236.886,1256.917l-.175-.357.165.359Z"/><path class="f" d="M1243.821,1251.318a.378.378,0,0,1,.433-.232c.2.029.331.18.291.337a.379.379,0,0,1-.433.232C1243.912,1251.626,1243.782,1251.476,1243.821,1251.318Z"/><path class="f" d="M1243.519,1251.668a.09.09,0,0,1,.1-.055c.047.007.077.043.068.08a.089.089,0,0,1-.1.054C1243.54,1251.74,1243.509,1251.7,1243.519,1251.668Z"/><path class="f" d="M1243.709,1250.908a.091.091,0,0,1,.1-.055c.047.007.078.043.068.08a.089.089,0,0,1-.1.054C1243.731,1250.98,1243.7,1250.945,1243.709,1250.908Z"/><path class="f" d="M1244.678,1251.078a.091.091,0,0,1,.1-.055c.047.007.078.043.068.08a.088.088,0,0,1-.1.054C1244.7,1251.15,1244.669,1251.115,1244.678,1251.078Z"/><path class="f" d="M1244.495,1251.809a.089.089,0,0,1,.1-.055c.047.007.077.042.068.079a.089.089,0,0,1-.1.055C1244.516,1251.881,1244.486,1251.846,1244.495,1251.809Z"/><path class="f" d="M1244.241,1251.141c.3-.273.125-.5.125-.5A.373.373,0,0,0,1244.241,1251.141Z"/><path class="f" d="M1244,1252.115c.3-.274.124-.5.124-.5A.373.373,0,0,0,1244,1252.115Z"/><path class="f" d="M1244.482,1251.429a.651.651,0,0,0,.634.088A.625.625,0,0,0,1244.482,1251.429Z"/><path class="f" d="M1243.241,1251.259a.651.651,0,0,0,.635.087A.628.628,0,0,0,1243.241,1251.259Z"/><ellipse class="f" cx="0.369" cy="0.289" rx="0.369" ry="0.289" transform="matrix(1, -0.027, 0.027, 1, 1239.15, 1248.498)"/><path class="f" d="M1238.863,1249.074a.087.087,0,0,1,.1-.054c.047.007.078.042.069.079a.091.091,0,0,1-.1.055C1238.884,1249.147,1238.853,1249.111,1238.863,1249.074Z"/><path class="f" d="M1239.053,1248.314a.089.089,0,0,1,.1-.054c.047.007.078.042.068.079a.088.088,0,0,1-.1.054C1239.075,1248.387,1239.044,1248.351,1239.053,1248.314Z"/><path class="f" d="M1240.022,1248.484a.089.089,0,0,1,.1-.054c.047.006.078.042.068.079a.089.089,0,0,1-.1.054A.07.07,0,0,1,1240.022,1248.484Z"/><path class="f" d="M1239.839,1249.215a.089.089,0,0,1,.1-.054.069.069,0,0,1,.068.079.089.089,0,0,1-.1.054A.069.069,0,0,1,1239.839,1249.215Z"/><path class="f" d="M1239.585,1248.548c.3-.274.124-.5.124-.5A.373.373,0,0,0,1239.585,1248.548Z"/><path class="f" d="M1239.34,1249.521c.305-.273.125-.5.125-.5A.374.374,0,0,0,1239.34,1249.521Z"/><path class="f" d="M1239.826,1248.836a.652.652,0,0,0,.634.087A.623.623,0,0,0,1239.826,1248.836Z"/><path class="f" d="M1238.585,1248.665a.653.653,0,0,0,.635.088A.627.627,0,0,0,1238.585,1248.665Z"/><ellipse class="f" cx="0.369" cy="0.289" rx="0.369" ry="0.289" transform="matrix(1, -0.027, 0.027, 1, 1231.339, 1246.635)"/><path class="f" d="M1231.051,1247.212a.089.089,0,0,1,.1-.055c.047.007.077.042.068.079a.09.09,0,0,1-.1.055C1231.072,1247.284,1231.042,1247.248,1231.051,1247.212Z"/><path class="f" d="M1231.242,1246.451a.089.089,0,0,1,.1-.054c.046.007.077.042.068.079a.091.091,0,0,1-.1.055C1231.263,1246.524,1231.232,1246.488,1231.242,1246.451Z"/><path class="f" d="M1232.211,1246.622a.088.088,0,0,1,.1-.055c.047.007.078.042.069.079a.09.09,0,0,1-.1.055C1232.232,1246.694,1232.2,1246.658,1232.211,1246.622Z"/><path class="f" d="M1232.027,1247.352a.089.089,0,0,1,.1-.054c.047.007.078.042.068.079a.089.089,0,0,1-.1.055C1232.049,1247.425,1232.018,1247.389,1232.027,1247.352Z"/><path class="f" d="M1231.773,1246.685c.3-.274.125-.5.125-.5A.373.373,0,0,0,1231.773,1246.685Z"/><path class="f" d="M1231.529,1247.658c.3-.273.125-.5.125-.5A.373.373,0,0,0,1231.529,1247.658Z"/><path class="f" d="M1232.014,1246.973a.651.651,0,0,0,.635.087A.628.628,0,0,0,1232.014,1246.973Z"/><path class="f" d="M1230.774,1246.8a.652.652,0,0,0,.634.087A.624.624,0,0,0,1230.774,1246.8Z"/><path class="f" d="M1244.255,1248.726a.371.371,0,0,1,.426-.228c.2.028.324.176.286.331a.374.374,0,0,1-.427.228C1244.344,1249.029,1244.216,1248.881,1244.255,1248.726Z"/><path class="f" d="M1243.957,1249.07a.088.088,0,0,1,.1-.054c.046.007.076.042.067.078a.089.089,0,0,1-.1.054C1243.978,1249.141,1243.948,1249.106,1243.957,1249.07Z"/><path class="f" d="M1244.145,1248.322a.087.087,0,0,1,.1-.053c.046.006.076.041.067.078a.087.087,0,0,1-.1.053C1244.166,1248.394,1244.136,1248.359,1244.145,1248.322Z"/><path class="f" d="M1245.1,1248.49a.087.087,0,0,1,.1-.054c.046.007.076.041.067.078a.087.087,0,0,1-.1.053C1245.119,1248.561,1245.089,1248.526,1245.1,1248.49Z"/><path class="f" d="M1244.917,1249.208a.088.088,0,0,1,.1-.053c.046.006.076.041.067.077a.087.087,0,0,1-.1.054C1244.938,1249.279,1244.908,1249.245,1244.917,1249.208Z"/><path class="f" d="M1244.667,1248.552c.3-.269.123-.49.123-.49A.368.368,0,0,0,1244.667,1248.552Z"/><path class="f" d="M1244.427,1249.509c.3-.269.123-.49.123-.49A.368.368,0,0,0,1244.427,1249.509Z"/><path class="f" d="M1244.905,1248.835a.639.639,0,0,0,.623.086A.614.614,0,0,0,1244.905,1248.835Z"/><path class="f" d="M1243.685,1248.668a.642.642,0,0,0,.624.085A.615.615,0,0,0,1243.685,1248.668Z"/><ellipse class="f" cx="0.363" cy="0.284" rx="0.363" ry="0.284" transform="translate(1237.444 1246.004) rotate(-1.539)"/><path class="f" d="M1237.161,1246.571a.089.089,0,0,1,.1-.054c.046.007.076.042.067.078a.088.088,0,0,1-.1.054C1237.182,1246.642,1237.152,1246.607,1237.161,1246.571Z"/><path class="f" d="M1237.349,1245.824a.087.087,0,0,1,.1-.054c.046.007.076.042.067.078a.089.089,0,0,1-.1.054C1237.37,1245.9,1237.34,1245.86,1237.349,1245.824Z"/><ellipse class="f" cx="0.085" cy="0.067" rx="0.085" ry="0.067" transform="translate(1238.298 1245.938) rotate(-1.515)"/><ellipse class="f" cx="0.085" cy="0.067" rx="0.085" ry="0.067" transform="translate(1238.118 1246.657) rotate(-1.515)"/><path class="f" d="M1237.871,1246.053c.3-.269.123-.49.123-.49A.368.368,0,0,0,1237.871,1246.053Z"/><path class="f" d="M1237.631,1247.01c.3-.269.123-.489.123-.489A.367.367,0,0,0,1237.631,1247.01Z"/><path class="f" d="M1238.108,1246.336a.641.641,0,0,0,.624.086A.615.615,0,0,0,1238.108,1246.336Z"/><path class="f" d="M1236.889,1246.169a.641.641,0,0,0,.624.086A.616.616,0,0,0,1236.889,1246.169Z"/><path class="f" d="M1242.761,1246.2a.374.374,0,0,1,.426-.229c.2.029.325.177.286.332a.374.374,0,0,1-.426.228C1242.85,1246.5,1242.722,1246.354,1242.761,1246.2Z"/><path class="f" d="M1242.464,1246.544a.087.087,0,0,1,.1-.054c.046.007.076.041.067.078a.087.087,0,0,1-.1.053C1242.485,1246.615,1242.455,1246.58,1242.464,1246.544Z"/><path class="f" d="M1242.651,1245.8a.088.088,0,0,1,.1-.053c.046.006.076.041.067.077a.087.087,0,0,1-.1.054C1242.672,1245.867,1242.642,1245.833,1242.651,1245.8Z"/><path class="f" d="M1243.6,1245.963a.087.087,0,0,1,.1-.053c.047.006.077.041.067.077a.086.086,0,0,1-.1.054C1243.625,1246.034,1243.595,1246,1243.6,1245.963Z"/><path class="f" d="M1243.424,1246.682a.089.089,0,0,1,.1-.054c.046.007.076.042.067.078a.088.088,0,0,1-.1.054C1243.445,1246.753,1243.415,1246.718,1243.424,1246.682Z"/><path class="f" d="M1243.174,1246.026c.3-.269.123-.49.123-.49A.368.368,0,0,0,1243.174,1246.026Z"/><path class="f" d="M1242.934,1246.983c.3-.269.123-.49.123-.49A.368.368,0,0,0,1242.934,1246.983Z"/><path class="f" d="M1243.411,1246.309a.641.641,0,0,0,.624.086A.617.617,0,0,0,1243.411,1246.309Z"/><path class="f" d="M1242.191,1246.141a.64.64,0,0,0,.624.086A.616.616,0,0,0,1242.191,1246.141Z"/><path class="f" d="M1239.784,1243.635a.372.372,0,0,1,.426-.229c.2.029.325.177.286.331a.374.374,0,0,1-.426.229C1239.873,1243.937,1239.745,1243.789,1239.784,1243.635Z"/><path class="f" d="M1239.487,1243.978a.087.087,0,0,1,.1-.053c.046.006.076.041.067.077a.087.087,0,0,1-.1.054C1239.508,1244.05,1239.477,1244.015,1239.487,1243.978Z"/><path class="f" d="M1239.674,1243.231a.089.089,0,0,1,.1-.054c.046.007.076.042.067.078a.089.089,0,0,1-.1.054C1239.695,1243.3,1239.665,1243.267,1239.674,1243.231Z"/><path class="f" d="M1240.627,1243.4a.087.087,0,0,1,.1-.053c.046.006.076.041.067.077a.087.087,0,0,1-.1.054C1240.648,1243.469,1240.618,1243.435,1240.627,1243.4Z"/><path class="f" d="M1240.447,1244.117a.089.089,0,0,1,.1-.054c.046.007.076.042.067.078a.089.089,0,0,1-.1.054C1240.468,1244.188,1240.438,1244.153,1240.447,1244.117Z"/><path class="f" d="M1240.2,1243.46c.3-.269.123-.489.123-.489A.367.367,0,0,0,1240.2,1243.46Z"/><path class="f" d="M1239.956,1244.418c.3-.269.123-.49.123-.49A.368.368,0,0,0,1239.956,1244.418Z"/><path class="f" d="M1240.434,1243.744a.639.639,0,0,0,.624.085A.615.615,0,0,0,1240.434,1243.744Z"/><path class="f" d="M1239.214,1243.576a.64.64,0,0,0,.624.086A.616.616,0,0,0,1239.214,1243.576Z"/><path class="f" d="M1235.68,1243.958a.372.372,0,0,1,.426-.229c.2.029.324.177.286.332a.375.375,0,0,1-.427.228C1235.769,1244.261,1235.641,1244.112,1235.68,1243.958Z"/><path class="f" d="M1235.382,1244.3a.087.087,0,0,1,.1-.054c.046.007.076.041.067.078a.088.088,0,0,1-.1.053C1235.4,1244.373,1235.373,1244.338,1235.382,1244.3Z"/><path class="f" d="M1235.57,1243.554a.087.087,0,0,1,.1-.053c.046.006.076.041.067.077a.087.087,0,0,1-.1.054C1235.591,1243.625,1235.561,1243.591,1235.57,1243.554Z"/><path class="f" d="M1236.523,1243.721a.087.087,0,0,1,.1-.053c.046.006.076.041.067.078a.087.087,0,0,1-.1.053C1236.544,1243.793,1236.514,1243.758,1236.523,1243.721Z"/><path class="f" d="M1236.342,1244.44a.09.09,0,0,1,.1-.054c.046.007.076.042.067.078a.087.087,0,0,1-.1.054C1236.363,1244.511,1236.333,1244.476,1236.342,1244.44Z"/><path class="f" d="M1236.092,1243.784c.3-.269.123-.49.123-.49A.368.368,0,0,0,1236.092,1243.784Z"/><path class="f" d="M1235.852,1244.741c.3-.269.123-.49.123-.49A.368.368,0,0,0,1235.852,1244.741Z"/><path class="f" d="M1236.329,1244.067a.64.64,0,0,0,.624.086A.615.615,0,0,0,1236.329,1244.067Z"/><path class="f" d="M1235.11,1243.9a.641.641,0,0,0,.624.086A.616.616,0,0,0,1235.11,1243.9Z"/><path class="f" d="M1234.646,1248.08a.372.372,0,0,1,.426-.228c.2.028.324.176.286.331a.374.374,0,0,1-.427.228C1234.735,1248.383,1234.607,1248.235,1234.646,1248.08Z"/><path class="f" d="M1234.348,1248.424a.088.088,0,0,1,.1-.054c.046.007.076.042.067.078a.089.089,0,0,1-.1.054C1234.369,1248.495,1234.339,1248.46,1234.348,1248.424Z"/><path class="f" d="M1234.536,1247.676a.087.087,0,0,1,.1-.053c.046.006.076.041.067.078a.087.087,0,0,1-.1.053C1234.557,1247.748,1234.527,1247.713,1234.536,1247.676Z"/><path class="f" d="M1235.489,1247.844a.087.087,0,0,1,.1-.054c.046.007.076.041.067.078a.087.087,0,0,1-.1.053C1235.51,1247.915,1235.48,1247.88,1235.489,1247.844Z"/><path class="f" d="M1235.308,1248.562a.088.088,0,0,1,.1-.053c.046.006.076.041.067.077a.087.087,0,0,1-.1.054C1235.329,1248.633,1235.3,1248.6,1235.308,1248.562Z"/><path class="f" d="M1235.058,1247.906c.3-.269.123-.49.123-.49A.368.368,0,0,0,1235.058,1247.906Z"/><path class="f" d="M1234.818,1248.863c.3-.269.123-.489.123-.489A.367.367,0,0,0,1234.818,1248.863Z"/><path class="f" d="M1235.3,1248.189a.64.64,0,0,0,.624.086A.615.615,0,0,0,1235.3,1248.189Z"/><path class="f" d="M1234.076,1248.022a.642.642,0,0,0,.624.085A.615.615,0,0,0,1234.076,1248.022Z"/><path class="f" d="M1234.055,1250.436a.373.373,0,0,1,.426-.229c.2.028.325.177.286.331a.373.373,0,0,1-.426.229C1234.144,1250.738,1234.016,1250.59,1234.055,1250.436Z"/><path class="f" d="M1233.758,1250.779a.087.087,0,0,1,.1-.053c.046.006.076.041.067.077a.087.087,0,0,1-.1.054C1233.779,1250.851,1233.748,1250.816,1233.758,1250.779Z"/><path class="f" d="M1233.945,1250.032a.089.089,0,0,1,.1-.054c.046.007.076.042.067.078a.089.089,0,0,1-.1.054C1233.966,1250.1,1233.936,1250.068,1233.945,1250.032Z"/><path class="f" d="M1234.9,1250.2a.089.089,0,0,1,.1-.054c.046.007.076.042.067.078a.087.087,0,0,1-.1.054C1234.919,1250.27,1234.889,1250.235,1234.9,1250.2Z"/><path class="f" d="M1234.718,1250.918a.088.088,0,0,1,.1-.054c.046.007.076.042.067.078a.089.089,0,0,1-.1.054C1234.739,1250.989,1234.709,1250.954,1234.718,1250.918Z"/><path class="f" d="M1234.467,1250.261c.3-.269.123-.489.123-.489A.367.367,0,0,0,1234.467,1250.261Z"/><path class="f" d="M1234.227,1251.219c.3-.269.123-.49.123-.49A.368.368,0,0,0,1234.227,1251.219Z"/><path class="f" d="M1234.7,1250.545a.639.639,0,0,0,.624.085A.615.615,0,0,0,1234.7,1250.545Z"/><path class="f" d="M1233.485,1250.377a.641.641,0,0,0,.624.086A.617.617,0,0,0,1233.485,1250.377Z"/><path class="f" d="M1236.4,1252.3a.374.374,0,0,1,.426-.229c.2.029.325.177.286.332a.373.373,0,0,1-.426.228C1236.493,1252.6,1236.365,1252.454,1236.4,1252.3Z"/><path class="f" d="M1236.106,1252.644a.087.087,0,0,1,.1-.054c.046.007.076.041.067.078a.087.087,0,0,1-.1.053C1236.127,1252.715,1236.1,1252.68,1236.106,1252.644Z"/><path class="f" d="M1236.294,1251.9a.087.087,0,0,1,.1-.053c.046.006.076.041.067.077a.087.087,0,0,1-.1.054C1236.315,1251.967,1236.284,1251.933,1236.294,1251.9Z"/><path class="f" d="M1237.246,1252.063a.089.089,0,0,1,.1-.053c.046.006.076.041.067.078a.087.087,0,0,1-.1.053C1237.267,1252.135,1237.237,1252.1,1237.246,1252.063Z"/><path class="f" d="M1237.066,1252.782a.089.089,0,0,1,.1-.054c.046.007.077.042.067.078a.087.087,0,0,1-.1.054C1237.087,1252.853,1237.057,1252.818,1237.066,1252.782Z"/><path class="f" d="M1236.816,1252.126c.3-.269.123-.49.123-.49A.368.368,0,0,0,1236.816,1252.126Z"/><path class="f" d="M1236.576,1253.083c.3-.269.123-.49.123-.49A.368.368,0,0,0,1236.576,1253.083Z"/><path class="f" d="M1237.053,1252.409a.641.641,0,0,0,.624.086A.616.616,0,0,0,1237.053,1252.409Z"/><path class="f" d="M1235.833,1252.241a.641.641,0,0,0,.624.086A.616.616,0,0,0,1235.833,1252.241Z"/><path class="f" d="M1239.879,1251.276a.372.372,0,0,1,.426-.229c.2.029.325.177.286.331a.374.374,0,0,1-.427.229C1239.968,1251.579,1239.84,1251.43,1239.879,1251.276Z"/><path class="f" d="M1239.581,1251.619a.088.088,0,0,1,.1-.053c.046.006.076.041.067.078a.087.087,0,0,1-.1.053C1239.6,1251.691,1239.572,1251.656,1239.581,1251.619Z"/><path class="f" d="M1239.769,1250.872a.089.089,0,0,1,.1-.054c.046.007.076.042.067.078a.087.087,0,0,1-.1.054C1239.79,1250.943,1239.76,1250.908,1239.769,1250.872Z"/><path class="f" d="M1240.722,1251.039a.087.087,0,0,1,.1-.053c.046.006.076.041.067.077a.087.087,0,0,1-.1.054C1240.743,1251.11,1240.713,1251.076,1240.722,1251.039Z"/><path class="f" d="M1240.542,1251.758a.088.088,0,0,1,.1-.054c.046.007.076.042.067.078a.089.089,0,0,1-.1.054C1240.562,1251.829,1240.532,1251.794,1240.542,1251.758Z"/><path class="f" d="M1240.291,1251.1c.3-.269.123-.489.123-.489A.366.366,0,0,0,1240.291,1251.1Z"/><path class="f" d="M1240.051,1252.059c.3-.269.123-.49.123-.49A.368.368,0,0,0,1240.051,1252.059Z"/><path class="f" d="M1240.529,1251.385a.639.639,0,0,0,.623.086A.614.614,0,0,0,1240.529,1251.385Z"/><path class="f" d="M1239.309,1251.217a.641.641,0,0,0,.624.086A.616.616,0,0,0,1239.309,1251.217Z"/><path class="f" d="M1239.066,1254.515a.374.374,0,0,1,.426-.229c.2.028.325.177.286.331a.372.372,0,0,1-.426.229C1239.155,1254.817,1239.027,1254.669,1239.066,1254.515Z"/><path class="f" d="M1238.769,1254.858a.087.087,0,0,1,.1-.053c.046.006.076.041.067.077a.087.087,0,0,1-.1.054C1238.79,1254.93,1238.76,1254.9,1238.769,1254.858Z"/><path class="f" d="M1238.957,1254.111a.088.088,0,0,1,.1-.054c.046.007.076.042.067.078a.089.089,0,0,1-.1.054C1238.978,1254.182,1238.947,1254.147,1238.957,1254.111Z"/><path class="f" d="M1239.909,1254.278a.089.089,0,0,1,.1-.054c.047.007.077.042.068.078a.087.087,0,0,1-.1.054C1239.93,1254.349,1239.9,1254.314,1239.909,1254.278Z"/><path class="f" d="M1239.729,1255a.088.088,0,0,1,.1-.054c.046.007.076.042.067.078a.089.089,0,0,1-.1.054C1239.75,1255.068,1239.72,1255.033,1239.729,1255Z"/><path class="f" d="M1239.479,1254.34c.3-.269.123-.489.123-.489A.367.367,0,0,0,1239.479,1254.34Z"/><path class="f" d="M1239.239,1255.3c.3-.269.123-.49.123-.49A.368.368,0,0,0,1239.239,1255.3Z"/><path class="f" d="M1239.716,1254.624a.639.639,0,0,0,.624.085A.615.615,0,0,0,1239.716,1254.624Z"/><path class="f" d="M1238.5,1254.456a.64.64,0,0,0,.624.086A.616.616,0,0,0,1238.5,1254.456Z"/><path class="f" d="M1240.485,1257.337l15.045-17.644,16.97,17.94-16.4,17.632Z"/><path class="e" d="M1256.505,1256.308q-.654-.66-1.3-1.319a.217.217,0,0,1-.041-.068,3.934,3.934,0,0,1,.655-4.379,4.1,4.1,0,0,1,2.491-1.349,4.906,4.906,0,0,1,2.518.219,2.538,2.538,0,0,1,1.654,1.578,3.387,3.387,0,0,1,.065,1.787,6.279,6.279,0,0,1-.628,1.737.211.211,0,0,1-.14.087,14.746,14.746,0,0,0-3.932,1.1C1257.4,1255.893,1256.959,1256.1,1256.505,1256.308Z"/><path class="e" d="M1255.768,1256.722c-.268.168-.529.328-.784.494a11.378,11.378,0,0,0-3.208,2.944.131.131,0,0,1-.086.051,10.5,10.5,0,0,1-3.232-.175,4.331,4.331,0,0,1-1.76-.778,2.437,2.437,0,0,1-.764-.985,2.282,2.282,0,0,1-.126-1.71,2.628,2.628,0,0,1,1.533-1.424,8.319,8.319,0,0,1,4.413-.465,10.329,10.329,0,0,1,2.593.684.587.587,0,0,1,.191.124c.384.382.762.767,1.143,1.151Z"/><path class="e" d="M1255.5,1263.124a11.617,11.617,0,0,1,3.283-2.82,16.069,16.069,0,0,1,5.378-2.117c-.269.733-2.05,2.317-3.6,3.188A14.168,14.168,0,0,1,1255.5,1263.124Z"/><path class="e" d="M1264.1,1257.412a16.445,16.445,0,0,0-9.547,5.426l-.483-.488c-.221-.223-.22-.223-.058-.455a9.553,9.553,0,0,1,2.084-2.089,15.742,15.742,0,0,1,2.445-1.527,15.444,15.444,0,0,1,4.514-1.529.513.513,0,0,1,.568.172A6.706,6.706,0,0,0,1264.1,1257.412Z"/><path class="e" d="M1253.179,1261.448c-.214-.216-.442-.443-.663-.675-.021-.023,0-.08.019-.113a7.28,7.28,0,0,1,1.139-1.355,14.957,14.957,0,0,1,3.638-2.491,16.385,16.385,0,0,1,2.839-1.114,11.617,11.617,0,0,1,1.759-.367.255.255,0,0,1,.166.038c.223.214.435.434.65.651A16.388,16.388,0,0,0,1253.179,1261.448Z"/><path class="e" d="M1254.013,1254.418l-1.692-.392a.3.3,0,0,1-.077-.026,7.639,7.639,0,0,1-1.609-1.071,1.536,1.536,0,0,1-.483-1.579c.1-.452.536-.691,1.141-.635a2.612,2.612,0,0,1,1.992.975c.193.27.36.551.533.829a.277.277,0,0,1,.043.165,4.785,4.785,0,0,0,.152,1.719C1254.016,1254.413,1254.013,1254.423,1254.013,1254.418Z"/><path class="e" d="M1250.993,1249.2l-2.721,1.547-.328-.331,2.72-1.546Z"/><path class="e" d="M1252.417,1252.361l-.544.309-3.933-3.975.544-.309Z"/><path class="f" d="M1268.029,1254.037,1227.5,1277h39.47Z"/><path class="f" d="M1267.5,1254.243a1.512,1.512,0,0,1,.624,1.171,2.189,2.189,0,0,1-4.216,0,1.446,1.446,0,0,1,.621-1.172Z"/><rect class="f" width="2.869" height="6.227" transform="translate(1264.574 1248.017)"/><path class="e" d="M1264.571,1249.271v-.244l2.869,0v.244Z"/><path class="e" d="M1264.573,1250.509v-.244l2.869,0v.244Z"/><path class="e" d="M1264.575,1251.746v-.244l2.869,0v.244Z"/><rect class="e" width="2.869" height="0.244" transform="translate(1264.576 1252.739)"/><path class="f" d="M1266.23,1248.427h1.741l-.113-16.427-1.743-1.134Z"/><path class="f" d="M1265.687,1230.865l-1.738,1.137.113,16.427h1.74Z"/><rect class="e" width="6.864" height="0.976" transform="translate(1262.394 1247.572)"/><path class="f" d="M1260.3,1220.631a.633.633,0,0,0-.732.261l-1.308,2.753a1.3,1.3,0,0,0-.537.011l-2.193.525v-.006l2.19-.524-.266-3.291-1.383,1.181-2.576-2.127c-.011,0-.022,0-.034,0l-1.5,1.856-3.17-2.443-.947,2.132-3.861-2.784-1.011,3.919-2.439-1.292-.946,3.427-2.4-.9a.261.261,0,0,1-.056.018l-.29,3.039-2.237-.555,2.236,2.819,3.824-.914v.006l-3.822.914c-.442.106-.715.4-.612.645a.527.527,0,0,0,.373.267l-4.128,1.041c-.3.075-.462.321-.363.548a.584.584,0,0,0,.543.3.746.746,0,0,0,.181-.022l7.828-1.974v5.9h-4l2.089,6.508h.746v-.849h.647v.849h.484v-.849h.647v.849h.485v-.849h.647v.849h.485v-.849h.646v.849h.485v-.849h.647v.849h.485v-.849h.647v.849h.485v-.849h.646v.849h.485v-.849h.647v.849h.485v-.849h.647v.849h.484v-.849h.647v.849h.485v-.849h.647v.849h4.079V1225.7l3.109-.784a.528.528,0,0,0,.357-.265l1.648-3.47C1260.751,1220.96,1260.6,1220.712,1260.3,1220.631Zm-8.2,14.723h-9.724v-6.332l9.724-2.452Zm0-10.352-9.724,2.326v-.007l9.724-2.326Z"/><path class="f" d="M1240.448,1220.824c.374-.089.58-.391.461-.677a.771.771,0,0,0-.89-.354c-.374.09-.58.392-.461.677A.769.769,0,0,0,1240.448,1220.824Z"/><path class="f" d="M1244.489,1217.42a.853.853,0,0,0-.986-.392c-.416.1-.641.436-.51.75a.855.855,0,0,0,.987.4C1244.4,1218.074,1244.621,1217.737,1244.489,1217.42Z"/><path class="f" d="M1237.18,1223.325a.447.447,0,0,0,.314-.577.692.692,0,0,0-.8-.319c-.333.08-.522.352-.415.61a.7.7,0,0,0,.8.319.222.222,0,0,0,.045-.015l0-.036Z"/><path class="f" d="M1234.238,1225.965c.3-.072.468-.317.372-.547a.623.623,0,0,0-.72-.29c-.3.072-.469.317-.371.551A.624.624,0,0,0,1234.238,1225.965Z"/><path class="f" d="M1249.282,1218.145a.769.769,0,0,0-.89-.354c-.374.089-.58.391-.461.677a.757.757,0,0,0,.857.358.118.118,0,0,0,.033,0C1249.195,1218.732,1249.4,1218.43,1249.282,1218.145Z"/><path class="f" d="M1257.875,1220.312c.3-.072.468-.317.372-.547a.623.623,0,0,0-.72-.29c-.3.072-.469.317-.371.551A.623.623,0,0,0,1257.875,1220.312Z"/><path class="f" d="M1253.495,1219.414a.682.682,0,0,0,.163-.022c.338-.08.523-.351.415-.609a.691.691,0,0,0-.8-.319c-.333.08-.517.35-.41.608a.636.636,0,0,0,.6.341l.016-.017Z"/><ellipse class="e" cx="1.621" cy="2.297" rx="1.621" ry="2.297" transform="translate(1243.146 1223.165) rotate(-35.901)"/><path class="e" d="M1241.229,1225.171l.248.381.554.061-.4.3.095.419-.5-.2-.5.2.095-.419-.4-.3.554-.061Z"/><path class="e" d="M1251.525,1222.568l.248.381.554.061-.4.3.095.419-.5-.2-.5.2.095-.419-.4-.3.554-.061Z"/><path class="f" d="M1231.136,1249.3l-.363,26.4h5.307l-1.546-23.16Z"/><path class="f" d="M1236.653,1254.876l1.716,18.22,2.288-.434-1.361-15.647-2.071-2.139Z"/><path class="f" d="M1241.8,1257.912l.095,1.044,1.049,11.537h2.288l.3-7.7"/><path class="e" d="M1232.843,1271.711c1.111,0,1.113-1.31,0-1.31s-1.113,1.31,0,1.31Z"/><path class="e" d="M1233.242,1264.958l-.062-.01.38.168-.038-.03.222.289-.012-.049c-.09-.347-.637-.546-1.062-.457a.669.669,0,0,0-.6.806.855.855,0,0,0,.717.546.946.946,0,0,0,1.062-.458.662.662,0,0,0-.6-.8Z"/><path class="e" d="M1233.238,1261.222c1.112,0,1.113-1.31,0-1.31s-1.113,1.31,0,1.31Z"/><path class="e" d="M1233.125,1256.155c1.111,0,1.113-1.31,0-1.31s-1.113,1.31,0,1.31Z"/><path class="e" d="M1244.075,1266.482l-.029,0,.182.072-.019-.014.112.131-.007-.023a.446.446,0,0,0-.508-.193.3.3,0,0,0-.254.385.413.413,0,0,0,.349.24.428.428,0,0,0,.479-.231.317.317,0,0,0-.305-.363Z"/><path class="e" d="M1243.956,1264.748c.516-.02.476-.628-.041-.608s-.475.628.041.608Z"/><path class="e" d="M1243.745,1262.4c.516-.02.476-.628-.041-.608s-.476.628.041.608Z"/><path class="e" d="M1238.293,1258.937c.8-.043.719-.99-.086-.948s-.719.99.086.948Z"/><path class="e" d="M1238.617,1262.474c.8-.042.719-.99-.087-.947s-.719.99.087.947Z"/><path class="e" d="M1239.375,1265.914a.566.566,0,0,0,.177-.284.508.508,0,0,0-.49-.56c-.316-.048-.691.116-.738.372l-.007.036.142-.217-.029.03a.41.41,0,0,0,.062.67.778.778,0,0,0,.883-.047Z"/><path class="e" d="M1238.763,1269.585l0,.032c.055.609,1.305.545,1.249-.066l0-.032c-.055-.61-1.3-.545-1.249.066Z"/><path class="i" d="M1292.5,1252c0,18.925-29.013,36.284-42.5,42.524-13.494-6.228-42.5-23.561-42.5-42.524v-57h-5v57c0,27.614,47.5,48,47.5,48h0s47.5-20.386,47.5-48v-57h-5Z"/><path class="c" d="M1221.7,1189.066c-2.507-2.929-2.366-7.518-.557-9.066"/><path class="c" d="M1278.1,1189.066c2.507-2.929,2.366-7.518.557-9.066"/><path class="c" d="M1278.814,1180.608c1.2,14.189-12.916,29.392-28.849,29.392s-28.85-12.162-28.85-29.392c0-.2,28.65-7.094,28.85-7.094C1251.159,1173.514,1278.8,1180.406,1278.814,1180.608Z"/><path class="d" d="M1265.266,1160.15c-11.9-.285-14.636,8.768-15.266,13.123-.63-4.355-3.37-13.408-15.266-13.123-15.643.376-17.716,17.843-12.251,26.671s8.293,9.566,13.759,15.2c5.147,5.307,11.3-.155,13.57,3.5,0,0,.121.427.188.311.067.116.188-.311.188-.311,2.273-3.659,8.423,1.8,13.57-3.5,5.466-5.634,8.293-6.373,13.759-15.2S1280.909,1160.526,1265.266,1160.15Z"/><g class="j"><path class="k" d="M1235.278,1160.144v2c9.648,0,12.124,7.152,12.742,11.416a2,2,0,0,0,3.958,0c.618-4.264,3.093-11.416,12.742-11.416.163,0,.33,0,.5.006,5.113.122,8.967,2.316,11.148,6.344a18.5,18.5,0,0,1-.55,17.274,39.721,39.721,0,0,1-8.934,10.567c-1.324,1.175-2.825,2.506-4.559,4.294a5.845,5.845,0,0,1-4.586,1.869,21.917,21.917,0,0,1-2.363-.173,20.973,20.973,0,0,0-2.272-.168,6.6,6.6,0,0,1-6.2,0,20.973,20.973,0,0,0-2.272.168,21.917,21.917,0,0,1-2.363.173,5.845,5.845,0,0,1-4.586-1.869c-1.734-1.788-3.235-3.119-4.559-4.294a39.721,39.721,0,0,1-8.934-10.567,18.5,18.5,0,0,1-.55-17.274c2.181-4.028,6.035-6.222,11.148-6.344.168,0,.332-.006.5-.006v-2m29.443,0c-11.436,0-14.1,8.842-14.721,13.129-.621-4.287-3.287-13.129-14.721-13.129-.18,0-.361,0-.545.006-15.643.376-17.716,17.843-12.251,26.671s8.293,9.566,13.759,15.2a7.858,7.858,0,0,0,6.021,2.477c1.69,0,3.29-.341,4.635-.341a3.068,3.068,0,0,1,2.914,1.368s.094.331.162.331c.009,0,.018-.006.026-.02.008.014.017.02.026.02.068,0,.162-.331.162-.331a3.068,3.068,0,0,1,2.914-1.368c1.345,0,2.945.341,4.635.341a7.86,7.86,0,0,0,6.021-2.477c5.466-5.634,8.293-6.373,13.759-15.2s3.392-26.3-12.251-26.671c-.184,0-.366-.006-.545-.006Z"/></g><path class="l" d="M1250,1184.459l-7.971-31.657a2.4,2.4,0,0,1,2.52-2.8h10.9a2.4,2.4,0,0,1,2.52,2.8Z"/><path class="f" d="M1250,1191.554c-10.949,0-20.971-2.6-28.732-6.921,0,18.07,28.732,25.164,28.732,25.164s28.732-8.108,28.732-25.164C1270.971,1188.949,1260.949,1191.554,1250,1191.554Z"/><path class="c" d="M1272.166,1192.139q.144-1.07.286-2.139a2.172,2.172,0,0,1,.413-1.164c.5-.622,1.477-1.01,1.881-.4.371.565.168,1.5.128,2.139a10.977,10.977,0,0,1-1.278,4.372,1.466,1.466,0,0,1-.419.539,1.443,1.443,0,0,1-.885.276c-.507-.033-.557-.4-.517-.7Q1271.97,1193.6,1272.166,1192.139Z"/><path class="c" d="M1265.443,1195.583l.178-2.758a2.775,2.775,0,0,1,.4-1.485c.532-.776,1.645-1.218,2.159-.4a5.556,5.556,0,0,1,.3,2.785,14.393,14.393,0,0,1-1.171,5.593,1.624,1.624,0,0,1-.449.673,1.42,1.42,0,0,1-1.008.3c-.593-.074-.678-.554-.653-.939Q1265.321,1197.47,1265.443,1195.583Z"/><path class="c" d="M1258.834,1198.442l.273-3.415a3.737,3.737,0,0,1,.469-1.815c.595-.922,1.8-1.378,2.334-.313.486.98.269,2.452.244,3.489a19.728,19.728,0,0,1-1.423,6.86,1.925,1.925,0,0,1-.5.8,1.333,1.333,0,0,1-1.094.293c-.635-.142-.712-.746-.675-1.222Q1258.647,1200.781,1258.834,1198.442Z"/><path class="c" d="M1252.126,1200.3q.02-1.926.038-3.851a4.242,4.242,0,0,1,.369-2.055c.573-1.053,1.844-1.6,2.494-.414.6,1.09.474,2.752.526,3.92a22.637,22.637,0,0,1-1.02,7.76,2.067,2.067,0,0,1-.481.914,1.353,1.353,0,0,1-1.158.358c-.7-.143-.824-.821-.819-1.358Z"/><path class="c" d="M1227.834,1192.139q-.144-1.07-.286-2.139a2.172,2.172,0,0,0-.413-1.164c-.5-.622-1.477-1.01-1.881-.4-.371.565-.168,1.5-.128,2.139a10.977,10.977,0,0,0,1.278,4.372,1.466,1.466,0,0,0,.419.539,1.443,1.443,0,0,0,.885.276c.507-.033.557-.4.517-.7Q1228.03,1193.6,1227.834,1192.139Z"/><path class="c" d="M1234.641,1195.583l-.178-2.758a2.784,2.784,0,0,0-.4-1.485c-.532-.776-1.646-1.218-2.159-.4a5.557,5.557,0,0,0-.3,2.785,14.375,14.375,0,0,0,1.171,5.593,1.605,1.605,0,0,0,.449.673,1.418,1.418,0,0,0,1.008.3c.593-.074.678-.554.653-.939Q1234.763,1197.47,1234.641,1195.583Z"/><path class="c" d="M1241.333,1198.442q-.135-1.709-.272-3.415a3.738,3.738,0,0,0-.469-1.815c-.6-.922-1.806-1.378-2.335-.313-.486.98-.268,2.452-.244,3.489a19.75,19.75,0,0,0,1.423,6.86,1.918,1.918,0,0,0,.5.8,1.331,1.331,0,0,0,1.093.293c.635-.142.713-.746.675-1.222Q1241.52,1200.781,1241.333,1198.442Z"/><path class="c" d="M1248.125,1200.3q-.019-1.926-.038-3.851a4.24,4.24,0,0,0-.369-2.055c-.573-1.053-1.844-1.6-2.494-.414-.6,1.09-.474,2.752-.526,3.92a22.637,22.637,0,0,0,1.02,7.76,2.067,2.067,0,0,0,.481.914,1.354,1.354,0,0,0,1.158.358c.695-.143.824-.821.819-1.358Z"/><path class="m" d="M1250,1188.514a110,110,0,0,1-28.055-3.51,63.359,63.359,0,0,0,56.11,0A110,110,0,0,1,1250,1188.514Z"/><path class="l" d="M1284.1,1217.908a2.126,2.126,0,0,1-4.206,0c-2.154.052-2.44,2.466-1.687,3.686a11.253,11.253,0,0,0,1.9,2.388,18.159,18.159,0,0,1,1.869,2.065s.017.059.026.043c.009.016.026-.043.026-.043a18.159,18.159,0,0,1,1.869-2.065,11.253,11.253,0,0,0,1.9-2.388C1286.543,1220.374,1286.257,1217.96,1284.1,1217.908Z"/><path class="n" d="M1244.549,1150a2.4,2.4,0,0,0-2.52,2.8l2.571,10.209c-2.256-1.769-5.421-2.967-9.866-2.861-12.771.307-16.495,12.005-14.458,21.093a8.007,8.007,0,0,0,1.424,7.823l-.06-.976a17.429,17.429,0,0,0,2.226,5.481c.222.484.454.962.7,1.429H1202.5v57c0,11.215,7.835,21.238,17.142,29.188-.144.307-.289.614-.422.943a33.931,33.931,0,0,0-2.221,7.861c-3.01,1.541-6,4.931-6,6.99,0,2.728,2.91,2.08,6.5,2.08,2.843,0,5.254-.576,6.136-2.17a22.179,22.179,0,0,0,7.4-4.7q.792-.781,1.525-1.583A139.806,139.806,0,0,0,1250,1300V1150Z"/><g class="o"><rect class="l" width="2" height="126" rx="0.992" transform="translate(1207 1166.129)"/><path class="c" d="M1211.028,1163.107a3.061,3.061,0,0,1-6.056,0c-3.1.075-3.514,3.552-2.43,5.309a16.234,16.234,0,0,0,2.729,3.439,26.178,26.178,0,0,1,2.692,2.973s.024.085.037.062c.013.023.037-.062.037-.062a26.178,26.178,0,0,1,2.692-2.973,16.234,16.234,0,0,0,2.729-3.439C1214.542,1166.659,1214.131,1163.182,1211.028,1163.107Z"/><rect class="p" width="6" height="130" transform="translate(1202 1162.129)"/></g><path class="c" d="M1298.565,1226.588c.915,1.685,2.086,4.268,1,6.134-1.332,2.289-5.444,2.589-7.284.792,1.471-1.7.545-4.83-1.53-6.172a18.369,18.369,0,0,0,3.268-2.973c.637-.632,1.209-1.3,2.15-.91C1297.244,1223.9,1298.02,1225.583,1298.565,1226.588Z"/><path class="c" d="M1297.526,1232.88a3.535,3.535,0,0,1-1.641,1.618,3.188,3.188,0,0,1-1.074.208,6.893,6.893,0,0,1-1.829-.26,4.7,4.7,0,0,1-1.188-.437,3.614,3.614,0,0,1-1.584-2.066,7.848,7.848,0,0,1,.356-4.979c.684-1.909,1.888-5.036,4.589-3.644C1298.624,1225.1,1299.123,1230.052,1297.526,1232.88Z"/><text class="q" transform="translate(1250 1163.522)"><tspan x="-3.523" y="0">K</tspan></text><text class="r" transform="translate(1282 1214.109)"><tspan x="-3.794" y="0">K</tspan></text><path class="c" d="M1201.435,1226.588c-.915,1.685-2.086,4.268-1,6.134,1.332,2.289,5.444,2.589,7.284.792-1.471-1.7-.545-4.83,1.53-6.172a18.369,18.369,0,0,1-3.268-2.973c-.637-.632-1.209-1.3-2.15-.91C1202.756,1223.9,1201.98,1225.583,1201.435,1226.588Z"/><path class="c" d="M1206.092,1231.2a2.285,2.285,0,0,0,.181,1.37,1.861,1.861,0,0,0,.4.49,3.694,3.694,0,0,0,.894.541,2.435,2.435,0,0,0,.67.224,1.89,1.89,0,0,0,1.392-.411,4.76,4.76,0,0,0,1.514-2.51c.339-1.161.858-3.093-.8-3.41C1208.22,1227.088,1206.338,1229.273,1206.092,1231.2Z"/></g></svg>